<mxfile host="app.diagrams.net" modified="2022-02-26T09:58:13.610Z" agent="5.0 (Windows NT 10.0; Win64; x64) AppleWebKit/537.36 (KHTML, like Gecko) Chrome/98.0.4758.102 Safari/537.36" etag="eg0tBowF4mPcEASmywtB" version="16.0.3" type="github">
  <diagram name="Page-1" id="aaaa8250-4180-3840-79b5-4cada1eebb92">
    <mxGraphModel dx="1550" dy="2048" grid="1" gridSize="10" guides="1" tooltips="1" connect="1" arrows="1" fold="1" page="1" pageScale="1" pageWidth="850" pageHeight="1100" background="none" math="0" shadow="0">
      <root>
        <mxCell id="0" />
        <mxCell id="1" parent="0" />
        <mxCell id="ZeBQX1oqdIYX9gZX3-Ay-139" value="" style="endArrow=none;html=1;rounded=0;fontSize=13;fontColor=#25A10C;endSize=6;strokeWidth=4;exitX=1;exitY=0.5;exitDx=0;exitDy=0;fillColor=#f8cecc;strokeColor=#26B0FF;" edge="1" parent="1" source="ZeBQX1oqdIYX9gZX3-Ay-1">
          <mxGeometry width="50" height="50" relative="1" as="geometry">
            <mxPoint x="880" y="460" as="sourcePoint" />
            <mxPoint x="2040" y="485" as="targetPoint" />
          </mxGeometry>
        </mxCell>
        <mxCell id="ZeBQX1oqdIYX9gZX3-Ay-75" value="" style="rounded=1;whiteSpace=wrap;html=1;shadow=0;glass=0;sketch=0;strokeColor=#666666;strokeWidth=1;fillColor=#f5f5f5;gradientDirection=west;dashed=1;fontColor=#333333;" vertex="1" parent="1">
          <mxGeometry x="1570" y="506.5" width="260" height="440" as="geometry" />
        </mxCell>
        <mxCell id="ZeBQX1oqdIYX9gZX3-Ay-76" value="" style="rounded=1;whiteSpace=wrap;html=1;shadow=0;glass=0;sketch=0;strokeColor=#666666;strokeWidth=1;fillColor=#f5f5f5;gradientDirection=west;dashed=1;fontColor=#333333;" vertex="1" parent="1">
          <mxGeometry x="1870" y="510" width="260" height="440" as="geometry" />
        </mxCell>
        <mxCell id="ZeBQX1oqdIYX9gZX3-Ay-73" value="&lt;br&gt;" style="rounded=1;whiteSpace=wrap;html=1;shadow=0;glass=0;sketch=0;strokeColor=#666666;strokeWidth=1;fillColor=#f5f5f5;gradientDirection=west;dashed=1;fontColor=#333333;" vertex="1" parent="1">
          <mxGeometry x="1258" y="510" width="260" height="440" as="geometry" />
        </mxCell>
        <mxCell id="ZeBQX1oqdIYX9gZX3-Ay-1" value="tableau&lt;br&gt;electrique&lt;br&gt;communs&lt;br&gt;12kVA" style="whiteSpace=wrap;html=1;aspect=fixed;sketch=1;" vertex="1" parent="1">
          <mxGeometry x="1160" y="440" width="90" height="90" as="geometry" />
        </mxCell>
        <mxCell id="ZeBQX1oqdIYX9gZX3-Ay-8" value="" style="endArrow=none;html=1;rounded=0;exitX=0.5;exitY=1;exitDx=0;exitDy=0;strokeWidth=4;strokeColor=#26B0FF;" edge="1" parent="1">
          <mxGeometry width="50" height="50" relative="1" as="geometry">
            <mxPoint x="1347" y="443" as="sourcePoint" />
            <mxPoint x="1352" y="483" as="targetPoint" />
          </mxGeometry>
        </mxCell>
        <mxCell id="ZeBQX1oqdIYX9gZX3-Ay-14" value="prise 10A" style="whiteSpace=wrap;html=1;aspect=fixed;sketch=1;" vertex="1" parent="1">
          <mxGeometry x="1375" y="520" width="50" height="50" as="geometry" />
        </mxCell>
        <mxCell id="ZeBQX1oqdIYX9gZX3-Ay-15" value="prise 10A" style="whiteSpace=wrap;html=1;aspect=fixed;sketch=1;" vertex="1" parent="1">
          <mxGeometry x="1320" y="390" width="50" height="50" as="geometry" />
        </mxCell>
        <mxCell id="ZeBQX1oqdIYX9gZX3-Ay-16" value="prise 10A" style="whiteSpace=wrap;html=1;aspect=fixed;sketch=1;" vertex="1" parent="1">
          <mxGeometry x="1675" y="520" width="50" height="50" as="geometry" />
        </mxCell>
        <mxCell id="ZeBQX1oqdIYX9gZX3-Ay-17" value="prise 10A" style="whiteSpace=wrap;html=1;aspect=fixed;sketch=1;" vertex="1" parent="1">
          <mxGeometry x="1975" y="520" width="50" height="50" as="geometry" />
        </mxCell>
        <mxCell id="ZeBQX1oqdIYX9gZX3-Ay-36" value="" style="group;fillColor=none;" vertex="1" connectable="0" parent="1">
          <mxGeometry x="1340" y="570" width="120" height="93" as="geometry" />
        </mxCell>
        <mxCell id="ZeBQX1oqdIYX9gZX3-Ay-18" value="" style="shape=hexagon;perimeter=hexagonPerimeter2;whiteSpace=wrap;html=1;fixedSize=1;rounded=1;shadow=1;glass=0;sketch=0;fillColor=#e1d5e7;strokeColor=#9673a6;" vertex="1" parent="ZeBQX1oqdIYX9gZX3-Ay-36">
          <mxGeometry width="120" height="80" as="geometry" />
        </mxCell>
        <mxCell id="ZeBQX1oqdIYX9gZX3-Ay-27" value="" style="group" vertex="1" connectable="0" parent="ZeBQX1oqdIYX9gZX3-Ay-36">
          <mxGeometry x="46" y="29.5" width="45" height="63.5" as="geometry" />
        </mxCell>
        <mxCell id="ZeBQX1oqdIYX9gZX3-Ay-28" value="" style="group" vertex="1" connectable="0" parent="ZeBQX1oqdIYX9gZX3-Ay-27">
          <mxGeometry x="-15" y="-18.5" width="60" height="82" as="geometry" />
        </mxCell>
        <mxCell id="ZeBQX1oqdIYX9gZX3-Ay-23" value="" style="ellipse;whiteSpace=wrap;html=1;aspect=fixed;rounded=1;shadow=0;glass=0;sketch=0;fillColor=#d5e8d4;strokeColor=#000000;" vertex="1" parent="ZeBQX1oqdIYX9gZX3-Ay-28">
          <mxGeometry width="60" height="60" as="geometry" />
        </mxCell>
        <mxCell id="ZeBQX1oqdIYX9gZX3-Ay-22" value="" style="ellipse;whiteSpace=wrap;html=1;aspect=fixed;rounded=1;shadow=0;glass=0;sketch=0;fillColor=#B3B3B3;gradientColor=#ffffff;gradientDirection=west;" vertex="1" parent="ZeBQX1oqdIYX9gZX3-Ay-28">
          <mxGeometry x="5" y="5" width="50" height="50" as="geometry" />
        </mxCell>
        <mxCell id="ZeBQX1oqdIYX9gZX3-Ay-24" value="" style="ellipse;whiteSpace=wrap;html=1;aspect=fixed;rounded=1;shadow=0;glass=0;sketch=0;fillColor=#000000;" vertex="1" parent="ZeBQX1oqdIYX9gZX3-Ay-27">
          <mxGeometry x="2" y="1" width="8" height="8" as="geometry" />
        </mxCell>
        <mxCell id="ZeBQX1oqdIYX9gZX3-Ay-25" value="" style="ellipse;whiteSpace=wrap;html=1;aspect=fixed;rounded=1;shadow=0;glass=0;sketch=0;fillColor=#000000;" vertex="1" parent="ZeBQX1oqdIYX9gZX3-Ay-27">
          <mxGeometry x="20" y="1" width="8" height="8" as="geometry" />
        </mxCell>
        <mxCell id="ZeBQX1oqdIYX9gZX3-Ay-26" value="" style="ellipse;whiteSpace=wrap;html=1;aspect=fixed;rounded=1;shadow=1;glass=0;sketch=0;fillColor=#FFD966;strokeColor=none;" vertex="1" parent="ZeBQX1oqdIYX9gZX3-Ay-27">
          <mxGeometry x="11" y="14" width="7" height="7" as="geometry" />
        </mxCell>
        <mxCell id="ZeBQX1oqdIYX9gZX3-Ay-35" value="" style="ellipse;whiteSpace=wrap;html=1;aspect=fixed;rounded=1;shadow=0;glass=0;sketch=0;strokeColor=#82b366;fillColor=#d5e8d4;gradientDirection=west;strokeWidth=1;" vertex="1" parent="ZeBQX1oqdIYX9gZX3-Ay-36">
          <mxGeometry x="98" y="30" width="20" height="20" as="geometry" />
        </mxCell>
        <mxCell id="ZeBQX1oqdIYX9gZX3-Ay-37" value="" style="group" vertex="1" connectable="0" parent="1">
          <mxGeometry x="1280" y="310" width="120" height="80" as="geometry" />
        </mxCell>
        <mxCell id="ZeBQX1oqdIYX9gZX3-Ay-38" value="" style="shape=hexagon;perimeter=hexagonPerimeter2;whiteSpace=wrap;html=1;fixedSize=1;rounded=1;shadow=1;glass=0;sketch=0;fillColor=#e1d5e7;strokeColor=#9673a6;" vertex="1" parent="ZeBQX1oqdIYX9gZX3-Ay-37">
          <mxGeometry width="120" height="80" as="geometry" />
        </mxCell>
        <mxCell id="ZeBQX1oqdIYX9gZX3-Ay-39" value="" style="group" vertex="1" connectable="0" parent="ZeBQX1oqdIYX9gZX3-Ay-37">
          <mxGeometry x="46" y="29.5" width="45" height="41.5" as="geometry" />
        </mxCell>
        <mxCell id="ZeBQX1oqdIYX9gZX3-Ay-40" value="" style="group" vertex="1" connectable="0" parent="ZeBQX1oqdIYX9gZX3-Ay-39">
          <mxGeometry x="-15" y="-18.5" width="60" height="60" as="geometry" />
        </mxCell>
        <mxCell id="ZeBQX1oqdIYX9gZX3-Ay-41" value="" style="ellipse;whiteSpace=wrap;html=1;aspect=fixed;rounded=1;shadow=0;glass=0;sketch=0;fillColor=#d5e8d4;strokeColor=#000000;" vertex="1" parent="ZeBQX1oqdIYX9gZX3-Ay-40">
          <mxGeometry width="60" height="60" as="geometry" />
        </mxCell>
        <mxCell id="ZeBQX1oqdIYX9gZX3-Ay-42" value="" style="ellipse;whiteSpace=wrap;html=1;aspect=fixed;rounded=1;shadow=0;glass=0;sketch=0;fillColor=#B3B3B3;gradientColor=#ffffff;gradientDirection=west;" vertex="1" parent="ZeBQX1oqdIYX9gZX3-Ay-40">
          <mxGeometry x="5" y="5" width="50" height="50" as="geometry" />
        </mxCell>
        <mxCell id="ZeBQX1oqdIYX9gZX3-Ay-43" value="" style="ellipse;whiteSpace=wrap;html=1;aspect=fixed;rounded=1;shadow=0;glass=0;sketch=0;fillColor=#000000;" vertex="1" parent="ZeBQX1oqdIYX9gZX3-Ay-39">
          <mxGeometry x="2" y="1" width="8" height="8" as="geometry" />
        </mxCell>
        <mxCell id="ZeBQX1oqdIYX9gZX3-Ay-44" value="" style="ellipse;whiteSpace=wrap;html=1;aspect=fixed;rounded=1;shadow=0;glass=0;sketch=0;fillColor=#000000;" vertex="1" parent="ZeBQX1oqdIYX9gZX3-Ay-39">
          <mxGeometry x="20" y="1" width="8" height="8" as="geometry" />
        </mxCell>
        <mxCell id="ZeBQX1oqdIYX9gZX3-Ay-45" value="" style="ellipse;whiteSpace=wrap;html=1;aspect=fixed;rounded=1;shadow=1;glass=0;sketch=0;fillColor=#FFD966;strokeColor=none;" vertex="1" parent="ZeBQX1oqdIYX9gZX3-Ay-39">
          <mxGeometry x="11" y="14" width="7" height="7" as="geometry" />
        </mxCell>
        <mxCell id="ZeBQX1oqdIYX9gZX3-Ay-46" value="" style="ellipse;whiteSpace=wrap;html=1;aspect=fixed;rounded=1;shadow=0;glass=0;sketch=0;strokeColor=#999999;fillColor=none;gradientColor=none;gradientDirection=west;strokeWidth=1;" vertex="1" parent="ZeBQX1oqdIYX9gZX3-Ay-37">
          <mxGeometry x="98" y="30" width="20" height="20" as="geometry" />
        </mxCell>
        <mxCell id="ZeBQX1oqdIYX9gZX3-Ay-47" value="" style="group;fillColor=none;" vertex="1" connectable="0" parent="1">
          <mxGeometry x="1640.5" y="570" width="120" height="80" as="geometry" />
        </mxCell>
        <mxCell id="ZeBQX1oqdIYX9gZX3-Ay-48" value="" style="shape=hexagon;perimeter=hexagonPerimeter2;whiteSpace=wrap;html=1;fixedSize=1;rounded=1;shadow=1;glass=0;sketch=0;fillColor=#e1d5e7;strokeColor=#9673a6;" vertex="1" parent="ZeBQX1oqdIYX9gZX3-Ay-47">
          <mxGeometry width="120" height="80" as="geometry" />
        </mxCell>
        <mxCell id="ZeBQX1oqdIYX9gZX3-Ay-49" value="" style="group" vertex="1" connectable="0" parent="ZeBQX1oqdIYX9gZX3-Ay-47">
          <mxGeometry x="46" y="29.5" width="45" height="41.5" as="geometry" />
        </mxCell>
        <mxCell id="ZeBQX1oqdIYX9gZX3-Ay-50" value="" style="group" vertex="1" connectable="0" parent="ZeBQX1oqdIYX9gZX3-Ay-49">
          <mxGeometry x="-15" y="-18.5" width="60" height="60" as="geometry" />
        </mxCell>
        <mxCell id="ZeBQX1oqdIYX9gZX3-Ay-51" value="" style="ellipse;whiteSpace=wrap;html=1;aspect=fixed;rounded=1;shadow=0;glass=0;sketch=0;fillColor=#d5e8d4;strokeColor=#000000;" vertex="1" parent="ZeBQX1oqdIYX9gZX3-Ay-50">
          <mxGeometry width="60" height="60" as="geometry" />
        </mxCell>
        <mxCell id="ZeBQX1oqdIYX9gZX3-Ay-52" value="" style="ellipse;whiteSpace=wrap;html=1;aspect=fixed;rounded=1;shadow=0;glass=0;sketch=0;fillColor=#B3B3B3;gradientColor=#ffffff;gradientDirection=west;" vertex="1" parent="ZeBQX1oqdIYX9gZX3-Ay-50">
          <mxGeometry x="5" y="5" width="50" height="50" as="geometry" />
        </mxCell>
        <mxCell id="ZeBQX1oqdIYX9gZX3-Ay-53" value="" style="ellipse;whiteSpace=wrap;html=1;aspect=fixed;rounded=1;shadow=0;glass=0;sketch=0;fillColor=#000000;" vertex="1" parent="ZeBQX1oqdIYX9gZX3-Ay-49">
          <mxGeometry x="2" y="1" width="8" height="8" as="geometry" />
        </mxCell>
        <mxCell id="ZeBQX1oqdIYX9gZX3-Ay-54" value="" style="ellipse;whiteSpace=wrap;html=1;aspect=fixed;rounded=1;shadow=0;glass=0;sketch=0;fillColor=#000000;" vertex="1" parent="ZeBQX1oqdIYX9gZX3-Ay-49">
          <mxGeometry x="20" y="1" width="8" height="8" as="geometry" />
        </mxCell>
        <mxCell id="ZeBQX1oqdIYX9gZX3-Ay-55" value="" style="ellipse;whiteSpace=wrap;html=1;aspect=fixed;rounded=1;shadow=1;glass=0;sketch=0;fillColor=#FFD966;strokeColor=none;" vertex="1" parent="ZeBQX1oqdIYX9gZX3-Ay-49">
          <mxGeometry x="11" y="14" width="7" height="7" as="geometry" />
        </mxCell>
        <mxCell id="ZeBQX1oqdIYX9gZX3-Ay-56" value="" style="ellipse;whiteSpace=wrap;html=1;aspect=fixed;rounded=1;shadow=0;glass=0;sketch=0;strokeColor=#82b366;fillColor=#d5e8d4;gradientDirection=west;strokeWidth=1;" vertex="1" parent="ZeBQX1oqdIYX9gZX3-Ay-47">
          <mxGeometry x="98" y="30" width="20" height="20" as="geometry" />
        </mxCell>
        <mxCell id="ZeBQX1oqdIYX9gZX3-Ay-72" value="" style="endArrow=classic;html=1;rounded=0;exitX=0.25;exitY=1;exitDx=0;exitDy=0;entryX=1;entryY=0;entryDx=0;entryDy=0;dashed=1;fillColor=#fff2cc;strokeColor=#d6b656;strokeWidth=2;endSize=6;" edge="1" parent="1" source="ZeBQX1oqdIYX9gZX3-Ay-71" target="ZeBQX1oqdIYX9gZX3-Ay-23">
          <mxGeometry width="50" height="50" relative="1" as="geometry">
            <mxPoint x="1330" y="680" as="sourcePoint" />
            <mxPoint x="1380" y="630" as="targetPoint" />
          </mxGeometry>
        </mxCell>
        <mxCell id="ZeBQX1oqdIYX9gZX3-Ay-77" value="" style="shape=image;verticalLabelPosition=bottom;labelBackgroundColor=#ffffff;verticalAlign=top;aspect=fixed;imageAspect=0;image=data:image/png,iVBORw0KGgoAAAANSUhEUgAAADAAAABnCAYAAABGicHIAAAgAElEQVR4nNWceZClV3XYf/d++/e2fr3N9Gw9m2ak0TKSRpYlRJBkkTJGC3aEkGyMWRyEbRwnLhwMBBPsckjZAbOoDLHAEEoSFLFFqbCxkoBYVQMSIAJY2wjN1j0z3f26++3v2+/NH997b3obgYRIKqfq9u2+r9/3zrnnnHvW+8Ryvan5/xjk/2sEflYwV9Ogfqo3KQFSS5RQz3N+oWjm798IPwmCs0MShjEgUQp8v8jISJksy6jVakgp6UUxQRhjWDbSsEgyhWk5SNMiTjK8QhHXK2DaDoZpI00Ly3ZxPB+/UCTOIMwETrFIsVIkUQb1VkA3TEiUQCMIwgjX83Fcj14QIqSJVygSxMk6AsTyci/XATGgLv/TdV2SJKHVamFZBqZpU2812bVzO7WlJt1ul4mJCXzPYvbUPD/4wQ9IkoRTp04RBAGdTocgCADwPI9isYjjFRgdn2DP3n1s27aNyckSAogiMAxYXm4yOV7BkNDuxIRhiCE0Wmts28Y0DVScrOKEeRbxHNrtDlu2bCaKErrdHqOjY5imQafTZWx0nJmZOUbHxxBC8OlPf5q7776bubk5fN9nYWGB7du34/s+5XIZ3/cB6PV6tFotOr2Q5UaTLMsoFArcdttt3H777ezatQvbtgnDkFpNEYYhUkq2bNlErxfRarUYGRkhisINOFBv61x8+vuvNUmSMD5eRQo4eXIegC1bNmFa8OOjM3zpoS/z4Q9/mCAIeM1rXsOhQ4fYsWMH+/fvJ8syHMfBdR1MI39mmkEYRkRRxHxtidNz83zjG9/gwQcfJIoirrvuOm666SauueYleDYoDcvLbTzPI4oihBCMjficnDlDpVxCarWSgKZeqcimaeE4Dou1ZZrNNlNTU3iezUMPfY2/+7vP8bVvfo3q6AjXX389d955J3v37CTNwDSg24so+A5KQ5JkJEkus5ZlYVkGQkAGnDhxhp3TU0QxfPazn+VjH/sYTz75JDfffDOHDh3iTW96E57n0el0qFSK1OstgiCgWimBVmsIaNQ1WjIgIopi0kRRrY5hmoKHHvoGH7/7Ezz++ONURsoUyg4f/8Td7N61g0azg+M42LaFISGKMwzDQEoQ4ixfNaA1KAVxktLqdtg0NkKQKLI4oxsEfOQjH+G+++7D8zw8z+P3fu/3eO1rXzvkQKloMz+3iO+5qwiQoPoKnC/ato3neQRBwEc/+nHe9Mbf5sknn+bCCy9mYb7G61//RsbGxgAYqRRxHIssU339aWMaIAVkGcSJIk4UWZavmQb4rsmmsRHiSCGUolSw2DRe5tBlB8mSiImxKpYh+MAHPsDv/M7vkKYppaLNj5+doVKprNOBdYZsYX6R0dECn/rUp/nrv/5rbrjhXzI9Pc13v/sYr371q7n++uuplAss11tkKkes2WzS7gSMj42gdC7DQoBhSAxDIgTD9XYnyA9trTCkZHGpgdZw66/dzLve9S663S6+73PhhRfyne98hz/8wz9kZnaBqakp5ufn1ytxvbmc60BfjMIgIQgCXvnKW7j11ls5NTvH9773PX7/9/+AN7/5tp/ZdmsNCI3QgoEPs9LAff0bh3nve99LoVThxhtv5G3//u184QtfYHp6momxUYRKVokQy40lXW82dL3R0vVGR5+ZW9Lvetef6f37L9PLy7F+93/4C71YS7TKtI5jrZV+4UNrrZVSWqlU60z1f1c6U1pnSutEa53qfP6P73u/fuLZGf3q1/1rfeEV1+hQa/3s7IJebLT1cr05HCw36kPk642OXqg19J49F+qPfOQTWimtG41Uq0xrlWl9+nTjLCYvFFSqtYq1zlKtVaqVSnWm1ZCAKMvndqx1pLX+p68e1udd8gv6ocPf0/ON3joC5MoTCOC73/0unW6L66+/ll5PUy4bLNcDnnr6BJOTlZUm4wWAAq36xj7/faAPAo3U0Ol0STNwLViud7n44ouxbZuvf/3rWJa17ol9Z+4sVkeOHGFqaorxiVF8X9BshoyOerjuNl4cv3vFUwQ5EUIOVw3DwDRgodZEC8HYeJnzzjuPx594CmmaqDXukFy7pSdPnmTXrl2Uy2WUhsqIS7sT4BcMoih+UUgY+jL67N+ir9y9dof5hSXGxipUq2UkcPPNN3P48GGSJF33pFyE9FkR+spXHuLiiy9ieXkJ2V+2bZNms4vv2ysQeAFj5elxDtd9YmKcTZNjxLHCNCBKQAhBr9fjzJkz6wlQIvfTFRIFLDea7Ny9h6mtmwiT/EMs26BU9qgtLJzzg38qEIMffb1bwXwtci4YRr7suZI0y+3Jlm1bc5LVRvGAEGgkmZBkwqRWb+GVynR6MZYlibMUKUAKRbniv3Dk+x+nhUQLIx8YuQAIVnkDAM1WF8MAywQtBG6pwLPHjq7TQ1NrgZYifwhgWCZREmPYFoqcfQpF7lj+7GqsRc7pXDrVag0UCkEe1Fi2scKiGwRBgOuv30B5VkZz8H2fVquFbeaWUoj8IzKV/czIr/jQ/OjUrBoASZIgAc9xSdNsKHBBt8dYtbrhs1bB5OQktVoNYAUBkjRN+RmNAHAW0XO9liYJQiukAJ0lCKDbbmFKGB2prMPAXPuQPXv2cPLkyZwADRqB6Id1cnAsvVBJOif9Zx+oVIoQIt9ZpVHAqdMzTI6PUS6WWHuIyLUh5YEDBzh+/Di9IOs/MJdYgYEU6+h93jDQNS029goNwwAUWqVICSpNeebpp9l33h5cz173//2nnD2r9+3bx6lTp+h2uysIAMOwkNLkrOvxwoZCDPdQiwFBZ1ljWfkmRVGEZRhkScqRI0fYv38/ljQ2ImA1BzZt2kS93iQMwz4B+boQRi5CgwwMz3/WwyH6549EI1cRkXOgr8xSopSiNjfP1NQUG8muKYRYtTwxMUEcx3Q6HQwxydzCAqVSgaLrARaGFARRis4UhmWi0owoiTGlgVdwETrf1Y3mTEImGB6jBn0WKI3QYJpnxcp1XbTWKKXodDpUq9X+QbKGAK1VX5DyN2dZxtatW1lcXKa2OM6O7VsAWJxbwvFcTNPC9W2EgCBQ1BstFhYWOH78ODMzM5w4cWLdhwxAC9i1fz/7zj+fA/vOY6RSwndMpGGjVUZtaQnf93Fdl0xDliriJKNQLjE5OUmYJKwVonVaaRgWx44dQ2vN+HgZyK3ipk1j6H5W4alnTvHAAw/wxS9+kWPHjmFZFqVSCcMwhiJwLgL+8aGvoQSkYUi1UuKG66/jjttv49KLL2R0bJI4SUmVJNMC13VYbrU5fvIkzVaHUqlAr9U5FwE5Y3u9HkqBaZpEEZgOVMoFet2E2bl5/vTP/4LZuTlqtRpCCLbu2IlpmkgpsSxrqPwbgQJ2Te/m5OwMrutTLJf4/Be+yMc//nFuvumV/NEfvY1LDpwPQLeXISwoVSrYjkez3SGM1hvTdWfZxMQESadDqVTCdaDVigB49NFHef3r38ixk6eYX2wSpQLLLeEVq0jLJ4g19VZAooxzD20wc2aecnWcUmWMertHoVLlkst/gROzZ/it17+Jez7z93TilELJJ84UUaxw/SJIE8811vtCuR04S8exY8fYuns3lmWxXA8YH/G4776/56MfuYtumDJamaTq+IS9iDAOoBfjFz1cYdHutjCl1fcs5bpZCPA8h2ani4GmWBnBRNMLulhCs3nLVj54113MLS7w67/+WgqlEqmCOM2oN5p9DFdbw3UciKKI5eVlXNdntOpx5kydv/zLv6TVarFz9y4azRa9ICJJFUmqiOKUOMkQ0sRxfYQ0zzkwTE6dmUdpAy0t5uYXOXFyll4QgWkSJClaGHzik/+N//Xlr5CmilLFYdPUFlINtcb63KiJzs/2wXFn2zaO4xBFEd0eFIpFgjDmvL17mTl1Gm35RGGMaZqMjIySZRmNRos0TbEsC9d1V8S8q2elYGxsAmEAOqNYLGIWC1imQRgGNLodJsbH6XQ6HNh/PpWiyen5JiqO2TQ2SrXiEq5RYpmmGY1Gg0rZJQ4Dep02vuvQ7rYQBhTKFldcfTWzCwtkQiNMA8c2MSTEUUCWxvieQ7lUwHPtvonaeEitkCqDJEOkCrMvDmmaIjAoFEoEQUDB9fiFyy9AKxBJggpDiAOido80SYbp9iAIckO2aXyCZitkfLyC4ziEYUiz2cRzIIjBdhwc1yV5kTxqAUidS3BOwlk9FAj27j2PVIEloeQX6DYbnDx6jFLBJzFNpIQwDHEcBymEwDAM6vU6b3nL73Prba/mpS/7F1x11VXMnFrEseHqq68myzKyLMtN/wscK1XuXOWmJEm44IILCAKF0lAa8fg3//YP+Kv3/xde+cqbOHr0KI5jk2UZtm0jDcMgSRIOHz7Mgw8+yD333MNnPvNpfFdQq9WYX2hz8OBBZmdnKRQKLw4LVhCR+0F5akchSTKFNG1cT/KtR35AmsJvveFNPPbPT1BbWuajf/NfieMEy7JQSuUE+L7D/fffzx133MErXvEKkgQ++7kHeMkVV1Aul9i1axeTk5PE8YuVVjk31Ot1rrzySkwJr7zxJv74HX+CacOBA7v57Te/mb/927+l3c6LH3EcI5XKox8pJT/84Q95y1vewkUXXcTnPvc5/t3b384//MM/Ui47VCqVFRxQL3AeyP65MhuCNFHsO/8Cjhxd5N3vfg/ztUUmJ3Zw8y2/zo9/fBTbtoeFkyzLcgKiWHHHHXfQ7XZZWJhjz55d3Hvvvbzuda/j+PHjpGkeqS0tLT3nKfOTxiDmkDonRA4SWitgy5Yt7NhaxjAMoiThnns+xqtfcxv1ZoNnjx3lne98J47j0Ov1Bi6MJI5jXvGKV/Dww1/h9ttv58SJE9i2wenTp1lcXKTTCbjkkkuIk5D8UFcI0uc952MFUVr1X1N97mjOP/984gzuv/9+LMuhG8Azzx7jlltu4d577+Udf/xHeJ5Ht9vNK5da677fndJqpURRhGEYKJWz6PHHH6da9bjoootQSqHSGC2M3JeXAkNItBQYCJSALE7OGQ/kCqtWeK2CJEkIewG9Xo84Crjl5htxDEjjENu2MQRMjI1x5MgRABqNLpIM3/fJsiwnYJA6gdwSd7tdskxRqVSYmZlBCLjiiitYnJ9nfGwSpRRpmpBECb0kIUkS0jRFqRy5QqFApVJZVWZtNvPacrcb4DgOhUKBQqGA69r4I0XGRooopdi5YxsSmJ2dZfv2rVhGntq0TYssSRFCrwrM1sUDnlegWCyTJAlKKU6cOMGRIzPs2bOdyclJKiWfUqnE5s2bmZ6eZvfu3UxPT7N582ZKpRJaayxL4KzJhEcJJImmWW/S6XSYm5vj2Wef5cknn+SJJ57g6NGjLC0tceEF5yOAHx95mqnNE5gSbMvEdex8g9bgu46AdrvNyMgIQgjSNGViYoJGo4FlbOeDH/oAN1z7srxMRB7wD0RQa43OYsrFPHOQKRhEgKYJngWeJXDECJvHR9i3exsve8kVKAVpqoZctG2bOID5UzPoLM1zRXGEYxo4lkGarM6vryNg8CDXtYnjmEKhQK1WI4zhFS9/GZ1WD0MKpJQYUmKYxtnSKtAL4qGMu9aAUEjj3JLbhkVu/cnTJgCORGsHrR2khNnZGlHYQ6LIUk3Y6yBQeI5Jd40pWkeA7/ssLS1hWQx7JU6ePEm3GxKFgrGyj0SvUk76NWENSJUgpMIEpDAQQCoytErQKsMZ5Hb6XByIhB48Dzhz6iSWIfocyEiiEK0zNopWN4iJ80Rqr5fvWLFYpNfrMVZ16XUTpGaYFBEDzPvYCKBQ8IYYZf3UoCElppsjrtLcIxw0zwghVoycW6dmT2IZBkkUYkqJKQVCK7JEs9YIniVAKNAS2zYZGRmhXq/TaDSwHZOjR48Sxgw/JE/EDFCQoDO0FmidIaWJ1hlKgda58yf660IIhOwf28Odl/kpKAbiplhaXgapieMQaUps2yZDE8TReg6IFTuIUDQby3iOzejoCNVqBcMQzMyeQMOKjMNKz7IfEAmJ6K8LITDkCgJXzWcTxtBPC/VRUAKEKVlqNIkyRSeMiDKF5XlgmmRKocXAHekTsNoOaAqFAmkWD/t98kjLwLUhywb/J1/wrMXqoGIoECuyd70gQFomY5MTWLZksb6M5btYrkPcW10OWBcTB1FIqjJKpRLVahXTNEmSXJbNc6d8XlRot9vEcZyHp9A3eC62tR6BDQyZh1JqaD0XFhZyxY5hg+Twiw5KM+z06na7BFFKmqZoren21gf16zhgmuZQ1h3HoVwuDxNWzVbwc0afoWs/MjKC67q022263S5aaxzH+ckELC4uIqWkWCzieR5SStrtNp1OB9/3fu4EAJw+fZp6vT7Eo1wu4zgOhrE+Dl1HwCAD3Ol0aDbzZJIQueW1f/b6xk+EZqtLkiSUSiWKxSJSSkzTRClFa01KBTbQgUGe0/d9Lr/8ct7whjfQ6/WYmJig1YkYL65n44sJhUKBa6+9FgzJVVddhWUZwz483/eJur3V+K50pSHPyw8q47Zt85u/+ZskSYJnQ6B+/iwwDfjd3/1dEpWRpimGyBsRG43GMJRcCVLr1TGdaZrU63WEEHz729/mkksu4eqrr+apZ06cLfL9HGF+YYlbb72VnTt38sEPfpBWJyDLsjyJZa7fwHUrK8/effv24fs+lmWxa9f0/xUdmJwcIwxDTNNk27ZtlIseQoi8cdYyWJsXWbelS0tLjI6OEoYhaZr2G04jTp6cZQMOvujQanVRSlGtVikWi6SKYa1svra07v/XETAyMsLWrVuxLIswDAnDkHa7TavVWhdl/TzAdV2CIMj1zvMwZW5cR0dHh92Sz0lAEAQ8++yzhGFIpVJBCEG5XMY0TYLoZ+hU+Smh1+vhOA7VajVvR47z5HOn0xlWTp+TgEEoOVYtUqlUhm/udrtY1s9fiVutFlEUEYYhURTh2gZjY2OYpsnS0noRWqeWUkqklARRXt4csC2OY87i/2JwYnVlaABpmqd2pAbX9VBAbWEJ3yuyfftWus01Rb6V0ZAQeZ6nXCzhOnJYp82yvA96kPI+JwG63x/zXGirbJX7LsiL6IMnjlQqZJmiUCgilCDsZIyMjKKURG2Qml23Bb1ejyzLOHW6huPkOVHDMDh+/DhKDUK6ge1YMWuNFhqVZWQqPedsSIkUAikkWmfDHQ+CkF4v4tjR42zfuo2jR49jWRbFooFKFI7tEkUb9cytgerYKKZtUa1W+xk6RZqm+clkCrJ+IlDrNXMe6oMwQMhzzkprUjQpoKWBMCwMyxq27EvT4OTsDBdddBF79+4FIAi6BN0OjvNTGLJnnnkmL/N4JubkJDMzM1x66aVcfvnlJBlkOssDRwmGsPrpQmM4D7bkbFfK6jnTSb9hQvTzSbku5B6B5vLLLmZycjKPw8OQRiNi3759PP74k9g2RKtdofUcOH36NNPT09SWWkDe+//yl7+ccrmMNECaJpgWmTAIMwhSTS9RdKKUTpSSwHMOhJVzQxoIw0SaFoZpYFoS05JkCt7znveitWZsbIxi0WF6eprvf/97ZBuo3joOPPbYY+zbt4/R0TKGgM9//vPs378fzxYkqi8NDHrZYOUFInjuXigxfF2uSxEOQCm4/rqX8KlPfYrx8REEeWDV7XZZXGzgr/FnNkxsbd68mTBMOX78OJdefAEAcQb1eouHDz9CEAQ0Gg1qtRpz/baDRqNBEAQbtgefBY0lwPddJsbG2bJlC9u2bcs7hcfHKRRK7NmzhyiKuOGXXsrxE2colUps276Fbdu30Ggs409OPjcBzWaT7du347omF16wl9MLyyRJwnve814e+urXKZZG0MLAlBJhGFiGMZy1sIgTvWEyZdCl2Ol1Wa43mZ2d43vf/2GeX81Uv7Eqb7h6xzvegWPtZ3p6ik4nHnIg26Bz14Tc39b9+cyZMyRJgiEg0zA1OconP30fP/rRj9i9ezdBrNFCIslbNQczGoQU6EyBGNwTWDNjIAwH27KwTdk/4eJ+r5CJZZskScYnP/lJPnH3XWQZlAo2UdBDpcmG/ULr4oFCoYDv+4SxZmmpSaJg586dfXeil++lFqj+STKYNaLfmC6Gf6+d82PWRCtJN0hotgPiSGE5Lo7jgRa0Wx22b58m6CnSVCNEjlMQBOg1LaIbitCAXYYh8DwPS8L5559PlmUopRCCfs2XodVd2V+qn0ONhQbTdhFaY5sWnl8ClZFkKWkSIYVmqVbj0ksvHeZLIa8URUGPcqG4ngNrF6ampjh+/DiWkbMPYHR0lJ07dzIyMjKsBQDn/P1coAXYrofCRJoupWIFr1AkS/M+Cs8vEsYJBw8exPcFlpVfJppfmMM0zZ/OnT548CDHjh0DIE6h2QmRUnDNNdcME04bIf9Tgc7P+UxBpxuwWG8QBjFeoYjtucRxzL59+9i2baL/3Pw+2okTJ9i+fTue91PkhXbv3s2pU6dotAKU0hiGgW3AlVdeyczMzLqdfj4cAAjDGNtxsW2HMErIyEW12+nx2A/+N6961aswDEgSiKK8seP48eNcdtnBc3Svr4Fdu3bRarU4cuQIri0oehYauOyyyzhw4MDZPud+p+HzGoDKNEIYuF6BYrEEQK8borWgWh3jphtvIYz61RuliKKIJ598kkOHDrE2gwIgz9Zo83HB/vMRGo48/SQqPxFptQK2bqryxt96fb8dOW/eUFqsmn9yswe4lkXYbRN320iVEnbaNOpL7Ng2xet/4zfYOV0hjtK89d4wCcIeR48eZceOHbjuBiIkUaCz4di6aRNXXHop3/zqV7EldBpdxsseJvBrv3ozN950C1oatHsBxcoI0rKRlo1fKhPECabjIi0bLY3ccxUSDBPTcfE8DyMLKVuagkiZLLlsHikQNRepFjzeeudvY2goeSZoMKXgaw99BUsKDh06RJqeo+lPrij/W9Lg6it/kacef4LFhWWqlQISyBIwBLz7nW/hmqt+kTjo0W7UkVoRdNrUF2tIrWgsLdJpNoiDHjpNUElMEgZ0mg2WF2tUSi6Lp08idUynUePIEz/iVTf9Cnd96ANMb6/SagQ4Zv5ZhiF55JFHOHDgANXq2MaJrbULQgiuuuoqnnrqKer1OnGs+uUijSkhDeEDf/F2Pv/f7+EXD13E4twJDB0yUfURWQ/f1hRdQaVgMlK0GClalH2DoisoOrAwN8v4+Cjz82eojJS57zP38v73vw/DELRaCYZhoHVeok2SjG9+82Guu+6X8P1C/7b5alhnyNI0ZfPmzUgpmZ2dZXJyE9VqEdsWRAmUXZhf7LBzapy/+ch/otv9M7797W/z2GOPUa/XWVpaotFoMD8/T2OpAUC1WmXbls2MjVQ5cMEF7Noxzf79+9m7dxrThF4vP+1KpRydxcU25XKJ06dPc2r2DFdf9VLCICZJUhzHZvWN7jUQRRGO43DZZZfxwAMPcMMN1wL5sWYIiIOILeO5RQzCgJGCy6/ccA2/csM1xEm+Q4ZhYKzpNNdoVAaGIajVGkxMjAD5xWffK+L7JmfOLDM1lSfVxsdLPPLt7+C6Pjt37iYIolW3rc4pQnEc4/s+v/zLv8z9998/XO/1ekiZX6eNgja9TgPftZBkCFK67TrdVh3HkphSk0Rdep0GQbdJGveQZJiGZrFWY2JihHY79+9HR0u4niCMMqamRgEoFvMN+tKXHuLgwYMUCiVM00aIDdvv1yxIied5XHvttWit+fKXv45SuY8kJX3/R+N5LoNm+m6njWkajI5WUVkKWmE7NoViAb/gY9kWgzadiYkxOt0OSRpRKHhEUUKvFw+v7KYplEoeTz11gsOHD/Orv/qvMA2Lgr9xWn/DEpMQgr1793Lo0CHuvvtu2u0erptT32638wL1oF0mTSkUS7ieTy8M0UKQaU2aZaRZRqYUauCu9129YsFntDqK5+W3wX3fxnFy5TWt3Ig9/PDDnDhxgpe//OWYpsRxNnZZ1hFgGAatVovR0TJ33nkn3/rWt3jrW99KqxWQJBrTLZBJh26sSTARpkeKSTfRtMMMLR2UdFCGSyYdUmHnAwuFRZzEBGG33zylQGiCICIMc+MVx5o//dP/zIc+9CHe9ra3MTk5jmXD00dmh+07q2C5UdfLjfrweuvScks3ml3d6Ua62erpz3z27/Xe8w7o7Tv26L/68Ef1QqurG3Gqe1rrnta6lSrdiFPd1VqHWutAa93OtK5HiV7shXqxF+p6lOh2lr+eaq0znep2t6UbrfrwrvFTTz+jP/PZv9MXX3JIb57aod/3vr/SSaJ1s5noU6fqOkm0rtXaerm++jpu/qUAMNTwWm2JvXt30Wi0qdfr7Ny5g1ptmbvuuot77ruPINNcfc1LeNWrXsVLX/pSNm+ezL+tIBtwMK+yrGWtArIUsrBLqeAhhWRxaZFvHX6EBx98cCgy1133S/zJn7yHK644yNJiJ+8NlZIgCChXivR6XVYeo+sIKBRKnDmTB9OFQoFms9WvEkqOn5znn778Zb76zYf50v/4n7RqC2ye3slV17yEgxddTHV8jHKhiGFbeLaDYVtIDVGakIQRaRJRXzjN97/7HR599FHm5uYolUpcdtll3HzzzVx//fVs2jRFseiSZfmXdCiV9xJlWYbruqwtEq0jQEqTOM6bu/N6Wb6epim9MAbTwnQcojDi6SNH+Nbhwzzy6KPMnDxJLwgIg4AojomjiHhQ4bcsXMfBsUz27tzOti1T7Nmzh/3793PJJZewZ88uIC/xTk6O88///ASFQoHJyUmWl5exLIuRapmFhQXKpZHnJqBYLA8LG0IIlNI0m01M02TT1FaCMM53NEkQQvS/V8Lu/6+i2+2SpilxHA+DcNM0sW0b2zDpdlpUK3kJNU1Ter0egx4N33eYm5tnamoTrXaLM2fOsGnTBMVikVarNdzglQZtHQFRlCNWKBSQUqI1+H6e63n22ZO4jp8j05fNQSBjGAamafbjadDYsNEAAAEySURBVGNVxT/L8iTuoN85jvNUSbFkEceaWm2BKIrwvDyZ3O40sSyLcrmIUimdTi5Ktm2jlHxuAnzf72eMEwaN4YNig2maVEqVIUKQO39a6z6C6dCOrAzKV/bVIXLRVDql3W6TJAm+n3/7jWEIlpeX8QsuUko6nRZJElEqlfptlpooSlYTUG+3tFJq2MA3kH/bdodlzZWKZBs2K5OEq2GD5OWaq47ojUqd56g3rH3vio0egAmy/10oxrDjSinV1wHdv8GXy55lWc9RnFnxwqoPXvuG51Hd2cB5WwtmL4gQUucXPYVCGhbSAENaCKn7mYSENNV505456Lk5W2XJ4WxHVn6tRa1Yf56IPw8wbdtBmBJL5mFQ1AvzS5r92FciQJqYZi7LSm9U2RrACiLO+fqLC/8Hac45kiEZG78AAAAASUVORK5CYII=;" vertex="1" parent="1">
          <mxGeometry x="1375" y="717.5" width="48" height="103" as="geometry" />
        </mxCell>
        <mxCell id="ZeBQX1oqdIYX9gZX3-Ay-78" value="" style="shape=image;verticalLabelPosition=bottom;labelBackgroundColor=#ffffff;verticalAlign=top;aspect=fixed;imageAspect=0;image=data:image/png,iVBORw0KGgoAAAANSUhEUgAAADoAAABkCAYAAADXPyOvAAAgAElEQVR4nMW8eZxdV3Xn+937TPfcserWrVKpJFnWYHmSR4wwljF4CnYCL6bp/nzI0DE8SPIeoZP0y+clTSCveU03SYyhadNJJ/15JCRt2mlogkncDTwMNh4eMSDPsmTJtuzSYEk13fmece/3xz7nVJUmS8Drt/XZOlV1z91nrz2s/Vtr/dYRi0sdzVkX6+xvPbFoCchTfKBAKECbnyH7neXfUdl3ZdbOuRf7x/rWj11WdlKd9q7V5WzvO/sn/48pWpzw6HyWxPLfTpq1n7yb5zSjlmUhpSRNU+p1n0OHjqG1xnVdLMvCsizSNAXA8zxc1yUIAubm5lhcaLNnz34saVOrV1m3bh0bNqxjfLwOQBgF9HpdZmamOHr0ONVamSRJCMMQ23aJooiyX0WjieMY27Ypl8uEYchwOMRxHCzr9FtLnMserVTqvPbaa0xNTRUCuq6NUuA4sLDQLYTbt28fjz76KI8//jj79u2jvdTFtl3CMGYwGBBFAZOTk+zcuZM77vif2LlzJ5u3rOPAgYPUajWUUjiOxfh4A4BDh45QqVRwHAetNWmaYlkWQgjSNEXrM4txToJ6XplSyebw4WNIKSmVSoRhSL/f54EHHuCRRx5hYWGBY8eOMRqNmJ6e5tprr+Xmm2/msssuozUxhRAWQRBw6NAsTz31FI899hg/+tGPmJ2dZfv27WhS1q5dy7vf/W6uueYaLrxwG+12h1qtyvz8PL7v4XkeaZqilKJUKgEwGAx+ejPa748olUqUy2Ucx+Ho0aN84xvf4GMf+xjNZpOf+7mfo1arcd5557F9+3YuuugiGo0yYajodDrFTNm2jeeZfZcmMDt7hCNHjvDlL3+Z7du3893vPsxjjz3GFVdcwfvf/35+5md+hkrF4fjcHJYlcF0XKc33HcdBKUW328X3/Z+OoL3ekPHxcUolj9nZg9x55508/vjj3HXXXdx55520WmOm8ynEcUKapgghcBwH2xbIE3RKmkIUmfu0EtRqLouLI5pNn0ce2cV//tJ9fP3rX+cDH/ggH/rVD7B+wxRJEpIky21LKUmShCiKitk9VTknZZQvx+eee55f+IVfYOPGjbzwwgtcdNEWut0Rnc4A3/fxPIlt22htkyQgpalJmmBb5jyM45QwDBHColz2kALCENJUMxrCDW97E2+99k3cfPM7+dUP/Tp79+7lc/f8IdPTkziOQ6fTASiUo+d5Z+z7Oent9evXs2/fPt7znvdw8cUXc//99/MP//AP3HHHP8HzPMbGKnieJE1BKRDCKCkpIUnIhFSAwnEElaqP69oMhwGLiwM8DyYny/g+PPXUAd58zU286eo38+CD32H//pe559/9e/bu3QuAUqpYLUKIM/b7lIIqIU9dsYhTzWc/dw8Tk2v4D3/+5/zNl7/Mn/9f/5G9+1/EcSRag9ZgWaxapkKAbUMcRcRpRKpiQCHQOI5FtVqiOVHh+PEOCghiSEmZX5rnXT//LqqNGp//08/z2c9+hh/+8IeEYQyA43j4vo+UNnEcs+psPvE63+7pvM4tdfUgUnqhO9SvHj6mF3sjfWRuSR9Z6OlQa/2H//Y/an98vX7hwFH9/ad36/G163WlNaG//b2H9CAa6lgnOtaJTnWiU620UkorpbVKtVZKa60SrXRU1Py+WCsda63DVOtYa33gyLweplp//N/crac2XqS3bH+zPni8qz/3+T/TE61pPXvwqD52fFEfOnxcD0ex7vYCffTYgl5c6uvFpd4pr6tmVFpmZBQSx/OJEoUWFtV6lZdfPca9//k+/vff+xdUqlVuvfWdvP3Gd/DFL36Rt9/wNrRQQJpVBSTZVSMAkak8sUL1mZ9VNu66WAUzayeQEv7xP/5H/NM7fxG/4vK/fPjXede73sUVV1zJRz/6USqVKlNTk6SpYmlpCcdx81ZPeRXz7V7xaMt2SJIEhURKyWhkjpN6vcRnP/fn/NEf/jFPPvkkTz+ziwsv2MqWrRsRQtFenKc53sDO9kr+v9Ar4Z0GkZgrwiBBLTNEKFHAwsIS5WoFz/MI4xTPsdDA3GKb+eNzXHLBBfztf/1bPvzhD/Pwww+zfv16lFKEYcjY2BhRFJ24E5cHdaWg0rILQW3bpt/vMzHRpDcYcdttt3Httdfx+c/9IakyfZ+bP87M5BSQonRyToJmc2iuIjtTtUBrjZSC3iik7Ht0ugPq9QpRlKLCmJLrsnPnTm6++WY+8pGP4Lpupuk9RqPRaQVdtXSTJEEIgVKKJEmQUiIl7Nq1i927d/NLv/A++r0QR8LS/CIzk1McP34MpRVCrTyOV2jBwgQ7xWcnFFvAaDRAADXfwwKa9Qo2YAtBqVTC8yS333479913X/a7h9b6DSHgKkG11liWhVKqwLL9/ohvfetbbNt6AW+66grqNY9Dh4/Smhin02nTbDZxhJUhFXFGQVZqQX2ak61cKtHudOn1+gRBSKo1caJJ4hidpsQxvO9976PdbvPUU08VyChJkrMXVAiBEKIQ2PM8jh49ykMPPcQHP/gBPBf27NnLhnXTOFLQbIzh2Q4LiwukqSY3jnVRzVxqkdUVnxX3iuUuaA22ZTNer+NIC9/1sIXAtQW+72WrDC69dBs33ngjX/jCF9BaFxNz1oLm+FFrjW3bOI7F/Pw8+/bt473vfS+d7oBLLr6IJI44PnccgFEwolZr4NgeRqmsFsLUXFCBxsqupipEMRJRFBPHKWlqFIyUyx3UGqpVjzhOiSLNu9/9bh5++GGUUgyHw7MTNF/jOTiuVCokScLSUofvfe97vOlNb2Jm7QS2I0nShP5wSK3RQAFxqhGWgwL6w4BRGBHGKYnKIcFyjVJNopdnWAmIYkVvGNDuDRC2g5YWwpaMNcdQQJhowigtOlwqWViW4Oabb2ZhYYHnn3++WL5nKquwbm72pGlKkiT4vs/evXvZtm0bcWKUle371Go1pDSq3yuViWIDsMtlHwWkGqJUIzINamXbVtrmh5Rl9WQ5EtsxYFwA/X6AUoparYwlwLEFua9KKWMIaK0ZGxuj2Wzy9NNPs2XLllVG/1kJWqlUGIUxSZJQqVR48skn+Y1/9pvEcUqjVmMYjhiNzLmFBmmB0JaBeMDCwpADB15m37597H95H4cOHWJxcZ4giIhChZRm71cqFcbHGjSbTcbGxiiXy1xy0YW89a1vpVYVKA0L813q9TqeC1pBFJh+lcs+Y2NVtmzZwp49e6jX62c8Q08S1BwnsgDJo9GI2dlZNm/eDFKQAo7n43g+S70+nlvG9yTff+JJ/u7vH+D++/+OVGs0KVJKHM+hXC5RLpdw3RL9UUiaatK0S5oeBbVsagkhiIIhYRiwedMm7rjjDn72Z3+W8YnMByjBchyCIMDOen3xxRczGAzwfZvhcHhGw3uVoJZlkSQJlmXhOA4LCwskSUK1WsV1jVoYjIZU/TIawXcf/h5/8cX/xAu792K7HpPT683KyNyVWhhXZgIkUUKCheW4uL4BJFam/IRSKKXoCYs1a9cxCkI+ffdnuOfz/56fueVWfvmXf5m3vPkSHMf4opSCJNGcf/757N69myjSb7hPVwkqhCCOY6TtYts2nU6HUqlknGICji0uMtVssu+VV7nnT/6UB7/9ML3+iMnWWhKtCeIYIaW535ZIqUlJUTpFKdDSQUmLVFgIJYnilDgKCMOQNIlYv34dSwtzKKVYu24DnU6Hr//9A+zdt58b3nYdH//df47vu4xGZpnW63WOHj3K/Pw8rVaL4XB4doJqrQtnUw4cpJRmtDS0mk1ePHCA3/jIRzh2fJF6Y4wLL7qM3iBgYbGNV6qiMu0dJSmIFGGBtCwsaRHHGpUKUqWJibPBtXDcEq7rsrjUxS/XkFoThEOq9Qat1hTd/pC/ue+/UJLwL373nxfHXz4Z5wQYNKBUCpYkVXHRWKIMQopT6HT7HD16jKeffpbxxhhutrwPHHgF1zUPBoiiiMFgQK/XZ9APCEYJSawplUo4lg3aaHUVm5nxMrxaq9UAGI0CwiAmiRWJSpHSplSu8K/+9ScJ4gTLcbBcCy0EWgjq9TqDweCMgtpmH5lzzfM84ihlfLxOrx/SG/TRAkp+BduCZr3KuqkZNq0/D6E1wXCIdBw2rpsm1RCPzP2uY+G4FdASlR8tSqHDEKnBBcyZY5SHThMSpYjCEaQK3/dxXRfHcRgM+kRRzPSaFu/7xV9EkWJbFlKC7drUx+rYnsMgGGLhrJ69rAgtzd+M8lD0ej1sR3L0+DxRHLBh4/nEcczhw0cIQ2h3Q1qtFhdeeDHBKKJcLhttWah2vapxkEhtKloidI6dTlE1pkqZoaL8ajE2Nsbrrx/jpltuNlZKPCJG0+21qdbK9AcDqtlqeMOlCyCkxPeMRdDr9QjDkFKplCkkOPz6EbSQ3HjTLQRBQKnkI4Vd+FhPV1bCwtOIiUKSKEDahHGKQhLGKcJycDyfbr/Hxo0beea53XiuTzCKOD6/SH2sSRiGZ1y6WqjVglYqFQ69fgQhBJvOW8+aNWuQUvLyyy/jOHDk8FF2PfUMN916C1pKokSBtJC2Q5QolBAFYD8V8tRnMmyAOI4Lh1duJgohmJ+fZ93MBq688mr+6q/+Cscyxsf+/fsplUr4vn9Gny6cMKNxHBeatjcMcF2Xbdu28cILL5AksNBu87X7v85561vMrNtAtz8g1QLH84mTdNlSKZrOQX4WQNIrgf7JNVEaLSTlao04VTheCS0ks4cO846bb8Lx4K/vvZd+EOGXXF54YQ8bNpxHkqQsLi4tY2hOjsGdZHhPTU0hpaTT6eC7cPnll3Pw4EGwYDgKeeiRR0mAq3e8hd5gRKJSENIYBiL3KJhmVz5MncWM5sjGsqzM02DaTZKEW265lWeefpHRaMTC/BLdwYhXXnmFHTt2MDExdkZUdJKgnufR6XTodrs0Gg1eOnCYubk5A+aFsVQWlzq88OLrvP0dN6HQxEnKKIwM6D1tkFav+ul0teT7CCkJwhDLtoniGA2s37CB7ZddzAsvvsi2Cy9mOAw4fmyetTPrefmVV3nplYOsWTu1/IwTZlaJE8z8NE1Z05qkVCpx7733cvvtt/Pqq6/ynve8h8yViuf57Nu/n+3btyMto4iCIChsWVNUNooGAuaLeDm6zSmvpVIJaRmM7bgWURQhpGbTpk00qvDggw9y7NgcnU6PjRs38L73/SJ33303v/M7v8Njjz1x4rytntE4jnEchzRNGY1GHHr9CHfddRef/vSnufXWW/nqV7/Ke//RbSwuDvjRk7uYaLV48MHvUKlIWq0Wtm0z3qgTjoakSYRA4bk2lXIJv+SalRAGDAc9pNAIrUCn6DQhTSLiMCAKR4SjIaNhn9GgTxwFLC3Mc+G2rQit2PHmNyGAxx/7PrVqg2/9399GA//qk/8HX/zr/0Sn1+eDv/oh/uEHP6DeqNDr9YwHs1xCWAK/XEZ6nkelVMGyLMrlMgsLC9xzzz383u/9Hn/6+c+wYf0UX/iLv2HrzAzPPfccw+GQgwcPYttwxx13MOwPGAwGrF27FqXyzhsBUCklx6ZRL9NqjuPYEse18VwL13PwSw5+uUSl7FGplglGfYJwxGRrnNbkBLOvvcLhI4fYed1bePGlOfr9Pq3WJA888AB1t8b+/Qe5Yeebeeg7/51LLtnOpz71KZ7fvb8IEudaOwxDZBRFDIIBjVoD13X56le/ytVXX80HPvABDh9d5At/cS9f+tKX2H3gAL/5kX/G+Rs3sueF3bx6YJ633/A2wmCE5zpIAZ7rYAtBEgUM+106Swu0F+fpLi7Qay8w6LUZ9LqEowFJFIJKsAR4joXn2Fy0bSu1Splue5E4DPAci6nWBNdfdxkPf/dBzj9/M53egAf++zf52299k+uuu47de14liOGP7vpjfrjrR4zCgOZkCy0Fi502g2BEkkbYUkp6vR5+ySeKIqrVKlNTUzz77LPc8/n/wK5du9h2wcW0Wk2GwyFPPPF9LGHTbS+xdesFqCTC9xyG/S46x66WRDpOYd9aQoIURGmEFgoBKK0RJOg0IU6NMpo7HuA5gu5whBAptu8wM93CkvDqKy/T7/cZDIbYtsN1b91JqVTmmsuv4N/+yZ9QLvskgxHtdjuLw1BExOM4xK7X6ySdhMWlRTSSX/mVX+Gzn/133HrrrbzztneRpilTU1NUy3DRtq2UfY+JsQmeeWoXV11xARds2Uw4GhKFISXXNYY0xoKJw4DhcMhwODTLx7XAkthCgiVxpIWwLWwh0VLQGm+SqhRbCKQAFcfccvNNOMBLL+8z6EtYpKkB/mPNJjfeciN/9md/RhCM+Kcf+hDnn38+QWRiqHZmMiapwM5BgmVZNMeaHDx8iGeeeYYwDJloTfPbv/3bhGGI1pDGCc3GGNVqmYceeohf/+D72Hn9W/nrv/wi4Sig0Wgw0Rxnw4YNbN10Phs3bmLNmknG6uM4nk2tOUYYBwz7Izq9Nt12j06vzWgQEMYBP3ziR+zdt4dwFCEsmE/hissuRgCvvfIKtVqdSlXSHINRWOLVfS/xiU98gj/6N5/i8OFDnL9xIzPTDZY6QxMszs5i13WxgyAATIi8PxxQLpfxvHJmhwp6vR5rpmYYjWAUDCh5DpVyiaee/BHz80PedfvtbNm4kUsuuYTtl1yKawkcB+wV57fUkGhQMjtRM08gyhy9QhmPoCMgSBT9zoCXDuznB9//IZs3beSll2ZxHWMfNydaHDwyYt2MT2V8HMdxaDQalMs+aZqy1BsxGAxojNXQaYrjOMRJiF0ulylT5ujccYQQeKUylmVRrdRJInPkDAZ9pISZmRmCIFhhoCdc++btXHPVdqQERxqwpxSoBNSKMIUWYiVuWI51ZY47S0On12N8rIZVK3PdNVdz7TVXA3Dvl75Ct9vF9hSHj8yyfsYnikEIzaDXwXEs4himJqsEQUrqu3iOQ3swMBEH28IOhiEAjUoDrTVhkqBTRZoazDvo9blo24V4HiSpRloOw+GQNIooecv2X25mgTE1hQXILJiUSaVWQECpAaFXhRFLYzWDkGyLVGXhKAlT02txPR/fd7E9F62g5EASD+h2FlFpRLXi0esaC8axLMLhCN/1AEUaq2VXiol3CSwEWpnftNakcVR4DoQQprMroJ7Mviy1QpwYdzlNyD0XUipW8P5MQyZ6syJMsfwUEArHEsZRALi2RZrGoNNsNPVy+4BAFavoJLLGiXyAMAxxXffE206691Q8gnNgU55Vyd07eduVSoUoijJce/LT8pVkDP4TGsothjzYNBqNVjE+8kBULtgb0yR+uiUfdK2hVquRK9NzCjLBcqApF3Q4HOL7PkKcPGuFsKf47P+LorUuBl0paDQaRfD3xxJ05Zfy8D6sns3/EYKdqqyc0Xq9/tOb0TAMcRznlF9ePaM/fufPtqzao1pTLpcLx9w5C5oLmJckSYrGV97z/9eM5p6EPCKfMzvPSVDP84iiqICEvV4PKSW1Wo00hTVr1hBFEd1ul8nJSRYXF9GY4/KnKbcQYBk4TKLM9hkOh0VcCMwEDAaDwiR7o3KS1s1HJg8Mw/JyNg7lAbVajSNHjrBp4zRxrFlc6hLHp49Nnm3pdbsZ9Q2UNkeILc0EBEFAuVw2pGQBvu8yPT1Nu902AOYMsdGTBM1Lvnxzl6Nt2whhRjHfJ1pr2t2wCEw5zk+QWJCVarW6gl4Aw2FEf2hiohMTE0gpTZxFU6wwMArqjZbuSYBBKYXIAky5nzXXdKWSAdBBEBRBHceGqakJtP7Jz1RRnOFm2VbKLikUR0qn06Fer2OLjKOWpkRRhGVZRo+cQdjTLt1cUCklnuchBLiu+fuRI0dIkoThcMjRYwsGtv0U9mgwGp1yZpQy4ZJ2u42UkigFz17WKb1e7w2X7kkzulLQnGBlqKKGLf3Mrkc58Mpx/st992LbNtOtGrMHjzAx1qBWfWOlcKZS8o2XQwiBcCwWFrukQnL55Zdz11138Z733EavH+Fa0B/F9Hq9IljdajXpd/unbfuUM7qSPVYImt3zu7//rzl8+DB/8LH/jUajxnAUc96GGWq1yk8kZF5yR4DAYNl6vcr0VI23ve1tfOW//h3f/e53OTbfRmvNtm3bqFQqSClZWuqcsd2TlNGJWjfnGJi/wf33388HPvh+fKuK54Dj2KRxmg2EyphDipx8s8oOy0purmmxMnig6HY6+KUSnmcCz7Zt4Vjw99/4DlddfQW/9Vu/xbe//W08z8sUpOD48eM4jkO9Xj+joCct3UqlUhBLwzCk1+sxPj5OkoKwwS+XadZrNBtVBGBbAqmUoY2kCbpIr8pFNXEVhYl8m7+aT41tqM13haZeKZPqFKUEcZJiux5BErN16/nYnmTzus00Gg3Gar7hK2WTkUQxAScTHleO8Sk59fmspmm6gqliPsvzTpZHUKFJAYmQLNuqQiJXCAqgdIISxmuvtPEqCJ2FCzLSp0oVtiUQmVFp2w4l38m48/EqOLqSt/hG5aQ9ml/zAO/KcxSg7PskScLMzEzRRBHZkDZYWZUSkQ2SFBIhJGlmzGslCn2gtSFgFTXLfsgRkMScr57nEscxvu8XlmcOAeM0KbwZq+QRyzbpKQXNEZFJl7ILQS2gWi2TxBGbNm0yk1Dst5zZubKaQch3oRQOUlgI6SClg7RWV5CFC0UKu2D2VqtVms1m4XfOn+t5HnEcvyFR44wzmguac44Exn/TqFWJ45htW7essOklZhhWEB6xSZEFHc5wmUXmrDFXjWWcSyurzNtZniHPdtm4YQNhGFKr1Yrn+r5fCPpGRsYpIeCJM1oIqqFWKaMSM6NK5UJkoXlEVmXBrF/Jsl8ZIsx/zz9TgLYspF1aFciNkhgJbNu2bXlGM0nPZUZP4hmtvObIyLIsBMa7V/E90jhiZt20UZjkPFyIs+epTN3pYl1n+0Vnx41edqMJDTLbSK4Dli3NXs2e1+/3GR9rsHXzpuU9qs2WdF23yGr6sQXNiVVG65qOSAWebaFVQqO2fG6pDHvGWYeLJa1XRL01xCtG3ijVzMjPNLXlGA9fvlIQEAQBSteYmpxEJWmm9U0beWQ8P+/PWtCcC+hnmjUIAlqtFmCsBStTSOump1kz2QSgNwrZu2cfzz7/HI8+/v0s5zNmGBiP+Wg0IgzDjJW5nDsmsYDMgM8EvWDLJoSAsUaNG298OzvefDXrptfS63XYsGEDi/PzxuC2zEDk/czTLM9a0DcsWuGXXC6+aBtpohmGIQ9+5yE++rGP0xuMWDuzDiUM7U0IkWlHC6dUwUURRaFRM0IQkyKEVeh/qWH/gVlsKRj02nzzm9/EtjTffejbrG1NsmmTzcTk5CrX68oZzU24n1xQAVql+J7F5Zdvx7EFNbtEa2qSA/tf5sKrriJMM1Qk1TLQyP5JJLbtZMeRhUAWggphzsxOr4PQCeO1Cq5j8ewzu2iNN9Fa4dkOmzdvplKpFAotd/HkW+xMHOxzmlHPtqiUS6yfmS724ebNWxmfXsvG8zcbawOjtVOlUGlKqgzZSugE17YMRNSGem7iTAIrm9Wx8QmWFudxvAqTrQnSJCBNU/rdPmPj42zavNHQ4FXG3/1x9+iZitQmic7JsickMFLg+T5jE01eeuUATqlCgXNFpk2FRFoSgSSKQiOaEGgUWjhoDK9BCEGSxDhuicWlDq8ffo0rL7vYnJ31ChLB1NRUoXXzVbrS5fNTERQgSbNkVG02viNhrOZx4UWX8PJrh5DSRmW41ipcobrQsHaR8mChhYXGzpatubfbbjNeL5OGxlG9c+dOKn4ZzzL2UJ7QY1kmTXOlgD9VZVT2y7SaYxlY1wSxIkothsMAIS2k45plmY2yqQlojVApXg7WtUZlOC7NXCcSo0WV1oyikJLtkiSKNNVEOsZ2SgWP2ALizKe10gA50+I9QdA8DLVyKayMbGk8z8d2HZQCW1ostHscOvgawvLodbsFwBdCFGxOAIFmEI+QOV9QG7inkJiumz09PlYFFROHCS+99BKeZyOybqZxgsyyF1EalaSIHIOkqlhFeTHns1GQ9koiWxAGNOrjpMBoGBbUFdclO/BBui7lSs14/jyXki0gDPiXn/wYV1x+1XLIQmpsIbAkyOy8DGMT+RIZT1dk3IU8zNfpdHAcm0a9zic/+X+yd+8LLPUMh9+yoOr5VBwHG6h5kiQYIVVKNBjRKFdPoprL4v98qDJhbdtG6SQD2wqthQHMZpXR7XaRloUQFp5nzrNOe5G540f5b1//Gnuee86YdVLgOBaeZbKhXCkRlqQ3Cg24L/bv6jhOu93G93263S6vHz5Eu92mUSvT6QaM1w2333OcYo05loVOU0MS0afLdjNtr1q6OXaUtlV0IIqiAltONCdMdoNlsdhuU/ardLtd+v0+n/jEJ9i4McO/eY53qkjTGKkUCk2CRJ8QqFopaL/fZ7JVJ1Vw331f4YN33sni0oDmuPFHGWXkGoioKRLZy+XyuWUy2bZNEAQISxeCR1FEHIPlQpzExq2SaJpjY8SJZmlpiTVr1nD33XcjpbFdS67Jd6n5ZXzfo+y6WI5NpCDN4FqeLZWDcq01i4uLRFHEwsICSikuvuwyxsYqRLEJ5VerVWzbaNwkSQsjvVKpnJvWXemSEEJQrVazGEdEyXVxbIcwDGk2pwgi87fBwDBZ/uTzd69qOAw18SggDEeoKCJRKakwhP/c4ZzX/B0spZJVOAoe/39+xE1vfzs/+MFTXPuWqxgME5M9taL0+/2CIX5Onvrcp5oLOj4+TpqmdLtdxsdajMIRMzMzxLGm5LrEieapp55iYmKCD3/kd0hTk2hTLnlUKj5j1RqVik+1VMJ2HdxylTjzrgdBwGg0IggCoigiTdPsHSoRc3NzXHrppVx25ZWsXbuWxaUBrfEK4+PjZnVZxkO4sLBArVYr/FhnLWgYhll0WxSCaq3p9Xoo1cIvGfu2e0kAAAevSURBVDp3qVSiPxxSLRuqzs6dO/mjT/3Loh2lMDkuUUwch5AkpFqhLQeduU9zO3dlmphtCxPaEHDo0Ot85Stf4fnnn+eGG26g0w2KcEitVkJKmJ+fp9FoFFDwrAWN47gIwZnsQfOz4RZBGIXZfhAmWyGIefrppyn5Nf740/cwO3vIELEsieNYlGxnldb1KjUSpYxDK44L70CSJCil6Pf7dDodtmzZguM4tFotul3zRh3fXXadgDH3+v3+G3LpTymo7/vZS1uM0b127VparRa7d+/msu0XI4VmMBiwZs06nCw7aW5ujjvf//O8973vxfftAuWAIUulqULHMYlKiRSnmVEzi3GssG1JFCX0+31mZ2fpdrtmVfWNq7NUKhFFmna7zRNPPMGOHTtMAlLmDTkrQavVKp1Ohygx7JSSV6ZcLjM3N1d4+6anpyl5PgvdLmjJYDBgbm6Ov/zLv+S11w4aP2uaIISm7HqZ9vVxSx6DMCbJoGGubfOqtaZSqfD666/jui5vectbADh27FjxCoIoiiiXHRYWukxNjfP0009z/fXXr7JizkrQ4g1UWWessmDLli28+OKLAJS8Ep3uAlobErNWhit45ZVXsmXLFjadv3ZVOrtQMBpFhIMBYRxRaYwXWteyJJYhexYlis352O/36fV6PPfcc8zOzlL2LSRlpqYMb951XTqdIZ1Oh+npacplh6Wl8Iym2ipBR6ORISklmm63SxQl7Nixg7/66y+RJCnKFTTqDZSWtPsDktgMyMLCAs8++yxzcwtGKSjj23OExLIEnmUhbYvuMCgA56moPEKYgVu/fj3veMc72LBhA0888QRhBGXforJhml4voFwu8fTTz2JZFhs2bCBNTZD6dKSSkwSN45hSqUScJsX7Da644gr27v0DlpaWUKFgotnIPO+CQ4cOMT4+zvXXX8/6mYlVDWttGhfChB60WHZ95vZkjnDyJRfHJvkvzwXdu3cvQRAQBAG+axSQ75usqr1796KUYtu2bSwsLL1hOshJEHA0GhFEKY1GgzjSrF+/nkqlwq5du/gnP/9Oev0l0lRQb4yxbds2ms0mv/RLv8SePXtYv/48qtUqkxNNpqZaTDUnqNUqVDwPaVtUx5pE2QvTcsJyTlpOkoTZ2VmklMzNzdHtdtm4cSM33HADjXqJwTCh5Nq4WY+/+c1vcuWVVxaJD+fkYbBtm8FgQBynuLZgOIhoNpvcdttt3Hfffbxj59VMTDQIgoTeYECtUuEb/+3vUMDrR5cQwqLf7zN//BjHjr3O0tw83W7btJkmzB45irRtPM+jXC7TarUol8uUSiVs2+aCCy5ASkm1WmVsbKzIwwGolG2iUJEKyezsIR555BF+//d/nziOqVQqxWo4K0FRRts6UpMmEAz7NJtNbr/tVn7jf/11jn/io/iVCmW/jAdEyrBGFhYHNJvjWBZMTtbZunkGIa5CaMPbzc9Jv7LM+jqx5sX4gmA4TNBpylRrnH4vpFRy8TyTsfi1r32NKAq5/PLLaTbHWFrqUK1WCIKQIix3wlUanq1JfYxGAb5XwrElcRRSr5UpeYLr33oNt9x0I//zB3+Nr/39N5bDCJmnvtWsEMfLzukipCBAOuD6NuWKa+KVapltaQlTbZnRbBzzu07Bc4xxIIFaxcO1BXGY8vGP/wGf+czd/OZvfoRLL72EbreD57nMzR1jdbBj9XXVy9XSjJqtlKLRqLO4uIRSisnJCZ574UV+96MfZ/eevYxGI3bs2MEtt9zCBRdcwNjYGLVaja1bzz/FbGV0Aa1M9gRkUXRRUOvy2ukMi0h2r9fj1Vdf5bnnnuPZZ5/l4MFZHn30UbZs2cSOHTv4tV/7NS677FK63X7xSqIzad2TBM3fyDY9PV1EvKen1xAmCseR/PDJ53n00UfZtWsXTzzxBK/t3w/A5Lp1xUvOarUazWazqLVaDd/zsgBVUjDB+v0+w+GQIAiI45gjR47QbreZn59nNBxSrlRYv349W7ZsYc2aKd75zndyxRWXcdFF2wAYDk0WRm4BnclUWyVoztnp9XpUq9UCW2qtOb5gktctx8vSkm2kNO8KfO211zh48GBhfeSYtd1u024bZZREEUIr7Cyw7DhOkd5s2zZSSjZs2EC5XGZ8fJzJyUkmJyeLgXJdo12Hw36RxO66Lq1Wqwhv5kzPsxJ0bGysGOXcbvQ8jyhVWLZDqpfJG4OBSdcyb5AbM0Z7dvCvxLIi24tREJ4hTQ5KJQ+l9EkQ0YTvzYsTh8M+ExMTJIk56x3H4vDh14nj+CR79bSCwvKbE/MH5IjDKfkEYURvMMpeUlqnXi8jBIxGJiCV24Ur3Z3Le9TsU+sMZtqJb5ha+dYNIaDX6+G6NuPj4wbAKEWj0aDf7xftnK6c5GHo9/vZSDmFsMPhkKjXZ+3MOhqNKmForIt+V1GtVnEswSAOTUoyWWBfaCxrJfI13sCVLsn8kM+RkShwsFVwneI4JooikiSm0Whg23IVQMi3Wx5/OasZ7ff7uK7L+Ph4QT3zvOWXgs4vtXFcs0dXukDyGcyXbt7pVT9rzD5d4RBbni1RxGNXDsLqSuaoM0Lmdqh5W6R4w2jaOb27Mw83/LhFvlHu8xlL3s0f7w3K/y9GjkG/NYwUUQAAAABJRU5ErkJggg==;rotation=120;" vertex="1" parent="1">
          <mxGeometry x="1150" y="207" width="58" height="100" as="geometry" />
        </mxCell>
        <mxCell id="ZeBQX1oqdIYX9gZX3-Ay-79" value="" style="shape=image;verticalLabelPosition=bottom;labelBackgroundColor=#ffffff;verticalAlign=top;aspect=fixed;imageAspect=0;image=data:image/png,iVBORw0KGgoAAAANSUhEUgAAADMAAABqCAYAAAARIGkVAAAgAElEQVR4nLWcebBlx1nYf72c7a5vnUWzWchajARElm0wDhSuIIxNHKogkZGrgPBHoFKmgl0YgalKuZIQUnZwJRUW8wcF5cjEeKFixyATG5kQELKwsTZbEbaFR6MZzcxb7rvv3eXcs3R3/uhzzr3vzYxmNJK/qn5931n76+/rr7/1iMHOruMawLkXvizPc4QQSCmbppRCCNE05xzOOYwxWGub5pwjCIIXfL4Q4qpj1NeCyLVAGIb7XiyEwFrbDGJxMurfUsprGuS1wsuGTBAEzcw755oZr5vWukGyptwi1dI0fcljuGZkrjaDk8nkksEushlwWTarj0VR9NIw4WVEZmlpCWDfWlgc8Gw2A9i3phapdTW42poFENcqAK72wqIomusOtsXBLLLe4rHFNXc5uBZkXrY102q1mt+XQ1zr/a86OLiXb80Ie8kJi1z4z7PFIkjnr2rOByGT8ZTNzU3OnnuOs8+e4dy5c2xubjKZjJhOZ3Q6HdbX1zl27BjHT53k2A3HWV9fp91uI5Ta93zB4vPB2jnysv55YNxiMNxxYFESlNZMp1OWV9fZHY0ZDIacOnWKLz/2JB/76CcYDocUWcr6+jpaKoSzrK+vI6ViME557LEneOihh8imE2695ZW0Wi16nRZlWdBqtRFCsLE1IE1TtrZ32NoZctNNN/Htd9zOXa99NefPnyOOQ5IkYTwaMRhsIxwYY3jtXXdyzz33EMchO9sD1tfXSWcTXGk8O2MRg+G2A0s2S1la6TOdZKADjHGgNOcvbPLe976Xs889T6fTI9QKKSXDrU3G4zGx1mwNBsi4y9t+4l5uu+VWvuM77+C2V76CMAQJFAXUe2JpQUgYDgue/OpTfPHvvsTDj3yBp/7+q3T7PXaHA+I4pt/vsrq0jJKCnZ0dHv3yl3jHO97Be+77JWazGVJ4odJJYoQQmLKAwXDbDYab7tzzp900G7qd3S13YbDhLu5su7Ep3R989OMOHbpHnvh/bmM0c5lzLnPO7U1yN5kZN0tL98STT7vvv/ut7uz21KXWn9/Zy9zOXuqsc26aFs4656xzblY4l5bOZcZflzrnHvg/j7jvuftH3FfOnHMj59zEOXdhNHHnhntuJ8vdblG6d/3qe9wPvPmH3d89+bj7+rPfdDOTub105EazsdvcvuB2hhuuWQitVos8LxvVwlpLWZacPXuW7uoqx48fp9uJsM7PbhwHRJEkihRRFLG7u8vaSoK1VKvN0mrHAMTxfPGHGsq85Mxz55mmDgG0WzE725scPXoUib8/SRLa7TZBEKC14o1vfCNPPfUURVHQarWajTZNU2ZFiUOg61fHcch0NsVZEGq+XwwGA+666y5WlzsAGAdCgDWeXYwBaw07O9s4YDKdEnZbdLsxEshmM4bDIUEQUFpDt9MnSSIOH14jigUOGI/3uPXWW2lpwc7eGK0UvXYCCATggDgImeyNSJKEIAjYGewCgigJGY1GtONoLpqttUihMDiKwuCcQMmA8+fPc/ToUageKqVHX2nI8oJQKvr9Lv2lLhIQ1lbyzVMnjkOOHFkDJNPpFF2tHa0EspJX7U7CdDLCAZ12G6W8LNsdTwiUJo4j7rrrLlZWVjh79iyHDx+GinpBENBut71ErZHJsgzn3L7duSxLzp8/z4njp3AVMsZUyDsoy5Isy0jTlG6rhasG5hE35MWMLE8BRzodo7Qg0AqwlGVOaS3GgRKC2265BVNayjxnb7iHADqtNt0kQuLY2NhAKcXFi5ssL6+igpDxNCVNM3rdJSwSjZMgwJQlSAgCTStOyLOS8WTKaG/CrbfeigBmmWUy3qPVSujEEe1WggJ0IFFakJcFkVYYm1OWBoGDilJxHCGkxOHAlYRhiKr2LiEES0tLKCWJdeS5BNBizjWtVoubb76ZNE0ZDAZMp1MOHz6MKUouXtyk2+3O2UwIRRTHZFmGzXOyrEAIwenTp0mSBAtEkSSOvA6GA+sswlmOHTtKr9Ml0gEKMEIglSJQAdksBSxCAs5hnUNISVEUSKUQCLrthDKfEVSDj0ONwG+cxlgCpbjhyBHyrOTZ088hUKyurJPNvAq1srbKeDyu2MxJnKue5KRviEbfurzhZP0OXO3CNZ+D36GFqydpv2ojnB+kpN7lPQSqQsCCXDhT3y+AXq/H7u5uI22ttUgpsQacFch6qTrnECjq/6X0Cxb2612XB0sUJfuMrgax5q+83I0NgkkU+CucQcv6Dot04Jxfo0ePHOH8+fOEYYi1DucApSidRYVB/QaJtXM9xzmHEIK9vT2oZuTg4D1FLF4seMmCnx0Eys+tc0ixoHMtUF84kE40NGjFCYJqtmuRXI1DVkvvhhtu4Ny5c2itG8p4i9YRxvF8uqzx68ZPrkAIxd7uGOcc/X7/hcjiB9NqVRZmPXA/t0IIj0SNSEOlBeo5SSuupKAtaQhrHYv67fr6Ohsbm55Snm6exZyjKIr9+8wif0spGY1GAHS73SugMNdk23ECTmAt+OUjPQFZpIz0Gq8TFbJz8JR1YKpx1GuuGY/nkNFo1DhPwCuhDkmWZni5jGhICnPyXvuaoVkzl9hQQiwIlStDEkVQsZm/z+4z3qSAKIrI85zZbIZSXuEtS498GIZIqu3QVlOxYEGQFzOEg2hBVC4yiHRzSVMbX3OjS2Kd8DoPVS/kATupwRipQ3AKu0/4HbBXpMJayPOysWKNKZAI+kttZJqnFLYgTGKyosQ4r2C2WjEmzwm1JNKaABaaRKNRQiNFgBSaVismDAVWOCwgA3BS4JTEIMhLgxUCg8BJCKKAwnrOane7LK+sY5yk1e7igDSbogOFAwrr1Q4lE1pJn6KUKBVQliVOGpzIme6O0bUXxViDEwv7ggNrDEqKhiI1FeZQa1dynw1vhb/OzoUX1kqs8MdsfW6BJaUKGpWpfoZdoI51ICrK2n0EsxXlQWqtGy8JsG/dFEVBEARci5+u3W57BRSHdBU7Vr0CpPN7hsLtO6bwAiMMw33vWRRG3hs6Z+WyLLGWS8YslVL7kKk3PGsts9nsGpGx9HveRJBCgPB2CsI2Uy2FQIg5ZQUgpGv+r/1m9ZI7qDnUyAjhNZNaSNV+uuod+7FbpEyWZZfM2JVgqd9FYJE4hPOLwffW2+fOzs8vXCcAKRxxHCOE18UWx2ErNnNurlbled6oMovXytqVWiMgpWzcqw0yV8el2Yvq2bauRAqBdWVz3P+Yi15PRa9JxFFUIeMXez3QmgKLbFYUxb59sUHGGIMx5rKUyfP8En/XlcAbSHNYnKBFuJxPrd4nFu8TQuBw++6v2awsy337YoOMtbaZjYPIGGNQB/xZV4J6MJfz+l8WDiBVv8fuF1ULG+cC61Uu34PIaL8mBEVpmU6n9Hq9hh+DILjE+XfQtSrw5F5dXWU8GtFqtZBKoZSiLMt9AqVmjTpWA+CMYW1tDVNqyhLa7QSHoSw9e4Y6BiTOeU1ESkmWZWitSdMxQawpioLd3V2/ZuaTNce0fmF9rCgMxrhGeqhqwItrrDQGU7pK/dAorZHSL9rpZEZRligVVsiGKK2xBrKswCxQRCAaSpW25Co0biZZL850HSCqoZ5JBwRB9fCybHhWKUWgJVIpllfW0GGAEpJK8cZVZpZD0lvqN4NySK+yIQmiCBVG7A69HiikQin2iVzvmn1hMaSUQjcDriTZIitYa+czVPq1Zcq8uUYphZCVqi81xkm/HwvP47X1KgTIhbEUpWvYSAiBFIp2u1XdZynKgtKV1SR7DUSpF44SxHHskVFKVTOtL0HGsxEVa0lkNDehnXNYU2KdRQUa4zX4arEusID1e4NSiiBQaC3Qlc+pNN7w0qGX0qba2QMdVM4j34ryBXEhSRKPTM1mUspGTB9EZjz2hhrOn9daE4YhQaCQSEqgxLuinIBAehtEAAZIdOh1LwdZZaTaaqiLHGSMwdgcJ+som8OUgnb7oLW7Hxo2ayTTQlB18bdz0KvUlUXONcaQzWYURvDUN06zvbvLhecvcv7i82xvDtgabDLY2mE02WNlaRWhIA4Tektdjhw6yg3Hj3LDkWMs9brcfOO3oXAEIbTaEaLiS+Mcs/QqZIHa0pxvbotrxwG24hcHpLkhCBRCwM5gxNNPP81DDz3MI3/zME9/4xlKqUjzjLKwBKGi3erS7iQoGeAwDHfPYl2JKR2lySkLi7EFzvp3LnW6HFpb5bZX3cxdr/ku/tGd38HJkyfpJC3CKPBavHBUOjdzP0S1pvMM3e12KQqDlIqtwZATJw4zmWY4KRhNJ4TthMyWaK25sD3iN/7zf+ELX/hbstx6W0ZqctGj3W8RC+d5rOpz5zzvCQlSgQiQShCKFuHCdQA6SDi9NeLiF5/k05//awYb53n997yOX/j5n+fVd34XvV7CykoPIS2DnYuEkcRYzWw6o9fv0O6F6M3NTdYOHabdien2e5w9d4FOp8PuaJfl1RUubG2AkCgJ62tdonaPNHdEcR+BxjlFbznBiQJ3mQjctYAVEhEmrB1bIptOaAtNv7fCs2c3CFsd+ksJo72MvfGIzc3nuf2OV7GxcREpJSsrKyjhMKZEnjhxgjiOOX36DNZ6Eddut1laWuLs2bMMBzvEWlI6GAwz3vCG1/Pc2TMU+Yx0OiHLUrrdLs5JsOq6mrCCLJ2xO9hh4+JFptMxzhmOH7+B17zmDiyw1IuI45gTJ0/yla98hePHb6DT6ZDPpuzsbHttwxjDhefPc9O3neQb33iGtVWPxD333MMXvvAFfvZnf5bCwoc//BHe97738YP/5Ls5dOgQaTrBmII8n1FmM0xRUpbmupopvIRMp2OWl/u84uRJyrLkbW97G197+ln++b/4Kb55ZpN+f5lX3/ka3vnOd/KpT3262VJWV1cxxiD39vZotVrsjabceOoE3zz9HO95z3v4h288w4f/+/385Nvv5b777uMDH/gA999/P6M9y7v+zS94Pa7fIYl9oElKiRL6upqUkiTQCFewNxzw3LOnSacTfuKeN/Pwww/z+OOP86rbbmNra4uPffR+7r33Xn71l3+FD/3+H+z34KRpilKKXrdFkoQ8/fTTfPGLX+TjH/84J06c4Dc+8F/57P/+c5b7Kxw7doz777+ff/nT/wywGFMQhAJTZoRaobUkVPJF94FSTMZDDq2usLrUJ45CfvzHfxwF/M7vfpCl/gq3verb+cmf/in+9M8e5H3/6dd4y1vewoOf/xxx5exXSiE2BtsuihJ2hnskScJ0OuX222/n9a//Xs5vXESgiJKYd7/7Ph544M/42tf/gT/7zKd597v/LQ/99d/QanW886GykGs/xYvqhWU6HRNFIdZadvd2+MM//EMmkwnveMe/5v3vfz9f+uIjfPhDH0JJeN1r7+Tpr36V177uLv7g936Pc8+fY3mlj4zjmOFwwKHDa2itabfbfOhDH+LIkSMsdXv0ej0e/uu/4M1vejPj0YQzp7/JI3/7ZX7u5/4VQlqKckYrDpiOd0jH29fXj3ZYXWrjyhnHj65zaG2V173mVv7oj/6I0WhEv9/n37/3Pv7bb/8WcSshLwt+8E0/xK//+q/z3NnnWFpa8gGyoiiI45h8lmHKHJC86Yd+iB/5kX/KL/7iL/H1rz2Dsd42j+OYtbU1Pvjbv8XHPvr7WFPQWe5x8y2n+NEfvZt+v8vRo8c4cuQQKytrxHGId8qXRFGC91jCbDZlb2/M9vYm29s7TCYTTv/Dszz66KM89vgT/MK73sn58yMeeuivCMOYaTajcHDy5CkG20Pe9c5f5LtfdxdFlkIckeUpo63JldNN6vgKeJdRtyM5vH6Ix4uSJ554gosbEx74zKc5cnTZa7Vi7vG0C71zjtzkBDJASB8fsLSQR9coOEExKyjLkm6ngwB2xyWtjuajH/sToiBEqYCl/opf5LDP41k7SZyDbr8395XWsRDpFi+e/x4OcnZ3d1Fa4qzhzx/8HMdvWEZXPm6FBTLyYsIs22Wa7pIXI3AZsRYoWSIpEMz7AEs71vQ7LdLRBAUsdTSDrTH/8T/8GlmWkWUZw+GQxbBvPcGLEASBtzQba7PylMiF8IOoHN6dTogSgiRJWF5e5pFHHmZnd8rWYFRFw7xDLwg0WgmUkmgl0FIhKzNN4ihtQVZMSbMpWTElLzOsyWm3YiajGZPRjCydcP7C85w4cYK1tTX6/WU4QJUatcUJX2Cz/arIQQqFAXQ6nSrxrWQ6HrHUbyGB0nnGkvgwlxbaO+KNozSFV80EWOc3SG9WSwIVoGVA7X7vdGLStKAVJ0RRxN7eHrl1REnsVbgqPOnEgl9C1KzmDlDmAEg3jzxOp97AyrOCKPKqxWSSUljDxefPMctn5FX+QKBiojAhClqEQUygYqwFU1bWp/PhRmfnxtfeYAewRHEAWJIobrxDi+6uK/kDJpMDAkC4K1/calWOOevXFmJuUp84dgJXehPTlg7jzCUTFMfRlbPbHERBWK1w7+NO05Q1KdmdTNjY2ODWW49e4WYPUkr/eOFcxXsWH5WsYjWVFuyEN28LY5hmKaPpHjeOT9GKQwa7Q4pA0291GsPN++GktzSvMTs26rQpZjOCpEW32yXPZ4ShRqaQRPE8es18ndRS0wGH1g6hy7JESYmzfmalgjyfocMQqQXjbAzK2+b9lT6tThstvTPDWVjuLiGFxWHwBrJAqtqIcrhr0QGEdy+JKCAzlq3BNuvr65RliRKSTssjo3Fo4U37PC/IsoIwkugoYGtrszLBG5FQRX+qKbAL9kkdOxHC4YRFVRaewK8t0QgQdx29w1UBVyf2Sy2J9dKyHlbVO+caoeCcI0naaFGFGq4FXpBlnF5A6MVB7Wd7KWCtvXZkLhcIquMtTWTTXZtf+tKHL8bMrg9eFDIwd9vWv1+u8QgETtROqesDrbVHRkpx1YHUY19Efh9lXtrEvmSYTqc+cnY9xQUvZ0HCywGz2exFpM9zDQiIl0Kel0baVquFNsaghARjfcDIadK8IM9z2u12kwmezjwyeZ5z5MghhsNhlQ8GSsHeeIhUeMVSK59ydSC2swjWGEprsKXxepxQRHG78aJevHiRkzfexGAwrEInsLe3h5SSOI6bjEVjDEprH+W7VnYxxnLo0CGE8HnGr3v1XRQl5NmMiSlY7nUumV2DafzYi8VCSimk8oqmT3gW5Naytb3F0soqaZpy/PhxyrJsBn4lWEwL8+pM5YJ9IWi1JGXp0xFXVpY4c+YMxhiSJEbJmPFsjBD7w9lNcYOUhHXWUpUNaIzFLehwUZDQ7Xa9y0hKtre3CeIWxhg6nc5VJzsIAi8AXgjzGpSA7W3vbBsOhxw7dow4Uly8uMHm1jZJ3CGMuuiwjQhirAwoUeRWMCsdJYoShRMhQsZIlaB0Cx20CYM2z194niiM2N7e5sSJE/R63v9QB2SvBlrra5dmWeHzvcIw5PTp0/zMz/wMk2lOt9tlbW2VzEDhwHgjGik0WgYEKiTUEQ6FQ2EQFA5y61tmHLPScvTIccDX4SSR5sd+7MeAyyXuXWGylao3zasjM5lkdDodNjY2eOtb38otN59id29KWeT8/de+TtJdwSlFqDQ6ComDEBUGhEqD8sZe6cAWJbkpKbOcrCywRYmzBaPhRbY2LvLmN78FC9x777186k8e4GCW4pVACHHtyKwsRQwGAyaTCffddx8A/V6L97//g/zmb30QnfQpnU9nNJUGbn0sEOscURiCED7tREqfBlz9r0SBKCcEGo6fPMWrbr+dO+54JXfffTcf/vD/uObaGi2E8umM+IBpo/A5gXTSa634w1EoedOb7uamG4+ztTsjiiIe+dKT3HjLHUwzixOXL09cDFwdPA4gKcmmA0w549HHnuKmV347WVbwK7/8bv74jz/B2voSdWqtE7WtNX+ON/EN0haW6SzHak1qDLl1IH3cJUBSztImp3Z9pcsHf+c3GaUFvX7MN05f5O++eprhVGCIsU5dthkrcejLHjdWUtiQsHeMpSM387n/+wg6EkRRwFK/xb97768wnWz5yUwUpTDk1pAVOaZ0dOIEW3i7R9beLiugFN6uQAq0EGRZRiv2WeUKeMP3vo5WHNJJAgzwlw89TGkVYauHQ1x3M0IwHM0Yp5avff1Zzp0fIaSjFWq+/x9/Dzff+AosFqUFBkNpC5QMqkxA00TJG2lWhwDrcKBS3knQ7XYxlWQ8deKU50CgLOGBP/00rSRGC1lnel5Xkw7arRZSCgY7W/zVX/4FoZJYLLe88hYkAmNcUwu6mAZTFMU8G2Qf/9p6N/USKMsKkqRNYQxF6bPPDYZpmnHmzHmeevJJ+v0uRT6rULTX1QSOKArAlsRBwCc+8QmEgMHWNmCZFTMf2pcBIDHGNTWgNWWMMWhReQiEqx8+B9tYBp7lKEFFMe0k4sHPfhYlvV1eYBFcfWO7EjhhGe0OkMIRRZrHHv0yF85fZG1tCYcjDmLGpTlwTzNK/79zc8os5sn4pB2IwoQ0zdBaooKIVtwiFBoJ/K9P/U8Ora0wGe+RhAESC6L0GQEvshfOYk1BEoUEShIoyYMPfo4kjBiPfW61qlgNV+WUGoMRBqkV1pYI4ZBOOu+kwKCEQ0iHcwZjfA7Z7niEUBCFnsRg+dKjX+brf/80cRigsUhbIDBIV6+BF9ljSGKNEpYoUCz3u3z6k5+iKDOk0N6XrXxlR53mYsy86KK0ntUuS5k6DT6KItJp1pA2yzPSLOWzn3kAJRw2z+l2WmSzSZU86mf6xfaCEoxhsL0JzmJtyeOPfZlzz52l1+6QzWbIKktQNciYKkVmnkmiS1sgJZR5ThwnxEmH4c6ILDesrq8xSafkJWgNKtDsbG7zxh/4fm668Ra2t4ZsbgzZ3N5iY2uL0pVNRnjd8jzHGEMcx42rNQzDKlUlaHLaltcOE4eafifm6KFVbjp5lL3dXbYH2/RXVkkNpGnGcGOL48dPkiQJk1FWSbfS+7i9Cl7nlvlMh1pSdDpdytIwneR0uiFKKo4cOsL6+jpv+G6NrnwHxnnHzGJcRlAV21Xni6zECYESAqEkunIzazGXawC2cFDmSHwihQ4iDKCll25Bq0UURRW7CYoyb9Z5Uw7sKs9IlmUEQYJAsrq+TlYUbA93kOESUSCQwmGLEolB6tiXgxjIswIrQUmff6aqgQrhN9yopRs/psVnOlkLpXM+ATsQ3mupfMqWcn6CTVFSSo1S8NxzZ1ldXffRCAw6DJhNRwRKYK2YJ89J5wvZpnlOJ+rgLKytHaIoCnZ2dnnFqcNVbYxFKk8Gn+rrQxntVnBFR5E40MvqT+0TtcA4zVFK0tICrX2JgqgiBFJAAZw5c4ZDhw7RigVZ7jOr0qLwJoZzPn3e+6usl2rVDiuFptfrYRzsjvZIsxLhSqQoiJTX23ximUSFtcI4ZzTrqCxJgXMGKTXOmea8T6zzvQWUsCjhw9Y+yOAoixlZBjPr6K502docsLa25p9gLWGgQNjKH+DQUtY+5Cohp3IOhEHYZMTOZjOSSCPQgCRAgBO4WQbGIAINUb1aACxSyMrZtlhFsK/GozlmgbxMfZKe0tVtDh3H6EiTCJ9PlGUZ/X4fC140B6oSIF5Ea5QEMy/hiOKA3d0ZWvmamVplACjKEikMgdKA82XvMgClyGZjnHAI4fMvL+1rl+f+VqPYTlrVnlOVfh3wkBaFH0uSJGRFVQTk6hoCUZUNC03ucoQIwClCFVDmY1zLh/tUlUlVWq/USWGIVbWBCpp0vyhucVAdcgujEQteacc8N7l2aqigRSNVjcHV5VfOYoU3uUMpiJTE5gXCWLCaQMcIZ9EqRJe5QxKhdUKeOYpiRjtJ0EoQSIPJJ4TSEQoIk8RLrzrEoBaKEN2CYbfAWJcDASi56GSXTSTFobwjrnpcSBXssuDyKa2gQywlEkUxLdFCkqYZcRygfWRZQcUOXhCAqEoMQy2xZe45fYHsTWFfPZwmgHodcADry4U4JGDLnFAKlLPVipNVVYeCakX7ByyUcABNGnCdaHM9g3o5wVqaQovmdQtpmLCQJbCYaKqUapBJkuRl+VjHSwVrLWma+qrBChokqn4fZYDGG1kUBVprWq1WUxX4LR/wC5wrrWU8nRIlCU4IjHOoqucgZQ5WCtWUabVa33LKHMyJuRzUlInjuDlW1yFclTLWWoIgIIqi5ms+VxvQtxIWK61q2BfFu5yluejcqD9ysFhf860AC1edDed8/UCt0QOX9PuCTVr7WpT6mxf1RwUmkwlFMaecqLThxXBgUdUALL78cv3lBuEvEFVpJQvXLYwtDChMyQ3HjzFJpywtd5lOM85fvMArv+0msjSdI7O6usTu7pg0Ten1egRBwObmJp1OpypxnD+58rruq5dUB2JwDl/n7CpVXik5n4TLzHxpF7Rrsb8HiCLFs8884791E8dNscXhw4eZpNMqa6oCY+YFauPxGK0l6+vrHD9+nE9+8pMNAnUFhpTe+qzb3mjKaJwymWaks4KisNSCRmuBqjKbBF6DKEpHlhvSWcE0zVG+WripHrYVtbPSkZWOz3z2QXrra9z+nd8BSrKxPeD5ixcwXEYAjEYj2u02SZKws7PDdNqm2435vu/7Ph544AHuvvuHqy/19FlbW2N9fb3KBeuTJAmGWhWfVz1prZug02IFlDG+DKv5zplzbA+HlGXJbDZjOp0ymUyYTqfMZjPKsuQjH/kId955J6urqwwGA1/kWr2v12uxN5wgBjtjt8jT9QKr68WCIOCRRx7h85//PFmWMR6P2d3dZWdnh+FwyHg8Jssy8rLE4m2hg61GokZKa72vzEtKSRBHBEHQZLx3Op1mcrXW3HHHHbz97W/n0Noyg+GIbrfLdDplb2+PVhQT6mA/MrWrs9/vMZlMSdOUI0dWKUuYzbJ9H2CrB2qtxTj/mTyL23d+8WNtZVk2yDRxzYXP6Rn217PVVK0nNwgCokDy9Neeofc+GbMAAADcSURBVNPpNJTu9Xp0kpjx3gJlyrJs6u3jOG5m1BjDeDzmyJEj+yoBFwdqq/udYN+X5RbjmotFRwe/TAcQVtl+ixLu4O/d3V2stdxweJ2stE0dqRKSfJKiawFfk7hmtaIoMMYwm81YWVlhY2Oj0dsuaVVI3QlvHxhRIpzwarwTOOFQQlXn8UacT0nyBXdi/rG2gxWJjbRUijiM6HQ6nD13gSAI6Ha7jHb30EISBhoxGAyrDcSr0dcPDiss0snr6Fl0Hr94EA7pKldT7QJ6KYhAHcGy19lfZ0bU/PX8f7bEqPDl7V6AAAAAAElFTkSuQmCC;rotation=-180;" vertex="1" parent="1">
          <mxGeometry x="1676" y="730" width="51" height="106" as="geometry" />
        </mxCell>
        <mxCell id="ZeBQX1oqdIYX9gZX3-Ay-80" value="" style="shape=image;verticalLabelPosition=bottom;labelBackgroundColor=#ffffff;verticalAlign=top;aspect=fixed;imageAspect=0;image=data:image/png,iVBORw0KGgoAAAANSUhEUgAAADEAAABrCAYAAADeiWqNAAAgAElEQVR4nO2ceZBlV32Yv3Pu/pbu93qZnp6eGc0iDdoFjCzJWCyWsYlNnLCoIEKypYDlJKQKx7HAyDYmMZZNcMVEXuKYlMu4sCWzCSNjQAILiggkDJLQNoyGmZGme5be+/Vb73pO/jj33X5vema0hEqcKp+qU+f2e7fvPb99PU+srq1r/j8f8v/1Bn4Y45+A+Mcy/gmIfyzD/mE/UAmQ2qzD44XiS53xU3k2HSrU8JOlI0lUQpRGaKlxfAfpSMIkpNFqYLkW0pFIRyJsMTTNfTHStvBKZaTl0AtjOt0QjaRcqRCmKcJxsAIfZVvgeHiVCl6lAo4Hto3tBygtiJMMjSROMlqdNt0oRAk1NBEKUIhBO9EJe/i+i+N4gEJKG8sSZJkmjsPic6UgjkOSJEOpFNt2cRyH6ugIURQRRykAlusghCBJUpIkwQ/KRFGEQmNZVv7cGMtxGKmUaDbWKVcCHMsijmPiOEYpRTnwqJbLrK83hygl8+shdgqCANt1UBl0ez1UBq5nI7CIk5goVmgypLDxfI9KtYQmo9sJ6fTahhmUIlUZSilEZCGEAMsCQJNhOxJLOliWRS8ymxRpSpZllEolwrBHL1M4jmP2Y9uQKRrNJiLf+gYghpEKSigBSgsyNEKBsCWe7YIl0KkizhJq1QphkhL3IuIsQShQwtyvtaJSNi+1XQcpBEmiiKKIbhSRpimWZVGqlEFLWq0WvSjG933K5TKWJdCZQZJj2WitCcMeQggC1wMgicMhuenLwgAlJInKSFWGZ/v4JR+pjTyoVCMdm4OHnqVaqzBSHsWxJWEnItUpZb9CpRrw3JGj/ODQQR577DHm5uZIlcGu5wZoKTj//AvYu3cv+152EZOTk2x1DW7bYUqj0UBnCiEElgTLMlS0LIs0TZFyUHz71+p0Skhs3ydRGpVmZFohNFiOTeC52BZ0uglxmtBtd1hcXuLZI0d5/MknePLxJ5ide46Tx2Ypl3zGx8eZmppibGIcx3FI4owwDHn08cfp9XpIy2Hr1q0GoH37uOSyS9m9ezcX7nsZlZJDmkGv10NrTRRFkGVUq1XSJDmjTAwBoW0XbIc0jomShPpoBduCxnqPAwcP8sBXv8oTTz3FI9/5DvOLi2yZmOCSyy7j0osvZuuWSS65cC87t02za88eRqojAKSZItPKYFJKDhw4yHe/+wjPPPMMR597lrm5OdZW10nTlCiK+Omf/mmue92Ps3//fs7fu4M41SyemqdcLmHnslWwU66SCiAyIelECUF1hCzLiKKI0dEq6+st/uRP/oSPfPjDZsOXXsprX/taXvnKVzIzM5MLHzgCPLFB6FQrtBZIKRCABuJEYTmSQRPSSzKOHH6Ww4cPc+LECb73ve/xd3/7BcbHx7n99tv5mTf+MywEnucR9UIQugCksB2ra+t6dW1dLzVaup1pvdjL9Kl2rOc7iT7RDPUHPvLftDs+re/4g/+hW1rrhW6q11KtO1rrU+1Yf+Oxp/VaqvXxlaZOtNaZTgem0olWOtFax1rrTpLoXpbpRGvdjFO91ov1PV+8T0da63BgPvidJ/Xr3/hmfen+H9UPPfqUXmp09eypJb281tbLjVYxV9daenVtXQ+xUztKEI6LSlPGJkb5h4cf4fq3vY0PfuADvOX667nrL/+SAwcP8vSTT/Lc7Czddpu333AD//2Pfh8bsNBYWqELVMscZxu4z7TGEoI0g+OnTvG6172OTqeD53lcfMkVXH755fzU63+S1//Ej/GWt97AysoKn/rrv0ZrTTnwc/7RQ+w0ZLGzNMa1JZ5jE4cJX7nvy3iOxbt/8RYOHniKOz/6+zz8rQdBZezcvo2d22e45qorsYH5hWXzMGEUgnmPsagSDWgEkMYJ3TAkjLrs2j7N9ulpxsfH2L9/P1EU8Y1vPMjNN9/M0nKbd7zjJo4efY6FhQWyLNvYqBYMYGoYiJGREbRKKfkBJ0/M8befv5cP/uZvIIDP/809lIMSlXJAu9liaXGe1nqTNInQGsq+z9n8nv6LlAbfcwl8nyAIALj00kuxbZvHH3+cubk5RkZGcF2XQ4cOcf1b38j09DR333031Wr19O0WY8BOKBzp0Gx2qHgBhw4e5NDBA7zlTW+i1ezyqmuuYd/uvVx06cWMVkYY3zKBazlMb9uCBCrlwFAA0CJXfVrmiDN/Z5lC2g7tVhvf97Ecm//0n38TgUWj1eLos3OsrKyxOL9AlmmUhre97W18/p7Pwe1D6MivDTWGfKcoTbBdB88NuON3PsS9n/8CTzz+KEmqSdIIKWx8z6bdCRFS47kBcRLSafeYGK9jkyEYkIkCCPNnkmTYjovSIAWsNBo4jkO5VGZ1vUW9VqXTg4ohEp2u4siRI1zzI1fx0EMPsWf3eQXCB9loiD6O41AOfFrNBv/w8EO89S1vQgCuLfBdB9+zSZIY33NwLIljgefY1Ear2AN6s5CJ3NPsa8UkSUArZH6v57gEno8UMFar0u0qtIK1RkxjPcFxJPv2XcC2bdt4+OGHB3Yqh7ZeXCkBtdERVhvrzJ04zuzsca6++kdIs5Sw18WRFhaAUni2hec4ZsNC4Do2vbBnsI4sJjpf8+n7PlJIMqVZb7awbeMjaaDT7lEpScoe1EdcxkYdXAdarTY/eu2P8dWvfrWQ5z5l1elAgKTRjqlPTHJyfoluL+Lyy19OliSUgxICBTrDdx3QGRKBQGMLCw24foA2SnZoKiw0wqhZaZEBUgpGRqp4novj2AigWglQYYZvAVnO7RrGxyu85jWv4bkTc8wvrxBUA7QQJFoRpwlanuaKayHRAhYXVqnV6nheYFxpDQiGLK1GIbQBYJCaZxpn+3xwSA1aZICFUAqZK+ZUwdjYGL1ej27YI9Og0GipEHkYOQyENls6cuQIMzMzVCoVLEujVc7b4ty7OWsI+QKGgCFPVWsQApSCHTt20Ol0aDQaZJmJWRAb9w8JttYareHw4cNs374d37ORUppAJ01f4G6MUXvRK3oIiL5tU0ozMzNDFEWsrKwYADCyeFYgsgxOnDjB5ORkcbNSL4wKAo3QCqFfytqXg2FghBDUajWklKytrSGEGJpZlm1mpyTJaDablMvl4iGACRNfwDDYVS96NRswm5LSRkjIFEgJliUpl8u0220sywRKCIVQkCbpZjue5vGuVfjuBUpeEBD/R0NrsixDSPO6LDNAxHHC6OgoYRhiWRtRX3+/Z2CnrLghU/39/18AgL5MbmgHlVMiiiJKpZKJ03OB7u9JKTXMTlJKgsBDKZNtsCSEYUjJCwAFQqCyjDRNSbMMIRws28ZyLISAsBciheHp/hQD/J0mSSGQQm525pTK8HyfTjtE2BZa2LTbCbVahTiOcV0XBXS7XTQZge3iuu6ZM4Ce55nYlmEqpEmCbdu4nodrwCZT0AsTVBIzUi0bYLUkT4WQZSkogRYK2/ZAKFSqSbMEWzoIi8LH6rOw67rYXh5Bpy5aQ7vdxnGcXPUKQBRU2wSE1sYlb7fbxlGTMlfaYOeuxuC9UkLgO+A7JKlCSI3QGiQIBMKyEVKghSZNFXEakSUKaQuE4yC0iTHiOKRarpClKVJubMuyoNNJWVlZKdz3PhD96zNSYnx8nEajkfOkRGvN6VKhtUYpjdKaLP/WsTdYRGmB0qASjVJG6fuejWsHJJZJHIhcd0hXYinDrnEcY1kC6ZgvlTKZj1arRaVSyREn0Wi0OgMl+oI1MTHB6uqK0cGORGcaMQCGyjKSNAVsLNvGsXIhK/BjtIvRJBsepwai2CTUhDDBv+sIhAAv8EAbVS6lhc5dHSmNBrJtm2q1OgxEroTOSonjs0dRSiGFg9IpIGi3WkgpsSwLaVm5PheFNxmnxsMUOgdoaNX4rsB2JY4b9N0xeimksUJnEWPVAMd1C4SAiTuSJKFUKhVA9NlJaX1mILTWjIyM0Gq1ChPfF6ByuTykVVqtLkvLyyyurNJstXn6mcOkKiMOE7phh7Ab0Q07xGFCqhK2b9tBfbzGzPR2JraMM1YbZ2yizpaJGo4MWF5epVou4fk+aaqxHEGmYG1tjSRJCIJgiBKKM8qECWBc3yOMU8PTgBI2GoEWksOHn+Pb3/4233z4IQ5+/xlWG+torZG2S5ikaCmxEGgpsIVES4GFQAk48PQzZGjiXshac50kjBip1zh/9x527tjOv33nz7N92zQjtk8Yp5Qch04vZXl1pdBOIo8/hDb5XwHYfSwbQVFkWcbOnTtpNFs4gcf8aofaSJnDR05x5x/+AQ/8/dewHBshLCrlEezyOEIIOp0OpUoVnUdyfbbqr1JAqjRaCBwvYHJLUHy/sLTCwtIK3/z2v2fXjh3883/5L/i5m65noREyXvNxfY/6+BiT42PESQhKk4ShkR9OcwDHxyq4rk0QBBw7dIgjR08wPlbm6LFT/Oyb3sITTx/C9su4wShYHt04Jc0kGQ7SKaGxQNto7Be9amwybI6eOMnv/t7v8e5f+lXGaj7NnuLLX/4yu3efx9TUFK7r0l5fp1QqUS6ZPNQQEM8eO46UgiiK2HreedTrdbohbNmyBSEEq6ur1Go1hBA4uc3QOiPLMqPDtQ3aeWkTC8uyGBsbY3x8nNnZWdqhphpIdu7cSafT4dSpU2itqVQqzM3Nsbi4SBAEw0AIIfjQh36b973vfSRJguu6lHzwfYvzz99DqVSiUqkQhiFSmpjZdd3cYXRynNgvbWqJEBYnT57Esize+c534vuCpbUujuMwOzvLrbfeyp/+6Z9Sr1XZu3cvpVKJpaWlYSDe+9738tnPfpZf+ZVf4b777gMgSsBz4O1vfzudToder1fEGEopSqUSlmURhqEBYjCafzETiW3b+L7PsWPHuOqqq7CByXqJm276V9x///1s27aNj370o3zot3+XbreLEIIwDBErq40iF7v7ggv48n1f4cpXXsbKWpfjJ07xrW99i/PO28Wll17KT77hjbiuS6U6ShzHpGnG9PQ0zXaXdrtLyasMpRfPpL7POkRGJkLqY1V27tzOH/3h7/E/P/YXVKtVrnz5FVx60V4E8Obr30bVD/j4xz9Or9vGsqxhFTs2Nsadd95Jrxdx9OhRnjl0GCklv3zbbbzq1ddy3XXXcf/991OujBhdLRW9OCLLMlzXxXi65yr1nisIV3S7XeaOP8vtt/8qUQwf/vCHqdfrtNZWmZgY48pX7ueZZ57hX9/0czi2IMxlc+iNf/7nf45lWXQ6HZIk4etf/zqf+tSn+NjHPka1JLjxxhtNwbDXKwqDvV6PKIqoVssgUhAx8FLWFCE0QRBw7TUv50tfuo9arcb999/Pe97zHprNJkoprrvuOm644QZWVtdRStFsNrH7rrYQgv3797P/yqv49Kc/y6//+q/zildcxP33f4MwDPnifd/gta95DUoper0e5XIZpRTVapXEzXA9m9Z6hJC6cMUFFiaxb1bLdoyL3s8ODq2mUnvrL/4HAD75yU8ShiH1eoV9+/ZRq9W47bbbmNk+DUlqNKRtnNNNQVEYxQCUSiWiyDhkQRDw4IMP8jNveA3XX389f/fFL3P06FHavR4TExNIYWM7kqi3UWceRE7BTOeSCSCoVNm9ezfH5xssLCyY2EVClmU8/fTTZ/2/TV6syq12tVolTY2XWC2VeeArX2Xxl27jjg+9l3e+61Ysy0IpjW3bRElGnPQo+bIogAxufjAePtdIleb8XVu5+9N/y8mTJxmtVghTEyRNTU0VexSnIWQIiDRNcV2XKIpwXRfHMeVXx3E4deoUX//613nrW3+K6ekavme80CQzLneqh5PKMOCW959/ThCMlVnvaB555BG2bdvGaLUCUISmhYuUe6/90GEIiCRJGBndCE0Dj8L3Hxsb44//+I/5sz/7M7q9iFarhet6dDod/FKFKO7huwJQZ2Sl/kvPNdq9kLGxMdbWVrAsi8bqCkIYrdkfWmsTUsLZw9M+MIPlJSkl4+PjeEGFkydPUh+bKKKsweHYgRHsgY0Prs8HxJbqCFprduzYQRzHHD70DGGYFomzM/3/JkrYtk2nY/ottNakyvCj7/skSUIYryOlNE0mSrG+3kRrjeM4JohXCp1tAKAHVng+mVA4nmR9fZVOR1KtVqnVaoDZw2Bsc7pMbCqytNvtAnO9nsLzPDzPY21tDc9z2Lp1C421JXrdNlKlTNZHKXmSqLsOOgWdGqdQ63yK4jqNI9IkRMUhKu7mMyRNQtIk5vjsbOFYxrHRkp1OB9u2ybJsSCb662aZCCPKQQnbtqlUKlTLkuXlZXpxRLU2Sq/TwhKK2375PfzEj7+ObVNbyVRCOXA5eOgHLK82+OZDD/Pxv7ob2y+jpI3QCt+1saRmJChx803v4PWvezU7t29DWEYxNJodjp9c4O7PfIa/+Mu/YuvWLQVSS6USWmuq1aqJWUol0p5pVNEqxfO8zTLRd+76Sd0+tEIIojjil//jr/GTP34dttR4jkBoFyngsosuQAGvuPIKnKDE33/jQU4uraGEKf6eODHLfffew0V7d2GpiF5nFdvxcP2AyXqZkfoePnDh+4gzxaOPfpdWqzXUmNLpdDZpp0IMBgHQWiOkIEkSLMsUUPryASaBdcUVV+B7EIUZmWUbW6wVURKTKigFPhMTEywtLRFFGX65hCMtoiiiUqkgJejMuBe246HzNpM4TjcCsmPHjC+mMmzbwnEc0jQtPOfTBXyTtyby3E8/C97/p34gtL6+Ti8E37eJotjE11LS7XYN3wKNRiOXIY8sy0zBkX6yWhcZE601nW6HKDZIa7QMewCMjo5i2zZJYvqkjHFVmwARQpwZiCiKCgEbFKgwDNFa4+WGbiOOgLH6GL7vI3LApZQ4jlMA4XkeQRDg2IZdkyQhyXOznuvgWoJa1WZsbIxyuYzjOIRhSLfbLTTkIACDyedNQEgpN1GiX2QJw9CEgwLWm10812Co3Tatc61Wa4hn+5/3/a84jkkzg5gsy4ogSAPdKEEDy8vLRFFEGIYFAi3LKijd388g0s9IiX6r26BMCCGo1+ssLy8XFALwfYOlTGWM1WvFd+VyubAhfX/MdU3zVxAEBVLiODbqN7chzWaTSqWC53n4vm/SNEIQNZuFb3d6CWBTfaK/iUHt1B+WZfHoo4+iNIzWqzRbXVYa60U9GmB5rcGRI0eK1GN/w5Zl8cADD7CwuGKADwJc16TmLSEolwPW2xknT54kSRK63W7BqqOjo4xMTg6x0aBMbPKd/FIetwqB1uazfvHxggsu4M477+RrX/l7tkyNoeKYLEuoVcrMHp/DC8ocnp3l2dkFLrzsClphSrfbJfB9ulLywQ9+kK/ddzWBrWmur2HZLrbrYXk+iRbMnlzhyQPf58IL9xlA2i263S6JMEqh1WoxOlIh6hjZVFlCr9c7k51gqFo0SImnnnqK3/rQb/Hmn/1ZsiTCcx2EykBnKDTdMCbSmo/81z/igf/1TaRXRgpJu20aUv7LR36Ha6/aT8WTpEmE55dIlSbREKaKTPjc/hsf4KGHvlkUekZGRhBZWmiz/m7Oyk6mIrmRhTZ15A2Z6HQ6XHTRRbiu0VSuI/E8B9/3sW0bx3GYqNeYmppiZWWlUMtCCHq9HhdeeCEj1VKhbfqq0xIm/RMEUK/X0VpTq9WMCu50UEoV2sk4sfrcKlZKw0IbybENi90HJAxhfHyUdiek2w0LlVoplwAjuK7r0ul0jKvu+zSbTXzfZOy63S7dbrcIdfudyGHPuBr9GD9JEnzfx/O8ApgsG9ZOcAZX3FQrY0ZHR4FhSoyOjlIulws7IaXEtvLaHBClGdhWwY6WZaHFsF0oXmybQn+pVEIhUQISNey2F3YgN46DKlYIUzE5s4qFTXaiIJuUxnUQcPLUEgCua9PtdllvrptiOSaQSpKEcrlMEAS0222CICjUstaadrtNu90usA4QuBRpStu2TegbmZRQvV7fZOzOSInBWNi27cL69ikRhiGPPPIIe3e+kW3Tk0XYWSqVCIAqEGOMXr1ep9frkaisqHnMzs6yY2qCcrlMKfAQ0i58p36k0Ww2i7wvmJqIbVuF7zQEgDhHzS7LktPams3Nu/bu5Xfu+DBPPXmAV/3o1WyZGKccBIyOVjl27BiPfu8JHn3iCb717e8ysXWG+eVVlBaMjlTpNhv8/C3v4pab3sE1V76CbdNbGRsfp9vtMb+4zMmFZT7zN/fyyGOPs3vPeXQ6LZYXFk2xJ/BzzZShdY5UqenrpeGUjWPTiRKarQYibxzZsmULURShtaYXxrilCvfc+0U+8cnPkuVsIIWNZVlUa0aObG+EtUYHz/ZQSOJejO2UcALFXZ/9O+7+9BeKVgitRN5KJChXRihX6iwvNxmfqNHsHKVaLROFXbbNTNHrtZESPN8Z8L2G0pgKKU2YGUURQckjTKBU9hkbqxvfRYHleFRGalRGx8gyTaZVntEWz9t5UJow2YvTI7T+9cLCElu2TOB7DseOzXHeeeeZXKstaXaaOUsog2BxFkpAvyHEyuUApqenWV5eZvv2HSwureCXJK5rOillqpAZ+WERa5PqO32EeYvd2QC54IK9dHttkiRi587tzJ+aMz5bbbRQ+aePTTJhrLUu3GDPhj179rBw8hT79u2jWinhuC62hCROTMJAg++B7TmsrbUwGUB5xtX3S4DpIR9c+xhtt9aJ4xghFaN2mb27duM4FhLotXu5OhWYvKfMqXEaJXzHFEy63W6hnbZMjPDqV786t8ASnSkSFZJkiizO0FKgEkliybz81C/ubl5NPkvnqZ6Ntd/iUCqVmNk2xfr6Gt/59kPc+Qe/j8oyenE6oOotEAIhFKA32wnbtoqgKAgCepE5OXX7r/0qrmVTLZXwfAfftamWS4yP1Zis16hWSri2RJJh2qrPvLq2wLYlniNxHKtYXVvgOJI07nHkB8+wsrTANddcxWtffS2+a4zcSKWKNP2gm/JZQ5To9UIs12Hb1mnSOEFITZLBta/6EW668Qbuuusu2p0enXabND/3Y1kmeovy6O30qungKhGmBqP00Nov1ru2Q5yEXH311dx++/vZsdVk/pI4LgIu08zSd1AzhJDDQLRaLaq1Ufbt20ej0cB3LMIko9UK+Xf/5hbe/OY3c+rUKY7PzrHeauNYNq7vobUmHvC3zjYG4w7YLNyNRoNLLr+MKy67CC/f2cLiGkka0W53NrCvhm3YEBClUokkSahWKxw5cgQAS0jTBw5MTY4yNTnKKy+/0IijHm4X7XefvtTRlx6lzcyUZnysxqOPPkqn1eaKK15uWvv8gCzVeIG/WSb6ce+WLVtYXFyk24txcn7Vari52cobDy1tZv87AVgvcSV/ZjFzjPSTZkEQYFk2WlOEvFmWnTlRsGvXLmZnZ2k1GlgYckkx/PCN5mkz+0D1AXkpq8ybjixhqGwhkBqWF5YZr41TH6nj2YZl+57xph7AfoplZmaG1dVV1tfXN4ATeftP/yUif3H+mRQbbaXwEledIcjMtdBIaWTg+PHjTE1NMTo6ipR2oW7TRJGm8TAQrusSxzG16ggWgub6Gkpp0igx2O5vtk8VcVohRRifVPLiV2P8zNEFmffXylxzzT53jG1bpwl8t6DCoIM6fIA27zJzXZfR0dGiI7gfBxQyfLr0CoxPo/tux4tf+8Do/AgPbFB/bm6OqakpbNtEnUoZTWc7ecPk4F76cYRlWdRqNRYXF4s4ePNQoAdnX2bUS5pg+kQMMAyssLS0RL0+XmRf+kkEY6esYSDiOMF3PISQlIMy6+stpADbdoiiZBgGsXkWBMq7K1/MaqgsQVucfsij3W5TKvloZRCt8+yHLa1hIKSW6AzWVprs3L6dsl+ludoyh1FyQDSQZv20iTnM0e50CaMwp402DYyIM65xmpn/F7mECYtMQRgndLoxQvvEkXn2eqOTc0dGu9mgWg7oNHuUA5+S7xP1IrI4Q6WnebGu5RKRkEYwOTnJwsISQkCSaNz8sKtlCZIko9FoYDuSeq0OKNrdDq6bn4MjO+PqOm7xLqW1EWRh4XtGbXa7MUmSorVkbMwc+5yfn6fZbDIzM8PgKXiZs4PUp1lsyzK1gDiO2LVrF4899ph5oVKARbPZpVQq4TgWk5PjAERxlB9uqvJ8IzJoLrqXLTksa6WSC7i0WiGtVkoQ+ERRhG3bRfblTGOTxe63We/atYsf/OAZssx4t0qZfFK326XV6tCvxPbPqb6Q4bkenusVPpQ5qB4RxRFxnDI3d4okgWrV9FG126ZRK8sytm3b9sKASJIIz7OQUrJjhzF4y8sNbBuiKOXw4cMmlq6WEQKiKDan3KVDp9MjSpNzzr7yTJUiTlOSLEMBluNguzY7dpgocnXVlLqq1TLLy8sEQUC9Xj8rEGc8jqNUyszMDJ7ncfjwYaa2XkmamqYQk1Ix4aJRxxIhTP7p3MEpNNbNuTrXdYuKUJy72XGcMlIeYW1tjbGxsaK74dlnn+WSSy6h2+3mpx6fBwjHtQijkDgJmdo6ybaZrTx94El+7NorkVIyPW3Ou33/+wcolUrs2LFjoF2oR/Y8Pmy/6tNPcyqlCMMwT42GqERxxRUv5+KLL0BrWFlZ5wtf+ALXXHNN3k/1vJRQOI5Hu90hjmPq9TqTk5PMzc2ZG22bctnlDW+4jte//jrm5o5z/PhxFhcXWVxcZHV1lThLOdf5U9OFYELKPotMTU2xb98+RkZq7JzZanaijLxZlsWBAwe4+eabqVQqQ2nQwTF0bNPzAhqNBkEQ4Hked999N+9+97tZW2sQBAbeMMyKhhHfz38FQkO73cP2XISUWJYoDr5keXlLKWW6+8ljhWwjq21ZRjizxLC0SYG63HXXp7npxhs5fOQIpVKpSEifPoYE+9SpU0xNTRY5pP3792PbNu9///sB6HRiHMdiZCTA943G6iOnXA1wXQvHFqaRN9XEcZb7YlYBABifyLFFUQdeZ10AAALxSURBVFrrdiOa7R6Z1oRhSLnsMjc3zz333MMv3Hor09PT51SxQ5SoVCp0u13W1tYYHx/HdX3uuOMOPvGJTzA+Ps673vULnH/++Vx26RVMTdUK0icJZGh6URfyg0v9KeUGVeJ4o7djw1ZsxBONtTaPP/YYX/rSl/jc5z5HkiR85jOf4WUvexndbveslBgColwus7i4yPj4eJ5AE7iu5Ctf+Rr33nsvd9/916aiqQSVSoWZmRn27dvH+efvY3LrJLWxUaRjFf0gfcexn81ut9sFu6ytrXHs2DEOHjzIoUOHWJpfoNfpEXge+/bt48Ybb+SWW25hdLTEiROLxWmz5wVi7vgx6vU6Y2Njpg1BiZyMJrXSbHY4fvw43z/wDEeOHOHkyXnm5+eZn19kdX2VOI2I0sj8FEwcFxVRQxFTFujXFsrlMlu3bmXPnj3s3r2bLeMTTE1u4eILL2TPnl00m+2i13B0tMT8/MoLo4TjWsUpKtu2URmcPHkS1/VNw2KStyZkhh08L8DzjGAqAYvLTVKdFrFvX6AHq7J916ZfOe27/haCJIrpttt4nldosiBwePbZOWZmZuj1emcEYshOmIJHRJaZbNzC/BKO47Blyzjdrulxsm0by3XyYzIR6+ux2axQYAtsz8IvGTsweOTz9LN7p59cFAjSTsrU1BTLy8vMz8/nRZp63sInOQsMp52Mj3vUajWWl5cplUq0W13q9TpJkg2UwAQq62cbNspRWBCnEanO0Kki1VlRXeqXtvqs1A8t+1FjH8h6dYSoa3Y6MVFjYWGFxcVFLrjgApRSRQ/UOYF4YeNcHchgDpLI4ncJhr7p1yTExr2Dz7U0xe8anGkMtvSdtVXohY1z/CKE3rjHpC437jVpTHXaEzaAMjkmmR8iOfNq7h3+fNN57B/WOL3nffDHSAbB0H2qavJ8R/9osswT/sNrkiZoqZF5j4eF2Hxs84exeXEO5jy3lysLoBQiT+YMr15QQguNMGRFaHMI8X8Db2jX0k5q4CkAAAAASUVORK5CYII=;rotation=120;" vertex="1" parent="1">
          <mxGeometry x="1700" y="220" width="49" height="107" as="geometry" />
        </mxCell>
        <mxCell id="ZeBQX1oqdIYX9gZX3-Ay-81" value="" style="endArrow=classic;html=1;rounded=0;exitX=0;exitY=0.5;exitDx=0;exitDy=0;entryX=1;entryY=0.5;entryDx=0;entryDy=0;fillColor=#fff2cc;strokeColor=#d6b656;strokeWidth=2;dashed=1;endSize=6;" edge="1" parent="1" source="ZeBQX1oqdIYX9gZX3-Ay-228" target="ZeBQX1oqdIYX9gZX3-Ay-66">
          <mxGeometry width="50" height="50" relative="1" as="geometry">
            <mxPoint x="2140" y="557" as="sourcePoint" />
            <mxPoint x="1390" y="640" as="targetPoint" />
          </mxGeometry>
        </mxCell>
        <mxCell id="ZeBQX1oqdIYX9gZX3-Ay-82" value="" style="endArrow=classic;html=1;rounded=0;exitX=0.75;exitY=1;exitDx=0;exitDy=0;entryX=0;entryY=0;entryDx=0;entryDy=0;dashed=1;fillColor=#fff2cc;strokeColor=#d6b656;strokeWidth=2;endSize=6;" edge="1" parent="1" source="ZeBQX1oqdIYX9gZX3-Ay-71" target="ZeBQX1oqdIYX9gZX3-Ay-51">
          <mxGeometry width="50" height="50" relative="1" as="geometry">
            <mxPoint x="1550.5" y="700" as="sourcePoint" />
            <mxPoint x="1432.2132034355418" y="642.2132034355423" as="targetPoint" />
          </mxGeometry>
        </mxCell>
        <mxCell id="ZeBQX1oqdIYX9gZX3-Ay-83" value="" style="endArrow=classic;html=1;rounded=0;dashed=1;fillColor=#fff2cc;strokeColor=#d6b656;strokeWidth=2;endSize=6;exitX=0.064;exitY=0.028;exitDx=0;exitDy=0;exitPerimeter=0;" edge="1" parent="1" source="ZeBQX1oqdIYX9gZX3-Ay-71">
          <mxGeometry width="50" height="50" relative="1" as="geometry">
            <mxPoint x="1520" y="810" as="sourcePoint" />
            <mxPoint x="1370" y="370" as="targetPoint" />
          </mxGeometry>
        </mxCell>
        <mxCell id="ZeBQX1oqdIYX9gZX3-Ay-89" value="&lt;b&gt;ETEINT : prise extérieure non nominative, pas de transaction de token poossible&lt;/b&gt;" style="text;html=1;align=center;verticalAlign=middle;whiteSpace=wrap;rounded=0;shadow=0;glass=0;sketch=0;fillColor=#EBEBEB;" vertex="1" parent="1">
          <mxGeometry x="1398" y="200" width="160" height="67" as="geometry" />
        </mxCell>
        <mxCell id="ZeBQX1oqdIYX9gZX3-Ay-90" value="" style="endArrow=classic;html=1;rounded=0;dashed=1;fontSize=14;exitX=0.5;exitY=1;exitDx=0;exitDy=0;entryX=1;entryY=0;entryDx=0;entryDy=0;fillColor=#fff2cc;strokeColor=#d6b656;strokeWidth=2;endSize=6;" edge="1" parent="1" source="ZeBQX1oqdIYX9gZX3-Ay-89" target="ZeBQX1oqdIYX9gZX3-Ay-46">
          <mxGeometry width="50" height="50" relative="1" as="geometry">
            <mxPoint x="860" y="610" as="sourcePoint" />
            <mxPoint x="910" y="560" as="targetPoint" />
          </mxGeometry>
        </mxCell>
        <mxCell id="ZeBQX1oqdIYX9gZX3-Ay-103" value="prise 10A" style="whiteSpace=wrap;html=1;aspect=fixed;sketch=1;" vertex="1" parent="1">
          <mxGeometry x="1626" y="387" width="50" height="50" as="geometry" />
        </mxCell>
        <mxCell id="ZeBQX1oqdIYX9gZX3-Ay-104" value="" style="group" vertex="1" connectable="0" parent="1">
          <mxGeometry x="1586" y="307" width="120" height="80" as="geometry" />
        </mxCell>
        <mxCell id="ZeBQX1oqdIYX9gZX3-Ay-105" value="" style="shape=hexagon;perimeter=hexagonPerimeter2;whiteSpace=wrap;html=1;fixedSize=1;rounded=1;shadow=1;glass=0;sketch=0;fillColor=#e1d5e7;strokeColor=#9673a6;" vertex="1" parent="ZeBQX1oqdIYX9gZX3-Ay-104">
          <mxGeometry width="120" height="80" as="geometry" />
        </mxCell>
        <mxCell id="ZeBQX1oqdIYX9gZX3-Ay-106" value="" style="group" vertex="1" connectable="0" parent="ZeBQX1oqdIYX9gZX3-Ay-104">
          <mxGeometry x="46" y="29.5" width="45" height="41.5" as="geometry" />
        </mxCell>
        <mxCell id="ZeBQX1oqdIYX9gZX3-Ay-107" value="" style="group" vertex="1" connectable="0" parent="ZeBQX1oqdIYX9gZX3-Ay-106">
          <mxGeometry x="-15" y="-18.5" width="60" height="60" as="geometry" />
        </mxCell>
        <mxCell id="ZeBQX1oqdIYX9gZX3-Ay-108" value="" style="ellipse;whiteSpace=wrap;html=1;aspect=fixed;rounded=1;shadow=0;glass=0;sketch=0;fillColor=#f8cecc;strokeColor=#b85450;" vertex="1" parent="ZeBQX1oqdIYX9gZX3-Ay-107">
          <mxGeometry width="60" height="60" as="geometry" />
        </mxCell>
        <mxCell id="ZeBQX1oqdIYX9gZX3-Ay-109" value="" style="ellipse;whiteSpace=wrap;html=1;aspect=fixed;rounded=1;shadow=0;glass=0;sketch=0;fillColor=#B3B3B3;gradientColor=#ffffff;gradientDirection=west;" vertex="1" parent="ZeBQX1oqdIYX9gZX3-Ay-107">
          <mxGeometry x="5" y="5" width="50" height="50" as="geometry" />
        </mxCell>
        <mxCell id="ZeBQX1oqdIYX9gZX3-Ay-110" value="" style="ellipse;whiteSpace=wrap;html=1;aspect=fixed;rounded=1;shadow=0;glass=0;sketch=0;fillColor=#000000;" vertex="1" parent="ZeBQX1oqdIYX9gZX3-Ay-106">
          <mxGeometry x="2" y="1" width="8" height="8" as="geometry" />
        </mxCell>
        <mxCell id="ZeBQX1oqdIYX9gZX3-Ay-111" value="" style="ellipse;whiteSpace=wrap;html=1;aspect=fixed;rounded=1;shadow=0;glass=0;sketch=0;fillColor=#000000;" vertex="1" parent="ZeBQX1oqdIYX9gZX3-Ay-106">
          <mxGeometry x="20" y="1" width="8" height="8" as="geometry" />
        </mxCell>
        <mxCell id="ZeBQX1oqdIYX9gZX3-Ay-112" value="" style="ellipse;whiteSpace=wrap;html=1;aspect=fixed;rounded=1;shadow=1;glass=0;sketch=0;fillColor=#FFD966;strokeColor=none;" vertex="1" parent="ZeBQX1oqdIYX9gZX3-Ay-106">
          <mxGeometry x="11" y="14" width="7" height="7" as="geometry" />
        </mxCell>
        <mxCell id="ZeBQX1oqdIYX9gZX3-Ay-113" value="" style="ellipse;whiteSpace=wrap;html=1;aspect=fixed;rounded=1;shadow=0;glass=0;sketch=0;strokeColor=#999999;fillColor=none;gradientColor=none;gradientDirection=west;strokeWidth=1;" vertex="1" parent="ZeBQX1oqdIYX9gZX3-Ay-104">
          <mxGeometry x="98" y="30" width="20" height="20" as="geometry" />
        </mxCell>
        <mxCell id="ZeBQX1oqdIYX9gZX3-Ay-114" value="" style="endArrow=none;html=1;rounded=0;exitX=0.5;exitY=1;exitDx=0;exitDy=0;strokeWidth=4;strokeColor=#26B0FF;" edge="1" parent="1">
          <mxGeometry width="50" height="50" relative="1" as="geometry">
            <mxPoint x="1656" y="443" as="sourcePoint" />
            <mxPoint x="1656" y="484" as="targetPoint" />
          </mxGeometry>
        </mxCell>
        <mxCell id="ZeBQX1oqdIYX9gZX3-Ay-115" value="" style="endArrow=classic;html=1;rounded=0;dashed=1;fontSize=14;exitX=0.5;exitY=1;exitDx=0;exitDy=0;entryX=0.5;entryY=0;entryDx=0;entryDy=0;fillColor=#fff2cc;strokeColor=#d6b656;strokeWidth=2;endSize=6;" edge="1" parent="1" source="ZeBQX1oqdIYX9gZX3-Ay-89" target="ZeBQX1oqdIYX9gZX3-Ay-113">
          <mxGeometry width="50" height="50" relative="1" as="geometry">
            <mxPoint x="860" y="610" as="sourcePoint" />
            <mxPoint x="910" y="560" as="targetPoint" />
          </mxGeometry>
        </mxCell>
        <mxCell id="ZeBQX1oqdIYX9gZX3-Ay-117" value="" style="endArrow=classic;html=1;rounded=0;exitX=0;exitY=0;exitDx=0;exitDy=0;fillColor=#fff2cc;strokeColor=#d6b656;strokeWidth=2;dashed=1;endSize=6;" edge="1" parent="1" source="ZeBQX1oqdIYX9gZX3-Ay-67">
          <mxGeometry width="50" height="50" relative="1" as="geometry">
            <mxPoint x="1780" y="375" as="sourcePoint" />
            <mxPoint x="1670" y="370" as="targetPoint" />
          </mxGeometry>
        </mxCell>
        <mxCell id="ZeBQX1oqdIYX9gZX3-Ay-120" value="" style="endArrow=none;html=1;rounded=0;fontSize=14;endSize=6;strokeWidth=4;fillColor=#d5e8d4;strokeColor=#82b366;" edge="1" parent="1">
          <mxGeometry width="50" height="50" relative="1" as="geometry">
            <mxPoint x="910" y="440" as="sourcePoint" />
            <mxPoint x="2480" y="440" as="targetPoint" />
          </mxGeometry>
        </mxCell>
        <mxCell id="ZeBQX1oqdIYX9gZX3-Ay-128" value="" style="shape=image;html=1;verticalAlign=top;verticalLabelPosition=bottom;labelBackgroundColor=#ffffff;imageAspect=0;aspect=fixed;image=https://cdn4.iconfinder.com/data/icons/essential-app-2/16/battery-reduce-energy-charge-128.png;rounded=1;shadow=0;glass=0;dashed=1;sketch=0;fontSize=14;strokeColor=default;strokeWidth=1;fillColor=#CCFFCC;gradientColor=none;gradientDirection=west;" vertex="1" parent="1">
          <mxGeometry x="1379" y="820.5" width="42" height="42" as="geometry" />
        </mxCell>
        <mxCell id="ZeBQX1oqdIYX9gZX3-Ay-131" value="" style="shape=image;html=1;verticalAlign=top;verticalLabelPosition=bottom;labelBackgroundColor=#ffffff;imageAspect=0;aspect=fixed;image=https://cdn2.iconfinder.com/data/icons/interface-navigation/64/NAVIGATION_expand-11-128.png;rounded=1;shadow=0;glass=0;dashed=1;sketch=0;fontSize=14;strokeColor=default;strokeWidth=1;fillColor=#CCFFCC;gradientColor=none;gradientDirection=west;" vertex="1" parent="1">
          <mxGeometry x="1666.25" y="662.5" width="67.5" height="67.5" as="geometry" />
        </mxCell>
        <mxCell id="ZeBQX1oqdIYX9gZX3-Ay-132" value="" style="shape=image;html=1;verticalAlign=top;verticalLabelPosition=bottom;labelBackgroundColor=#ffffff;imageAspect=0;aspect=fixed;image=https://cdn2.iconfinder.com/data/icons/interface-navigation/64/NAVIGATION_expand-11-128.png;rounded=1;shadow=0;glass=0;dashed=1;sketch=0;fontSize=14;strokeColor=default;strokeWidth=1;fillColor=#CCFFCC;gradientColor=none;gradientDirection=west;" vertex="1" parent="1">
          <mxGeometry x="1367.25" y="650" width="67.5" height="67.5" as="geometry" />
        </mxCell>
        <mxCell id="ZeBQX1oqdIYX9gZX3-Ay-133" value="" style="shape=image;html=1;verticalAlign=top;verticalLabelPosition=bottom;labelBackgroundColor=#ffffff;imageAspect=0;aspect=fixed;image=https://cdn4.iconfinder.com/data/icons/essential-app-2/16/battery-half-energy-charge-128.png;rounded=1;shadow=0;glass=0;dashed=1;sketch=0;fontSize=13;fontColor=#25A10C;strokeColor=default;strokeWidth=1;fillColor=#EBEBEB;gradientColor=none;gradientDirection=west;" vertex="1" parent="1">
          <mxGeometry x="1678" y="836" width="44" height="44" as="geometry" />
        </mxCell>
        <mxCell id="ZeBQX1oqdIYX9gZX3-Ay-134" value="" style="shape=image;html=1;verticalAlign=top;verticalLabelPosition=bottom;labelBackgroundColor=#ffffff;imageAspect=0;aspect=fixed;image=https://cdn2.iconfinder.com/data/icons/interface-navigation/64/NAVIGATION_expand-11-128.png;rounded=1;shadow=0;glass=0;dashed=1;sketch=0;fontSize=14;strokeColor=default;strokeWidth=1;fillColor=#CCFFCC;gradientColor=none;gradientDirection=west;rotation=120;" vertex="1" parent="1">
          <mxGeometry x="1220" y="267" width="67.5" height="67.5" as="geometry" />
        </mxCell>
        <mxCell id="ZeBQX1oqdIYX9gZX3-Ay-135" value="" style="shape=image;html=1;verticalAlign=top;verticalLabelPosition=bottom;labelBackgroundColor=#ffffff;imageAspect=0;aspect=fixed;image=https://cdn4.iconfinder.com/data/icons/essential-app-2/16/battery-low-energy-charge-128.png;rounded=1;shadow=0;glass=0;dashed=1;sketch=0;fontSize=13;fontColor=#25A10C;strokeColor=default;strokeWidth=1;fillColor=#EBEBEB;gradientColor=none;gradientDirection=west;rotation=-60;" vertex="1" parent="1">
          <mxGeometry x="1080" y="190" width="50" height="50" as="geometry" />
        </mxCell>
        <mxCell id="ZeBQX1oqdIYX9gZX3-Ay-136" value="" style="shape=image;html=1;verticalAlign=top;verticalLabelPosition=bottom;labelBackgroundColor=#ffffff;imageAspect=0;aspect=fixed;image=https://cdn2.iconfinder.com/data/icons/bitsies/128/Lightning-128.png;rounded=1;shadow=0;glass=0;dashed=1;sketch=0;fontSize=13;fontColor=#25A10C;strokeColor=default;strokeWidth=1;fillColor=#EBEBEB;gradientColor=none;gradientDirection=west;" vertex="1" parent="1">
          <mxGeometry x="1230" y="234" width="33" height="33" as="geometry" />
        </mxCell>
        <mxCell id="ZeBQX1oqdIYX9gZX3-Ay-138" value="" style="shape=image;html=1;verticalAlign=top;verticalLabelPosition=bottom;labelBackgroundColor=#ffffff;imageAspect=0;aspect=fixed;image=https://cdn2.iconfinder.com/data/icons/bitsies/128/Lightning-128.png;rounded=1;shadow=0;glass=0;dashed=1;sketch=0;fontSize=13;fontColor=#25A10C;strokeColor=default;strokeWidth=1;fillColor=#EBEBEB;gradientColor=none;gradientDirection=west;" vertex="1" parent="1">
          <mxGeometry x="1642" y="710" width="33" height="33" as="geometry" />
        </mxCell>
        <mxCell id="ZeBQX1oqdIYX9gZX3-Ay-137" value="" style="shape=image;html=1;verticalAlign=top;verticalLabelPosition=bottom;labelBackgroundColor=#ffffff;imageAspect=0;aspect=fixed;image=https://cdn2.iconfinder.com/data/icons/bitsies/128/Lightning-128.png;rounded=1;shadow=0;glass=0;dashed=1;sketch=0;fontSize=13;fontColor=#25A10C;strokeColor=default;strokeWidth=1;fillColor=#EBEBEB;gradientColor=none;gradientDirection=west;" vertex="1" parent="1">
          <mxGeometry x="1343" y="700" width="33" height="33" as="geometry" />
        </mxCell>
        <mxCell id="ZeBQX1oqdIYX9gZX3-Ay-140" value="" style="endArrow=none;html=1;rounded=0;strokeWidth=4;strokeColor=#26B0FF;entryX=0.5;entryY=0;entryDx=0;entryDy=0;" edge="1" parent="1">
          <mxGeometry width="50" height="50" relative="1" as="geometry">
            <mxPoint x="1350" y="484" as="sourcePoint" />
            <mxPoint x="1400" y="514" as="targetPoint" />
          </mxGeometry>
        </mxCell>
        <mxCell id="ZeBQX1oqdIYX9gZX3-Ay-141" value="" style="endArrow=none;html=1;rounded=0;strokeWidth=4;strokeColor=#26B0FF;entryX=0.5;entryY=0;entryDx=0;entryDy=0;" edge="1" parent="1">
          <mxGeometry width="50" height="50" relative="1" as="geometry">
            <mxPoint x="1656" y="486" as="sourcePoint" />
            <mxPoint x="1706" y="516" as="targetPoint" />
          </mxGeometry>
        </mxCell>
        <mxCell id="ZeBQX1oqdIYX9gZX3-Ay-142" value="" style="endArrow=none;html=1;rounded=0;strokeWidth=4;strokeColor=#26B0FF;entryX=0.5;entryY=0;entryDx=0;entryDy=0;" edge="1" parent="1">
          <mxGeometry width="50" height="50" relative="1" as="geometry">
            <mxPoint x="1953" y="485" as="sourcePoint" />
            <mxPoint x="2003" y="515" as="targetPoint" />
          </mxGeometry>
        </mxCell>
        <mxCell id="ZeBQX1oqdIYX9gZX3-Ay-143" value="&lt;font style=&quot;font-size: 16px&quot;&gt;Actor Pricinpal &lt;br&gt;Habitant Enregistré&lt;/font&gt;" style="shape=umlActor;verticalLabelPosition=bottom;verticalAlign=top;html=1;outlineConnect=0;rounded=1;shadow=0;glass=0;sketch=0;fontSize=13;fontColor=#000000;strokeColor=default;strokeWidth=1;fillColor=#EBEBEB;gradientColor=none;gradientDirection=west;labelBackgroundColor=none;fontStyle=1" vertex="1" parent="1">
          <mxGeometry x="1910" y="710" width="82.62" height="150.75" as="geometry" />
        </mxCell>
        <mxCell id="ZeBQX1oqdIYX9gZX3-Ay-145" value="Actor : Gardien" style="shape=umlActor;verticalLabelPosition=bottom;verticalAlign=top;html=1;outlineConnect=0;rounded=1;shadow=0;glass=0;sketch=0;fontSize=13;fontColor=#000000;strokeColor=default;strokeWidth=1;fillColor=#EBEBEB;gradientColor=none;gradientDirection=west;labelBackgroundColor=none;fontStyle=1" vertex="1" parent="1">
          <mxGeometry x="1975" y="190" width="30" height="60" as="geometry" />
        </mxCell>
        <mxCell id="ZeBQX1oqdIYX9gZX3-Ay-149" value="Actor : Syndic" style="shape=umlActor;verticalLabelPosition=bottom;verticalAlign=top;html=1;outlineConnect=0;rounded=1;shadow=0;glass=0;sketch=0;fontSize=13;fontColor=#000000;strokeColor=default;strokeWidth=1;fillColor=#EBEBEB;gradientColor=none;gradientDirection=west;labelBackgroundColor=none;fontStyle=1" vertex="1" parent="1">
          <mxGeometry x="1975" y="307" width="30" height="60" as="geometry" />
        </mxCell>
        <mxCell id="ZeBQX1oqdIYX9gZX3-Ay-160" value="&lt;b&gt;&lt;font style=&quot;font-size: 14px&quot;&gt;RADIO : LoRa ou Propriétaire&lt;/font&gt;&lt;/b&gt;&lt;br&gt;&lt;font color=&quot;#ff3333&quot; size=&quot;1&quot;&gt;&lt;b style=&quot;font-size: 14px&quot;&gt;Pas de CPL&lt;br&gt;pas de besoin de qualif de l&#39;installation electrique&lt;br&gt;pas de &quot;métier de l&#39;electricien&quot;&lt;br&gt;Posable et administrable par Gardien ou Syndic&lt;br&gt;&lt;/b&gt;&lt;/font&gt;" style="shape=image;html=1;verticalAlign=top;verticalLabelPosition=bottom;labelBackgroundColor=#ffffff;imageAspect=0;aspect=fixed;image=https://cdn4.iconfinder.com/data/icons/vecico-connectivity/288/radio-128.png;rounded=1;shadow=0;glass=0;sketch=0;fontSize=13;fontColor=#25A10C;strokeColor=default;strokeWidth=1;fillColor=#EBEBEB;gradientColor=none;gradientDirection=west;rotation=0;" vertex="1" parent="1">
          <mxGeometry x="1090" y="545" width="105" height="105" as="geometry" />
        </mxCell>
        <mxCell id="ZeBQX1oqdIYX9gZX3-Ay-161" value="" style="shape=image;html=1;verticalAlign=top;verticalLabelPosition=bottom;labelBackgroundColor=#ffffff;imageAspect=0;aspect=fixed;image=https://cdn4.iconfinder.com/data/icons/vecico-connectivity/288/radio-128.png;rounded=1;shadow=0;glass=0;sketch=0;fontSize=13;fontColor=#25A10C;strokeColor=default;strokeWidth=1;fillColor=#EBEBEB;gradientColor=none;gradientDirection=west;" vertex="1" parent="1">
          <mxGeometry x="1298" y="550" width="42" height="42" as="geometry" />
        </mxCell>
        <mxCell id="ZeBQX1oqdIYX9gZX3-Ay-162" value="" style="shape=image;html=1;verticalAlign=top;verticalLabelPosition=bottom;labelBackgroundColor=#ffffff;imageAspect=0;aspect=fixed;image=https://cdn4.iconfinder.com/data/icons/vecico-connectivity/288/radio-128.png;rounded=1;shadow=0;glass=0;sketch=0;fontSize=13;fontColor=#25A10C;strokeColor=default;strokeWidth=1;fillColor=#EBEBEB;gradientColor=none;gradientDirection=west;" vertex="1" parent="1">
          <mxGeometry x="1598.5" y="550" width="42" height="42" as="geometry" />
        </mxCell>
        <mxCell id="ZeBQX1oqdIYX9gZX3-Ay-163" value="" style="shape=image;html=1;verticalAlign=top;verticalLabelPosition=bottom;labelBackgroundColor=#ffffff;imageAspect=0;aspect=fixed;image=https://cdn4.iconfinder.com/data/icons/vecico-connectivity/288/radio-128.png;rounded=1;shadow=0;glass=0;sketch=0;fontSize=13;fontColor=#25A10C;strokeColor=default;strokeWidth=1;fillColor=#EBEBEB;gradientColor=none;gradientDirection=west;" vertex="1" parent="1">
          <mxGeometry x="1898" y="550" width="42" height="42" as="geometry" />
        </mxCell>
        <mxCell id="ZeBQX1oqdIYX9gZX3-Ay-168" value="" style="shape=image;html=1;verticalAlign=top;verticalLabelPosition=bottom;labelBackgroundColor=#ffffff;imageAspect=0;aspect=fixed;image=https://cdn4.iconfinder.com/data/icons/vecico-connectivity/288/radio-128.png;rounded=1;shadow=0;glass=0;sketch=0;fontSize=13;fontColor=#25A10C;strokeColor=default;strokeWidth=1;fillColor=#EBEBEB;gradientColor=none;gradientDirection=west;" vertex="1" parent="1">
          <mxGeometry x="1324" y="265" width="42" height="42" as="geometry" />
        </mxCell>
        <mxCell id="ZeBQX1oqdIYX9gZX3-Ay-169" value="" style="shape=image;html=1;verticalAlign=top;verticalLabelPosition=bottom;labelBackgroundColor=#ffffff;imageAspect=0;aspect=fixed;image=https://cdn4.iconfinder.com/data/icons/vecico-connectivity/288/radio-128.png;rounded=1;shadow=0;glass=0;sketch=0;fontSize=13;fontColor=#25A10C;strokeColor=default;strokeWidth=1;fillColor=#EBEBEB;gradientColor=none;gradientDirection=west;" vertex="1" parent="1">
          <mxGeometry x="1624.25" y="263" width="42" height="42" as="geometry" />
        </mxCell>
        <mxCell id="ZeBQX1oqdIYX9gZX3-Ay-170" value="&lt;ul&gt;&lt;li&gt;&lt;font color=&quot;#000000&quot;&gt;Individualisation de la Facturation&lt;/font&gt;&lt;/li&gt;&lt;li&gt;&lt;font color=&quot;#000000&quot;&gt;messagerie&lt;/font&gt;&lt;/li&gt;&lt;/ul&gt;" style="ellipse;shape=cloud;whiteSpace=wrap;html=1;rounded=1;shadow=0;glass=0;sketch=0;fontSize=14;fontColor=#FF3333;strokeColor=default;strokeWidth=1;fillColor=#EBEBEB;gradientColor=none;gradientDirection=west;align=center;" vertex="1" parent="1">
          <mxGeometry x="2125" y="304" width="375" height="114.5" as="geometry" />
        </mxCell>
        <mxCell id="ZeBQX1oqdIYX9gZX3-Ay-172" value="&lt;blockquote style=&quot;margin: 0 0 0 40px ; border: none ; padding: 0px&quot;&gt;&lt;blockquote style=&quot;margin: 0 0 0 40px ; border: none ; padding: 0px&quot;&gt;&lt;ul&gt;&lt;li&gt;&lt;span&gt;&lt;font color=&quot;#000000&quot;&gt;Enregistrement des Users&lt;/font&gt;&lt;/span&gt;&lt;/li&gt;&lt;li&gt;&lt;span&gt;&lt;font color=&quot;#000000&quot;&gt;Support L1&lt;/font&gt;&lt;/span&gt;&lt;/li&gt;&lt;li&gt;&lt;span&gt;&lt;font color=&quot;#000000&quot;&gt;Configuration&lt;/font&gt;&lt;/span&gt;&lt;/li&gt;&lt;/ul&gt;&lt;/blockquote&gt;&lt;/blockquote&gt;" style="ellipse;shape=cloud;whiteSpace=wrap;html=1;rounded=1;shadow=0;glass=0;sketch=0;fontSize=14;fontColor=#FF3333;strokeColor=default;strokeWidth=1;fillColor=#EBEBEB;gradientColor=none;gradientDirection=west;align=left;" vertex="1" parent="1">
          <mxGeometry x="2130" y="157.75" width="354.75" height="124.5" as="geometry" />
        </mxCell>
        <mxCell id="ZeBQX1oqdIYX9gZX3-Ay-173" value="&lt;blockquote style=&quot;margin: 0 0 0 40px ; border: none ; padding: 0px&quot;&gt;&lt;blockquote style=&quot;margin: 0 0 0 40px ; border: none ; padding: 0px&quot;&gt;&lt;ul&gt;&lt;li&gt;&lt;font color=&quot;#000000&quot;&gt;Statistiques User&lt;/font&gt;&lt;/li&gt;&lt;li&gt;&lt;font color=&quot;#000000&quot;&gt;Configuration (choix de slot)&lt;/font&gt;&lt;/li&gt;&lt;li&gt;&lt;font color=&quot;#000000&quot;&gt;Messagerie et requetes&lt;/font&gt;&lt;/li&gt;&lt;li&gt;&lt;font color=&quot;#000000&quot;&gt;paiement et vérif de la Facturation&lt;/font&gt;&lt;/li&gt;&lt;/ul&gt;&lt;/blockquote&gt;&lt;/blockquote&gt;" style="ellipse;shape=cloud;whiteSpace=wrap;html=1;rounded=1;shadow=0;glass=0;sketch=0;fontSize=14;fontColor=#FF3333;strokeColor=default;strokeWidth=1;fillColor=#EBEBEB;gradientColor=none;gradientDirection=west;align=left;" vertex="1" parent="1">
          <mxGeometry x="2130" y="794" width="390" height="124.5" as="geometry" />
        </mxCell>
        <mxCell id="ZeBQX1oqdIYX9gZX3-Ay-179" value="Actor : Visiteur" style="shape=umlActor;verticalLabelPosition=bottom;verticalAlign=top;html=1;outlineConnect=0;rounded=1;shadow=0;glass=0;sketch=0;fontSize=13;fontColor=#000000;strokeColor=default;strokeWidth=1;fillColor=#EBEBEB;gradientColor=none;gradientDirection=west;labelBackgroundColor=none;fontStyle=1" vertex="1" parent="1">
          <mxGeometry x="1238.75" y="147" width="30" height="60" as="geometry" />
        </mxCell>
        <mxCell id="ZeBQX1oqdIYX9gZX3-Ay-183" value="" style="endArrow=classic;html=1;rounded=0;fontSize=13;fontColor=#000000;endSize=6;strokeColor=#26B0FF;strokeWidth=1;exitX=1;exitY=0.3333333333333333;exitDx=0;exitDy=0;exitPerimeter=0;entryX=0.07;entryY=0.4;entryDx=0;entryDy=0;entryPerimeter=0;" edge="1" parent="1" source="ZeBQX1oqdIYX9gZX3-Ay-143" target="ZeBQX1oqdIYX9gZX3-Ay-173">
          <mxGeometry relative="1" as="geometry">
            <mxPoint x="840" y="410" as="sourcePoint" />
            <mxPoint x="1000" y="410" as="targetPoint" />
          </mxGeometry>
        </mxCell>
        <mxCell id="ZeBQX1oqdIYX9gZX3-Ay-185" value="" style="edgeLabel;resizable=0;html=1;align=left;verticalAlign=bottom;rounded=1;shadow=0;glass=0;labelBackgroundColor=none;sketch=0;fontSize=13;fontColor=#000000;strokeColor=default;strokeWidth=1;fillColor=#EBEBEB;gradientColor=none;gradientDirection=west;" connectable="0" vertex="1" parent="ZeBQX1oqdIYX9gZX3-Ay-183">
          <mxGeometry x="-1" relative="1" as="geometry" />
        </mxCell>
        <mxCell id="ZeBQX1oqdIYX9gZX3-Ay-186" value="Actions via WebApp" style="edgeLabel;html=1;align=center;verticalAlign=middle;resizable=0;points=[];fontSize=13;fontColor=#26B0FF;fontStyle=1" vertex="1" connectable="0" parent="ZeBQX1oqdIYX9gZX3-Ay-183">
          <mxGeometry x="-0.3044" y="-4" relative="1" as="geometry">
            <mxPoint x="136" y="10" as="offset" />
          </mxGeometry>
        </mxCell>
        <mxCell id="ZeBQX1oqdIYX9gZX3-Ay-144" value="" style="shape=image;html=1;verticalAlign=top;verticalLabelPosition=bottom;labelBackgroundColor=#ffffff;imageAspect=0;aspect=fixed;image=https://cdn4.iconfinder.com/data/icons/online-marketing-hand-drawn-vol-3/52/mobile__wifi__signals__device__tablet__connection__wireless-128.png;rounded=1;shadow=0;glass=0;sketch=0;fontSize=13;fontColor=#25A10C;strokeColor=default;strokeWidth=1;fillColor=#EBEBEB;gradientColor=none;gradientDirection=west;imageBackground=default;" vertex="1" parent="1">
          <mxGeometry x="2080" y="810.75" width="50" height="50" as="geometry" />
        </mxCell>
        <mxCell id="ZeBQX1oqdIYX9gZX3-Ay-194" value="&lt;blockquote style=&quot;margin: 0 0 0 40px ; border: none ; padding: 0px&quot;&gt;&lt;blockquote style=&quot;margin: 0 0 0 40px ; border: none ; padding: 0px&quot;&gt;&lt;ul&gt;&lt;li&gt;&lt;font color=&quot;#000000&quot;&gt;renoncer a son prochain slot&lt;/font&gt;&lt;/li&gt;&lt;li&gt;&lt;font color=&quot;#000000&quot;&gt;demander un token sur son prochain slot (il a droit au mardi, on est lundi il a besoin de recharger quand meme etc...)&lt;/font&gt;&lt;/li&gt;&lt;/ul&gt;&lt;/blockquote&gt;&lt;/blockquote&gt;" style="ellipse;shape=cloud;whiteSpace=wrap;html=1;rounded=1;shadow=0;glass=0;sketch=0;fontSize=14;fontColor=#FF3333;strokeColor=default;strokeWidth=1;fillColor=#EBEBEB;gradientColor=none;gradientDirection=west;align=left;" vertex="1" parent="1">
          <mxGeometry x="2002.62" y="621.5" width="407.38" height="148.5" as="geometry" />
        </mxCell>
        <mxCell id="ZeBQX1oqdIYX9gZX3-Ay-197" value="&lt;h1&gt;Une solution de partage temporel de puissance electrique des communs de co-propriétés pour la recharge des Vehicules Electriques&lt;/h1&gt;&lt;div&gt;&lt;ul&gt;&lt;li&gt;Pour la recharge de petits véhicules de roaming local (la voiture pour aller au taf et faire les courses)&lt;/li&gt;&lt;li&gt;ne nécéssitant pas une installation courants forts dédiées (10k-euros par borne, contre 200 euros par utilisateur pour cette solution de partage par token)&lt;/li&gt;&lt;li&gt;ne necessitant pas de métier de l&#39;electricien&lt;/li&gt;&lt;li&gt;utilisant de la radio à forte pénétration (LoRa ou mieux), et pas de CPL&lt;/li&gt;&lt;/ul&gt;&lt;/div&gt;" style="text;html=1;strokeColor=#9673a6;fillColor=none;spacing=5;spacingTop=-20;whiteSpace=wrap;overflow=hidden;rounded=0;shadow=0;glass=0;labelBackgroundColor=none;sketch=0;fontSize=13;" vertex="1" parent="1">
          <mxGeometry x="1310" y="5.5" width="1161" height="152.25" as="geometry" />
        </mxCell>
        <mxCell id="ZeBQX1oqdIYX9gZX3-Ay-58" value="" style="shape=hexagon;perimeter=hexagonPerimeter2;whiteSpace=wrap;html=1;fixedSize=1;rounded=1;shadow=1;glass=0;sketch=0;fillColor=#e1d5e7;strokeColor=#9673a6;" vertex="1" parent="1">
          <mxGeometry x="1940" y="570" width="120" height="80" as="geometry" />
        </mxCell>
        <mxCell id="ZeBQX1oqdIYX9gZX3-Ay-59" value="" style="group" vertex="1" connectable="0" parent="1">
          <mxGeometry x="1986" y="599.5" width="45" height="41.5" as="geometry" />
        </mxCell>
        <mxCell id="ZeBQX1oqdIYX9gZX3-Ay-60" value="" style="group" vertex="1" connectable="0" parent="ZeBQX1oqdIYX9gZX3-Ay-59">
          <mxGeometry x="-15" y="-18.5" width="60" height="60" as="geometry" />
        </mxCell>
        <mxCell id="ZeBQX1oqdIYX9gZX3-Ay-61" value="" style="ellipse;whiteSpace=wrap;html=1;aspect=fixed;rounded=1;shadow=0;glass=0;sketch=0;fillColor=#f8cecc;strokeColor=#b85450;" vertex="1" parent="ZeBQX1oqdIYX9gZX3-Ay-60">
          <mxGeometry width="60" height="60" as="geometry" />
        </mxCell>
        <mxCell id="ZeBQX1oqdIYX9gZX3-Ay-62" value="" style="ellipse;whiteSpace=wrap;html=1;aspect=fixed;rounded=1;shadow=0;glass=0;sketch=0;fillColor=#B3B3B3;gradientColor=#ffffff;gradientDirection=west;" vertex="1" parent="ZeBQX1oqdIYX9gZX3-Ay-60">
          <mxGeometry x="5" y="5" width="50" height="50" as="geometry" />
        </mxCell>
        <mxCell id="ZeBQX1oqdIYX9gZX3-Ay-63" value="" style="ellipse;whiteSpace=wrap;html=1;aspect=fixed;rounded=1;shadow=0;glass=0;sketch=0;fillColor=#000000;" vertex="1" parent="ZeBQX1oqdIYX9gZX3-Ay-59">
          <mxGeometry x="2" y="1" width="8" height="8" as="geometry" />
        </mxCell>
        <mxCell id="ZeBQX1oqdIYX9gZX3-Ay-64" value="" style="ellipse;whiteSpace=wrap;html=1;aspect=fixed;rounded=1;shadow=0;glass=0;sketch=0;fillColor=#000000;" vertex="1" parent="ZeBQX1oqdIYX9gZX3-Ay-59">
          <mxGeometry x="20" y="1" width="8" height="8" as="geometry" />
        </mxCell>
        <mxCell id="ZeBQX1oqdIYX9gZX3-Ay-65" value="" style="ellipse;whiteSpace=wrap;html=1;aspect=fixed;rounded=1;shadow=1;glass=0;sketch=0;fillColor=#FFD966;strokeColor=none;" vertex="1" parent="ZeBQX1oqdIYX9gZX3-Ay-59">
          <mxGeometry x="11" y="14" width="7" height="7" as="geometry" />
        </mxCell>
        <mxCell id="ZeBQX1oqdIYX9gZX3-Ay-66" value="" style="ellipse;whiteSpace=wrap;html=1;aspect=fixed;rounded=1;shadow=0;glass=0;sketch=0;strokeColor=#82b366;fillColor=#d5e8d4;gradientDirection=west;strokeWidth=1;" vertex="1" parent="1">
          <mxGeometry x="2038" y="600" width="20" height="20" as="geometry" />
        </mxCell>
        <mxCell id="ZeBQX1oqdIYX9gZX3-Ay-198" value="&lt;font color=&quot;#8a0000&quot;&gt;&lt;br&gt;Rationel et principe général : à moins de refaire l&#39;installation electrique des 8 millions de foyers en co-propriété, il va se poser le problèmes suivant: &quot;un nombre supérieur de véhicules ayant besoin de recharger, que ce que la puissance electrique garantie à un instant T rend possible&quot;. Il faudra donc du temps partagé. Si les utilisateurts ne jouent pas le jeu du temps partagé, il faudra sans cesse ré-enclancher les disjoncteurs, et les charges n&#39;auront pas lieu, ce qui sera rapidement une grosse incitation au respect des affectations temporelles. Dans une logique &quot;low-cost&quot; permettre à un syndic, un particulier, ou un gardien de configurer, installer, maintenir ce moyen de partage est un atout, il faut ne pas modifier l&#39;installation electrique. On administre des jetons temporels via un protocole radio, une IHM simple à base d&#39;un bouton et de sémaphores visuels ou audio, et une webapp (SaaS ou self hosted) permettent un ensemble d&#39;intéraction, d&#39;affectations, de transactions simple de jeton (&quot;renoncer&quot;, &quot;mendier&quot;) et un système de facturation individualisée.&lt;/font&gt;" style="text;html=1;strokeColor=none;fillColor=none;align=left;verticalAlign=middle;whiteSpace=wrap;rounded=0;shadow=0;glass=0;labelBackgroundColor=none;sketch=0;fontSize=13;fontColor=#26B0FF;" vertex="1" parent="1">
          <mxGeometry x="1130" y="950" width="1210" height="140" as="geometry" />
        </mxCell>
        <mxCell id="ZeBQX1oqdIYX9gZX3-Ay-199" value="" style="endArrow=classic;html=1;rounded=0;fontSize=13;fontColor=#000000;endSize=6;strokeColor=#26B0FF;strokeWidth=1;exitX=1;exitY=0.3333333333333333;exitDx=0;exitDy=0;exitPerimeter=0;entryX=0.093;entryY=0.664;entryDx=0;entryDy=0;entryPerimeter=0;" edge="1" parent="1" source="ZeBQX1oqdIYX9gZX3-Ay-149" target="ZeBQX1oqdIYX9gZX3-Ay-170">
          <mxGeometry relative="1" as="geometry">
            <mxPoint x="2012.62" y="345.45" as="sourcePoint" />
            <mxPoint x="2167.3" y="418.49999999999994" as="targetPoint" />
          </mxGeometry>
        </mxCell>
        <mxCell id="ZeBQX1oqdIYX9gZX3-Ay-200" value="" style="edgeLabel;resizable=0;html=1;align=left;verticalAlign=bottom;rounded=1;shadow=0;glass=0;labelBackgroundColor=none;sketch=0;fontSize=13;fontColor=#000000;strokeColor=default;strokeWidth=1;fillColor=#EBEBEB;gradientColor=none;gradientDirection=west;" connectable="0" vertex="1" parent="ZeBQX1oqdIYX9gZX3-Ay-199">
          <mxGeometry x="-1" relative="1" as="geometry" />
        </mxCell>
        <mxCell id="ZeBQX1oqdIYX9gZX3-Ay-202" value="" style="endArrow=classic;html=1;rounded=0;fontSize=13;fontColor=#000000;endSize=6;strokeColor=#26B0FF;strokeWidth=1;exitX=1;exitY=0.3333333333333333;exitDx=0;exitDy=0;exitPerimeter=0;entryX=0.073;entryY=0.46;entryDx=0;entryDy=0;entryPerimeter=0;" edge="1" parent="1" source="ZeBQX1oqdIYX9gZX3-Ay-145" target="ZeBQX1oqdIYX9gZX3-Ay-172">
          <mxGeometry relative="1" as="geometry">
            <mxPoint x="2050" y="254.83000000000004" as="sourcePoint" />
            <mxPoint x="2188.63" y="259.17999999999995" as="targetPoint" />
          </mxGeometry>
        </mxCell>
        <mxCell id="ZeBQX1oqdIYX9gZX3-Ay-203" value="" style="edgeLabel;resizable=0;html=1;align=left;verticalAlign=bottom;rounded=1;shadow=0;glass=0;labelBackgroundColor=none;sketch=0;fontSize=13;fontColor=#000000;strokeColor=default;strokeWidth=1;fillColor=#EBEBEB;gradientColor=none;gradientDirection=west;" connectable="0" vertex="1" parent="ZeBQX1oqdIYX9gZX3-Ay-202">
          <mxGeometry x="-1" relative="1" as="geometry" />
        </mxCell>
        <mxCell id="ZeBQX1oqdIYX9gZX3-Ay-204" value="Actions via WebApp" style="edgeLabel;html=1;align=center;verticalAlign=middle;resizable=0;points=[];fontSize=13;fontColor=#26B0FF;fontStyle=1" vertex="1" connectable="0" parent="ZeBQX1oqdIYX9gZX3-Ay-202">
          <mxGeometry x="-0.3044" y="-4" relative="1" as="geometry">
            <mxPoint x="184" y="63" as="offset" />
          </mxGeometry>
        </mxCell>
        <mxCell id="ZeBQX1oqdIYX9gZX3-Ay-147" value="" style="shape=image;html=1;verticalAlign=top;verticalLabelPosition=bottom;labelBackgroundColor=#ffffff;imageAspect=0;aspect=fixed;image=https://cdn2.iconfinder.com/data/icons/social-hand-drawn-icons/64/social_5-128.png;rounded=1;shadow=0;glass=0;sketch=0;fontSize=13;fontColor=#25A10C;strokeColor=default;strokeWidth=1;fillColor=#EBEBEB;gradientColor=none;gradientDirection=west;imageBackground=default;" vertex="1" parent="1">
          <mxGeometry x="2060" y="195" width="50" height="50" as="geometry" />
        </mxCell>
        <mxCell id="ZeBQX1oqdIYX9gZX3-Ay-148" value="" style="shape=image;html=1;verticalAlign=top;verticalLabelPosition=bottom;labelBackgroundColor=#ffffff;imageAspect=0;aspect=fixed;image=https://cdn0.iconfinder.com/data/icons/heroicons-ui/24/icon-desktop-128.png;rounded=1;shadow=0;glass=0;sketch=0;fontSize=13;fontColor=#25A10C;strokeColor=default;strokeWidth=1;fillColor=#EBEBEB;gradientColor=none;gradientDirection=west;imageBackground=default;" vertex="1" parent="1">
          <mxGeometry x="2064.25" y="350" width="63" height="63" as="geometry" />
        </mxCell>
        <mxCell id="ZeBQX1oqdIYX9gZX3-Ay-213" value="" style="group" vertex="1" connectable="0" parent="1">
          <mxGeometry x="2055" y="260" width="70" height="70" as="geometry" />
        </mxCell>
        <mxCell id="ZeBQX1oqdIYX9gZX3-Ay-208" value="Si Wifi" style="whiteSpace=wrap;html=1;aspect=fixed;verticalAlign=bottom;rounded=1;sketch=1;" vertex="1" parent="ZeBQX1oqdIYX9gZX3-Ay-213">
          <mxGeometry width="70" height="70" as="geometry" />
        </mxCell>
        <mxCell id="ZeBQX1oqdIYX9gZX3-Ay-209" value="" style="sketch=0;pointerEvents=1;shadow=0;dashed=0;html=1;strokeColor=none;fillColor=#434445;aspect=fixed;labelPosition=center;verticalLabelPosition=bottom;verticalAlign=top;align=center;outlineConnect=0;shape=mxgraph.vvd.wi_fi;rounded=1;glass=0;labelBackgroundColor=none;fontSize=13;fontColor=#8A0000;rotation=-90;" vertex="1" parent="ZeBQX1oqdIYX9gZX3-Ay-213">
          <mxGeometry x="23.333333333333332" y="14.38888888888889" width="24.5" height="24.5" as="geometry" />
        </mxCell>
        <mxCell id="ZeBQX1oqdIYX9gZX3-Ay-214" value="" style="group" vertex="1" connectable="0" parent="1">
          <mxGeometry x="940" y="400" width="70" height="70" as="geometry" />
        </mxCell>
        <mxCell id="ZeBQX1oqdIYX9gZX3-Ay-215" value="Si WiFi" style="whiteSpace=wrap;html=1;aspect=fixed;verticalAlign=bottom;rounded=1;sketch=1;" vertex="1" parent="ZeBQX1oqdIYX9gZX3-Ay-214">
          <mxGeometry width="70" height="70" as="geometry" />
        </mxCell>
        <mxCell id="ZeBQX1oqdIYX9gZX3-Ay-216" value="" style="sketch=0;pointerEvents=1;shadow=0;dashed=0;html=1;strokeColor=none;fillColor=#434445;aspect=fixed;labelPosition=center;verticalLabelPosition=bottom;verticalAlign=top;align=center;outlineConnect=0;shape=mxgraph.vvd.wi_fi;rounded=1;glass=0;labelBackgroundColor=none;fontSize=13;fontColor=#8A0000;rotation=-90;" vertex="1" parent="ZeBQX1oqdIYX9gZX3-Ay-214">
          <mxGeometry x="23.333333333333332" y="14.38888888888889" width="24.5" height="24.5" as="geometry" />
        </mxCell>
        <mxCell id="ZeBQX1oqdIYX9gZX3-Ay-217" value="Garage" style="text;html=1;align=center;verticalAlign=middle;whiteSpace=wrap;rounded=0;shadow=0;glass=0;labelBackgroundColor=none;sketch=1;fontSize=14;fillColor=none;fontStyle=1" vertex="1" parent="1">
          <mxGeometry x="1359" y="916.5" width="60" height="30" as="geometry" />
        </mxCell>
        <mxCell id="ZeBQX1oqdIYX9gZX3-Ay-219" value="Extérieurs" style="text;html=1;align=center;verticalAlign=middle;whiteSpace=wrap;rounded=0;shadow=0;glass=0;labelBackgroundColor=none;sketch=1;fontSize=22;fillColor=none;fontStyle=1" vertex="1" parent="1">
          <mxGeometry x="1040" y="358.5" width="100" height="60" as="geometry" />
        </mxCell>
        <mxCell id="ZeBQX1oqdIYX9gZX3-Ay-71" value="VERT CLIGNOTANT : puissance en cours d&#39;utilisation par un utilisateur" style="text;html=1;strokeColor=none;fillColor=#FFFFFF;align=center;verticalAlign=middle;whiteSpace=wrap;rounded=0;shadow=0;glass=0;sketch=0;fontStyle=1;fontSize=13;fontColor=#25A10C;labelBackgroundColor=none;opacity=80;" vertex="1" parent="1">
          <mxGeometry x="1400" y="400" width="200" height="70" as="geometry" />
        </mxCell>
        <mxCell id="ZeBQX1oqdIYX9gZX3-Ay-67" value="&lt;font style=&quot;font-size: 13px&quot;&gt;&lt;span&gt;ROUGE :&amp;nbsp;&lt;/span&gt;puissance en cours d&#39;utilisation pour d&#39;autres Users, non dispo sur cette prise&lt;/font&gt;" style="text;html=1;align=center;verticalAlign=middle;whiteSpace=wrap;rounded=0;shadow=0;glass=0;sketch=0;fontStyle=1;fontColor=#8A0000;fillColor=default;opacity=80;" vertex="1" parent="1">
          <mxGeometry x="1725" y="400" width="226.25" height="70" as="geometry" />
        </mxCell>
        <mxCell id="ZeBQX1oqdIYX9gZX3-Ay-221" value="Communs" style="text;html=1;align=center;verticalAlign=middle;whiteSpace=wrap;rounded=0;shadow=0;glass=0;labelBackgroundColor=none;sketch=1;fontSize=22;fillColor=none;fontStyle=1" vertex="1" parent="1">
          <mxGeometry x="1040" y="450" width="100" height="60" as="geometry" />
        </mxCell>
        <mxCell id="ZeBQX1oqdIYX9gZX3-Ay-222" value="Garage" style="text;html=1;align=center;verticalAlign=middle;whiteSpace=wrap;rounded=0;shadow=0;glass=0;labelBackgroundColor=none;sketch=1;fontSize=14;fillColor=none;fontStyle=1" vertex="1" parent="1">
          <mxGeometry x="1670" y="917" width="60" height="30" as="geometry" />
        </mxCell>
        <mxCell id="ZeBQX1oqdIYX9gZX3-Ay-224" value="" style="group" vertex="1" connectable="0" parent="1">
          <mxGeometry x="910" y="481" width="130" height="160" as="geometry" />
        </mxCell>
        <mxCell id="ZeBQX1oqdIYX9gZX3-Ay-151" value="&lt;b&gt;&lt;br&gt;TokenCharge&lt;br&gt;GateWay&lt;br&gt;&lt;/b&gt;" style="shape=hexagon;perimeter=hexagonPerimeter2;whiteSpace=wrap;html=1;fixedSize=1;rounded=1;shadow=1;glass=0;sketch=0;fillColor=#e1d5e7;size=10.000000000000455;arcSize=23;strokeColor=#9673a6;" vertex="1" parent="ZeBQX1oqdIYX9gZX3-Ay-224">
          <mxGeometry width="130" height="160" as="geometry" />
        </mxCell>
        <mxCell id="ZeBQX1oqdIYX9gZX3-Ay-210" value="" style="sketch=0;pointerEvents=1;shadow=0;dashed=0;html=1;strokeColor=none;fillColor=#434445;aspect=fixed;labelPosition=center;verticalLabelPosition=bottom;verticalAlign=top;align=center;outlineConnect=0;shape=mxgraph.vvd.wi_fi;rounded=1;glass=0;labelBackgroundColor=none;fontSize=13;fontColor=#8A0000;rotation=-90;" vertex="1" parent="ZeBQX1oqdIYX9gZX3-Ay-224">
          <mxGeometry x="49.25" y="9" width="31.5" height="31.5" as="geometry" />
        </mxCell>
        <mxCell id="ZeBQX1oqdIYX9gZX3-Ay-228" value="" style="shape=image;imageAspect=0;aspect=fixed;verticalLabelPosition=bottom;verticalAlign=top;rounded=1;shadow=0;glass=0;labelBackgroundColor=none;sketch=1;fontSize=16;fontColor=#8A0000;strokeColor=default;strokeWidth=1;fillColor=default;gradientColor=none;gradientDirection=west;opacity=80;image=data:image/png,iVBORw0KGgoAAAANSUhEUgAAAuoAAAFdCAIAAADaIt+hAAAAAXNSR0IArs4c6QAAAARnQU1BAACxjwv8YQUAAAAJcEhZcwAADsMAAA7DAcdvqGQAAGFcSURBVHhe7b2xq23btqd14voPjARv+iIxFrMLCg/jwkQwudEDFUEQE5ObPKjAiqriSz00ECPBwOflgZVI+USqkroPQUykwsqv31nfPL/bdh9jzjXXWnuPPcbav4/OPG200XrrrbfRR+9tz33Y86c/Dv7RP/pHN6mUUkop5ay0fCmllFLKxfiJkmVyU5dSSimlnJUvvn2Bn0oppZRSzsqtXPE/ITfKx2kyywnpsiylXJeWL0fQZJYT0mVZSrkuLV+OoMksJ6TLspRyXVq+HEGTWU5Il2Up5bq8s3z51a/+7Kef/t623W5/Cca028U34Pe//xuG5vN2/V4I8je/+YvbxVflyXPid7/7q2SSSP7wh797Xzz6ofvt+qvy61//+cdT/UEeP3Gm/42e4yfj1WX5ptf8q8Dqot0unuCbLvVSypl5Z/kCy8aB4Nb229/+pRrhjPmmtcsleKZ8Ydee+TS97ziG7ThdfUVwi//bxXfC2oX2oIpiEXbVvcozy/LJ17yUUg7mq5Uv4h/X5rly8m3uTX/UezevJpMsbZNJht8X3u6j+TgE891rF7GCeVC+ACntdzCPeUf5ItvX/Eh4st9r6FLKefjK5YvnylWODeI8SflC0nYjeV8mv0X5gs/zfJ/xTPkCBNxz7gHvLl++42tOJM88+lLKp+crly+AMuccGxyXtJzN/MmJu+5BtLkDYqNyHpPIdPHLCRodHZeGUpsZiTKCNhk3vWgOmuFo3EWDEJ+QuwkyW2f6qn+Vx8n0MJhDb5nxu3ebW3OVuzMJypDsaZxLZIemxSdTc3ZLPCgXzQyJy7jFMm6RNTbaRTMt8WZ6pw0+iTk2eRBqjBmWSAL26VK2vLt8AZR5T7cPN48MAQ8qY5aOPl/1PikvvYuSvvi0FzHELU0nrjrtIYuQlphxOFcaNupLKZfm65cvbCvuLOwa2bnclbK5aDA9sL9kW4kHPrX3lpfubrpC0AkNP5G95YbFJzKCwcxB3dcQwF6JIR2xRMZSwRafsX/M42Qa0gNXGJgQcOIGgBy9k3Vec47YxDOTdb4aqHRedGeOCMremqCn1+3ixYMPAhAMwxgYLj5jkL5YcpmxjMfL6YRPZxobY9ZPbNTTHQEQkhDg1rwsCx8pX0isuSXnPhSVPoukPY8M/XzXXJYIMQB6cakHb9F8yhluLq14QPYyQ+AEPcYKNG/ZRZtSyqX5+uULSjcad400lWwfCuAhhAcFleAO5aaGMV3Uzx3Q0adsJFOvH3c6yX6n8XQI6B2Lz6mP/8XhjO0xHyxfGAib28WoQuiyTSbyTAgGyLPF4OduX2ZpSUhYJg6Y6S1tDp1LiY3NmO89zTnWnCBk4k5Wm3uRwHRbtnykfEHpozHnaSr55Pm+GP6Mz3TrZHm+MDvShdGV88Tn8gA8cKk89RBX91ZaKeXSfOXyxV2G/cJd5qYd7J642z2FSywRMFaAe9vQjGTq507nNsdnBkU5HYIGCIveLnxOhzBje8zjZOqWQW/XG7jLvG4XL+GZQ0bfJhN5JiTC5F6WlomHaSOMOy8neMA4AdtXeTLHevDUMkFIFyerzYNIptuy5d3li/nncdx7uPaycan94gSW5wtc4laZLssqws9cHoAHh1j0wFJxtdxbaaWUS/OVyxd2nyiX3UR2T1xdTWMu3bkwpovKe9vQjGTqs6NlIJRTng4BvWOhjxNIlzhUP2N7zKvJdESjmhgetzBQAwl7N5nIMyEYmMnJbpaQl4RMsJl+MNudO0qa/pOoKYc51r145gQBe/PgZLW5FwngdnYvC+8uX8hqlHkQW3xMGM9nOlmeL3CZpU6XLDld4WdxhQcuEdTPlZDVcm+llVIuzVcrX9w+aNlx2DXmTuFWMjesbEnIbojq8RAbhGxJ97ahGcnUGxKjOJBbnvudxnHoEOgV7JixMDP4OFQ/Y3vMM+eEGYhzQDNjTmJjpl4l0SLTCHImRBtlcCLTAI0d8ZmEbEE/J6uHRMstx42N42rgEOrBGOZYelPGTzpOJ3wiG7Oy+t1IlBnCscou7yhffDo09Gp2H27eX56LsutTJWjGw4qlcJlHhn1WCIL6LA9XmivkxeQWiStBM8NGv7vSSimX5p3lC7sMu8DSlp0I3LNsbCvuLzb3EZs7TnzGTwzcgHLXPcv2D/7Bfxv5v/gv/qvI0z9yuicGBo3NHMttMds0jS5osI9mOvfuY545J2Dmh+bmK3PKpkui1IAuM7Zs39Fw147Jth3xOTOszYSOi36GhJxxGXRmzxGXlXDvac7gkbmFQYyd+HwQapZIfg7uBfpqUHZ5dVmSwCQ2bVkGsDxcNPOJZBlPM5RzWWqQ4XynFNTQVxvQjCHmKN6aPh333kpLVKWUi/LO8qW8ic+RTE4Ca5HD4LzZHpZPQqjzzCtbTr4sKTIOXm+llAvR8uUIPk0y/SPs7eLb8+7y5SN1z49Dy5dSynVp+XIEnymZv/nNXxzzNzLbv1x4Es48//ahPOa0y3L+5eOR5XIp5UK0fDmCJrOckC7LUsp1aflyBE1mOSFdlqWU69Ly5QiazHJCuixLKdel5csRNJnlhHRZllKuS8uXI2gyywnpsiylXJeWL0fQZJYT0mVZSrkuLV+OoMksJ6TLspRyXVq+HEGTWU5Il2Up5bq0fDmCJrOckC7LUsp1+Trly29+8xf5N9r9jbTlX/v2n9H8Yf8t1J4T5YR0WZZSrstXKF/8x92Xn5hZ/qlvLn/kf8e950Q5IV2WpZTr8hXKF5jfvvz+939DNbP8Hv1SzXD31WrmM/1ccM+JckK6LEsp1+Xrly/PQGnyuHz5ZL8Y3HOinJAuy1LKdflQ+eL/5kKd8bh84RZmNL+DySXt97//G7+tsfmNC96iWb62uSg9J8oJ6bIspVyX95cv+QbF/y33XvmC3r9I0sz/pXd++4KBNYp1DJ/I/fallG9Nl2Up5bq8s3yx1Lhd3P/Lo/nNis2qZfuXR5Q1GrR8KeUYuixLKdflneWL1cbt4n75gpl/H7QwyxddcenXMy1fSjmGLstSynX5UPni3wrBvfJl+ZImLH/xZMnS8qWUI+myLKVcl3eWL0CpkW9WkGm7BQfK+QWMVYvlC/XKP/gH/y0dKYZQWhIt5QsCn1en50Q5IV2WpZTr8v7yxS9LbPe+fZGY0dRQlCDbhb7eikAd49c2tHzBc2l6TpQT0mVZSrku7y9fyvM0meWEdFmWUq5Ly5cjaDLLCemyLKVcl5YvR9BklhPSZVlKuS4tX46gySwnpMuylHJdWr4cQZNZTkiXZSnlurR8OYIms5yQLstSynVp+XIETWY5IV2WpZTr8qh8KaWUUko5J7dyxf+E3Cgfp8ksJ6TLspRyXVq+HEGTWU5Il2Up5bq0fDmCJrOckC7LUsp1aflyBE1mOSFdlqWU6/Ktypefxu9Rfwv8wUh/v/r8PE7mv/2//Kc//Q//oe0/+N/+m5v2j3/8N/6n/zj63UZHzBal7X/9V/+XThCWW2n/yT/7h9pMcvcf/9//Mwb6iXJpM1pwLDrerl94HMC9uf/X/+J30dNu2j/+EZsonT48GGI2jUt45h33d+Df/cupvqf+pPwHwc+bfn9+/oJ9+NWv/gzl4sofwL9dHM4BW9m1dkvIT/am5SeBc2t5suUH5JuUL2wc37R2AXafC72NryaTg5zzlTP7dv0LVDBWA57Qi0HOb7srg6e1lQfdY8bZj0NlXC3FB3A3SgsLnNDSaw40PYt3F7evBoBBohWHvl1skqM9n14GvMXJnIjMu0VeXZZWALT3lS+emrSPly/6eb58Yf+xyzzkUDoR56U3Lb/jZnLAVnat3VJcPFk5lC85U7iVaqb8yHyT8uWAV+Vab+MzydyeuMDJrcDRO4/whaV8wSzGHPM56fGf6gHiXLZlhEc+LeMuAy0euEWXaQCvBrCMq4cZBkwln8jxGYxWeTeZZeGZZelJ/77yBZZD6B7P/GknBceT+Mf0lC9EspQyGRTha+0nRPjWbwW6W+7i47tdvCQ2lyynK86ofHW+Sfny7s3ueQ4Y4ivyTDKXygDmwe+ZPcuXWTosfWf5MlmqhwWHeHzqb4MMDEdfa5Ht0LIbwFK+7MYwY1N+U/kyc1XCScoXh7hd3Aebj5QvC5x/X718cbJvLV+6W+4yHxAg5xsX5LcmuXxK3lm+uDXQeDGWbYJl563sCF7S5nKcZltv+StqjZcNDj/efdN29h155pzwVL5XoCx3uVyOZ+4qWw0sf60jdHlQvgAG9KVtiwN5UL4wotUDQ+yODrsBzPJFebfaQG9fU/Gm8uVePD847yhf/EMwbffbe425heCGQEc0XGrgpc2XNw5p2TFC7DXL++5ANjVbln1pgbHijf2Ey/hMtJPsUbRkw20K+7mJ0ZbkxHPkeNhuZV7S5m45zTIQTnYHxWYG8GC3xAwlwWuQXG0fU6bArdw1UQ6nEz5fHPwJ7mpMu6nG5j/nuIBP/YP2CS+unH4GxT7yHNeW7uXT8M7yRVh8rBhfD19I1pwr0oWFoIEa3wTYmsHizVtZc1mXKJUxxo/Kk/NMMoFTNqc7J/G2fJltHs9WFWk5xRd2q4cFKqQHfu6VLxQTKRG02Y3h1fLF0XfLFzra11S8Wr5gk/bqrH9M3lq+8P7mFeY99RWe+D56vPnmKuMksq58u/XmEAgL04+nUeyzGyDc2wSWDWRh9nLP0Sef23nhJEojUXBe6TIDXuAWZnRxLJUZFD/Gg6ArnDhZ2JoBZhpzF+fICt7VHnb7CpfcpXGLywTmLHRlDo1EOUPY0Wwoq59wN4MiGAmfMY5ywbFmu90YTx8bYkZOorhEiWBUhqr8cr98Nt5fvriM5uJDZgEps2iUfRlUyq7Z1hvQMUtTAePYbO1Py5Pliwe5BzNH+KwAPLNf/fbF4397tMsz5YtgiZ+tq3vlC/YzNmx2S5DdAJy1k/2K5QuXytBvX3Z5a/mSAy9Nm4AmL6z4+ntcLS8slnpwCJWTxT7O2QSQZ8uZOvEI9DxbwO3Uz12FIXLiBu7O4XSb+IOT3R0RY5wYv+xuZdvdctdsu1vOPEMSte07YaYJKR4Wy0zTfCbVGQ6DbcYEm202UM622xefBH+7+BJiyzSB7g4xU4cwUxF9+WS8v3xhec0V5upxJbGk5qJ03SvfM1u8CRrfLpYsHfXj+4OwtT8tT5YvwLnrWbucuJ7ZKRFgnvGzqrDyUF7YrR4CQ0yfjjiLAJgDTVAubXeg3QBm+eKg22pjBqM8UyHc1Qks5ctuPVTeWr5EuIdHBS3vte+7Zwkv7DwX41nhph0s9ti4G+DcDeQxbhdbS4YznjAHYoi5dwkGSxfBv827TnY3NnzOuTzYyrw15a0ZwuwiDGEY3nowRKCLKRXM8IDl7mOaDkFjhN2MAZbY0Ot2/YLK28V9lsAmszvOMzQxJ+zZHft7rsrVeX/5sixNV7kt+rkp+P7smsFyKa5IuuQ9Sd+8RZfg+fLF+oCzeTlxd89slB7SS1WRGmhht3oIeFt6Yb9odssXlEu0fomy+wXJ4/IFsJmX4rhRIi8jwgx1KV9kNyc/Mm8tXzgVfBMfYxffd48re6GZ55xmU1jAXieCjecQymcOJPYTuiy7CpfZlAIO5041gxQ3otvFBuwdaPfABvVzy9rdymYMTnzXDLjcjmJaaN6613cyj3mDpC9+dh8Tt6YrZB8rHrYZk9hMHOV2sUciuV0PDC8xkDHjN8iMZai2TLB8Pt5ZvriMbhcvuGJuF7/sdHy6CrPEd8223oTViXHeah0qA7d0fn6eL184oTmbt+e3+qV84ZC2RFiqCo23hcKr5Qu9curvjrgMBJrdLgYM9GQAS/kCXE6fDjrrFTWzPMLtNOByKV+4nAYF3lq+8BZHhu2JnteTXr7RHkVcIvvupxcG8+xBWE4a9fZVpmGjnHcfTUKaONzcIpDnPoMfnaNMVHibm4zoSmNAQGMkauiCxsl6S71gtuQKzXYr0wmXiWHXjLa7W6LEIEPv9r1d/AIGsSFC3WKG8fYxqdcJGmQaoyTaLTjBZlkwKtVABgpoHjh0RH3qnJDSRW8ot27L5+Od5YvL6HbxCyhd01myuYxm12zXG7BMfXOCr6jtproCz5cvwEG7/RbEE31plgJTkxPaA56mK4uMtKUoEWzQ+8XJrln0NAey8rAtxcSivxcA4UU5C45lytO5zDhpcbjoZ5sVUoFXlyVvZV63vKrRPN4BuKRLLjX2CLTl1Y6ZR+MEG2/pOV2in8rJjAQZzZyLzQOPTy/ZW5b4J7O7Dhk39olBb0tIeN5ObbuV5ZKW3XJrxqDbzMNW/+puSbSZgtmQ3ccEcYiST4ZLd9rN6EumQZIwA5uZmQuGdtMOTG+mqRne0lF9Bt1NVPk0vLN8KW+iyXwHqXj6rck3osvyB4dqYKm0PgFUM6larGM+3xyLtHw5gibz3fj1TP+3lW9Bl+UPzucrXyhc8h2MMEGKmNtF+Vy0fDmCJvOD+HdJ2/9vpnyELssfGf96hfbJTvf5N1O0fvXyiWn5cgRNZjkhXZallOvS8uUImsxyQrosSynXpeXLETSZ5YR0WZZSrkvLlyNoMssJ6bIspVyXR+VLKaWUUso5uZUr/ifkRvk4TWY5IV2WpZTr0vLlCJrMckK6LEsp16XlyxE0meWEdFmWUq5Ly5cjaDLLCemyLKVclw+VL78dP5z25D/d6D/qPH8e7Ej8xa9tqE7h2/37jI+T+U//zX/zr3/6aWn/6n/8H2+3B9Pg//2Ht18C+td/+7dTn47/4j/6j6LERiW9ovxn/+6/q5mf0c+mzZYYMNzf/Zf/pf6jXJpDTFAmfllmMRv+CSOX09ucDu2m/XI6mcKDIWbT+EfgmXfcFza/IPhW/C29r/LLeW99Q418+a1Ed4DF1a/HL06/ieWXAk+Oc/8qz+Kt5Dcgl8eRE+R2fU3mOWjLcjr/BAmV8N79gj/DtxviQ+UL7O4Rj+GJune8o+87cAEld2xVuyPybn+7R/hqMj2GU2RY0MwKRoMc+Z7Es7ZA3pYamM3D3kM9bhG4ZCwv9blUFVufQJe4xYBe9KXFFQUHSmVGWZw4l0U5zXAeVxg7ltEyinpw6NvFL4Mmfu359DLgLU7mRGTe/fS8uix9Q9+99dDL7h8/MvXjvvEM+Zfj58uO0ok4L71p+b7yRRjiW29iXwtmqsB2x8SVvx0zsWSeQZUnPIuPJP8kuKJcXS77rNWTTzBhfzu+3RAfLV94SLuL8gH3CogDuPcK3dN/Ld5avnj0ch7vXgrGU8m5uxQEgE2OZ0/37XGeXjpcypctBjPPeI98Wvo6ljIskVs0LE5wm9i4m/IF7L6Mu/UAU8kn8na+Rqu8LV9+KJ55x+e+/A7oSHec3K7v8MxROo+EZ2CToUu2GiKZ2w4jZlCEdx8wdHwm+AUS8mpOvjpM/x2hfi14druPjwQen4qvDlObuUXO5ZknyJKYL8W34JsO8dHyhYf0pj3lWxcKj2EZ7e5T916tr8UHy5fla4Yw9RzDj8sXLLcGE8/7Wb4sZYdo9vjUX8qXCVMjDJ3s+gecz/JFlvJlN4YZm/Kbypd78XxWTlK+OMTt4j4fLF8WZtmBsLstfDtezcm34PueoyR591k88+jPD4faXJxMKivqc0zwnHyofHFvclHy/JB9hDy5+fxADTa8P+qnfS61mXdp6ufS501QqSv3KZqbrLL2ynlpfYVUZvOC5dUyWtqcwkd4U/niuTvPb+TtcQ5WCZ7QHMMPypelHtrFcVO+pO8W9Fhm6C0Pyhf62otodycF2GxvOQVT9GA66O3rdLYR4lwngOWc4+Py7vPxjvIl76Pv6YLG3ELwhVrKFy9tvvtxSNu+brHXzC7gQDY1W3zT53s9Yax44/XnMj4TbTAMXGXnud3Y4KC2JM3dDLeMMjNA00By695A+qHhx1zNPGzDhvjkLt25TBcNZsAkZN5VmPvkdnbGaTA+I+2Vs0gwdlXYN6E6U2XRgMatm+oFh8504hnilmYvo5qR0F5sb8/aTCaMYMf0FY1pWTALRmVCQHvlOUEjyaCEETnjpqkPGKvPxE2ILUNghqy3JVou6asfPtHMvGmT9OI83bdmapzObGbA6dt92/fr8qHyheCSTSBrPi30tOSU0JXNjisMtEfgUz8YmFngLkqz4FNRj4fYIDMQAh0x1j+XGKsH9crc1UDL2ffl/s8gOxZRafxxnixf0pZDF80Hyxf9L+c9Ph1OJ573s82jfWEGnGog3CtfsMxE9LAtL4Bxt/PFMmPtTkfoaF+ns/WP8wQ8M0DbDvq5eWv5wsuYTY13JK9k8D3y5fLVXl60uPLlmnscwsL0g+W0zw6AMF/eiUPYfcvsxUSw1OfcasQwbHpDSB4m3E1fA1Zw+tMzt1Ru4RaxORCCAxmD8pwXDuPcxE6MQcs5+owTvW751JJPxqUj8vYROApyEogHn4geop+PCZm+XupHvX2V6Ys+00lf8JaNS6PSAPuMqGej5W7m6OgIaHSyzRVwV5/6NxKcazyVC46blnEBh3bBhoY3wwMsFbDPFJBnd5lzoRd+EOiiYHL4xMwAMkRIhIkfwckCggEwipON860ZGl1pIHSMZzCA3SG+Lh8qXwg68TFt52zo6J3PtIHMQXtlIB0mTlwreQy49fnxqSCOiMBnbIC+CniIcmYT6GuES5ZjPx1+kCfLF45VD2kubzdeyJG88MHyBTIusud9hk7fB2BAl8QQ7pUv6GcM2OwOgXI7329UvswA+u3LFt6OvJu8MsizaRPQ+D4GX2RfNF6u+QJiqQeHUDlZ7OOctxJ5trl1BN59bmUPmeB26nGYgRhi7kuybEfZdhZwkpBsdMk0J2jMyQJKnGc6BOZA095glLk7UzRx+nFF98RMl3hDWHY57k4NTnClt2SAXokBgUsdMkRGwUnsp6wr5TlZ/Sijjyz2ijGj6GSxZCCDn7PAICOi3M3YjCqonG23Lz4z64U5wfngCMnwlnmhTNhirxgsODUafrhcnt2ECAnmdvEykB3TGGI7+q7ZzKegSWaQFXb7eutr8aHyhYASKwLZyVPklkoFWSY5l8LykJa7el6eNCQAMpWFMvvSKyGh9BnDHI6+6lUq420+7A/yfPmC7NmfIxY4VheNqFfePfLp4vGMgOXW4EH5Arv1AWZTb69ZBIBTuF0MCAD90m73BrtzmeWLg+6Wa+jnlOd0hLs6gaV82Z3vJ+at5cvy9m3hXcOGlnfHdyov6Xyp41nhph0s9tj4LuM8L/ID3C62lgxnPGEOxBDbF3/uDIBBdpUJfhbPQl9b7k55QhjRZ1DGwrNKWC7pMrMUliC5zLObMiwO512CIQaEmSKgC2YIhIeQW7OvHUVjyXD0zbjTIR1n5KJ+GxifM5NEoh+EOI8xLBMJ0yagjJN7EBIdCe92PZgTBCY1E2XYs7tzXFypzMSDAeNwepizXkiGBXkZCBzL5oi7Zru5Spc8u92+X5f3ly/LHOayyFNHE6VZ9pkBBsm4Gm4lvygz8ww0DQAbL+fzAzxnFAzMKcxoZ2DqMXMg29fN+5vKF+Bgnue3J/dyuHo8R7lbMeA25zfn9NbJHHf3vEc5D3hAs9QNGCyae8EsrpzXMiJg9rh8AaeTS3HcKJGX+cIMdSlfZFsVfVbeWr7wNuXNeoBd3AHmW49mvr+aTWEBe50INu6MKLfH2xZeYbosLzKXefEDDqNcdnlZdhgMdgOYu8oWesUJwm4m59C4cvooY5x8IsxzYvGmGZ9e4iqeCSBZTbRJKV1yF+ilfjcG5AQJeM4o3I3zKUOSgGeaQeIEPS0eFugyZ0RHLVFO54lnBkYAmCmjnPZh8S8qbxd3mM4X5gSBgJ04AcyxsOHSpsEEs61+Kqc8Z72QjAlmaG4XX6JDGvKu2e6UGZpGGAn1wRBfi/eXL8s6mPNB75KlmU0yQu58ftxKxpEx4BObmZQIKrFHxj6yj9xMYbNEomc+GVGBFhuEPEj7xibjgn1vFx/jreULcEm7XfxyMOekx5LL5aBdNPq8XbzAXTTzwJ7j6nMpJjjgl79/0SxOdnvtli8ZaGJIt4tfeKZ8AS5nXwed9YqaGT9up8G2fOFyGnxu3lq++NIpw3zpZL5WefHp4nvk+5Ve2d0cAmHZ7NTbV5mGjTLeNEOTkCYOFzNANirBj85RJiq8ZRbBWcQVBkuo4oj6BAQ0BqyGjjrRjDYjn+HNPQpBD/q3L/I0WOKZAePKVDtHPpW1eTH/Uwa4FVe4VQkzRfRKnNhkCvbVDAOCVObTSIC+0z99Y6MATlM5qExfZHOCJrL6zHrmBz0NeU5kAbN0Ac3QZLKw7YvBA4eZIFHp3CzhE41h85n4d8HY4AWHPrt0n7Oe0U4YdM5u9gLu4pO+Pk39I+yaqVQTsEE5U7HbV/lr8Z7yxbBsZgTNzBpKbhGrU4oZgmbqlTW2OdX0sqEJpEDlfBL4IQDl6dk4k1CU9p0pRp4aL21fMdePzwkOUU9iWk5TCwtaDnILhbSlYpDpKh0nFgGzeboz7qK3bZ0QBkMnPNoSSfQ0S4EZ+TS2dpn6e3OclrPgWMJeKi2YcdLicNHPNiukz82r5ct8030d5guSly7Mu1zSJZcaz1ebd/ml05/MfP0ned/1nC7RT+VkRoKMZs7F5h6S/Yf9YYlfZszTiW4XtgaEF7cJ1b1o8TAn5Q4m0aPM/jZDncbBIWiEpAfTqx55zivbaXrREq1E76MEPCz7MHcdxay6ZuYy8O5UagOx2Z2O0W4zCTNvW/80DVDOZ63ZQgy0l2imEuaz3jpcJmj8NIKxY7pk0KRii7mdZknFXAm2+VBk2txUey8RnwkmmVzM5uUSMH31E5a+N+3X4z3ly7eGXOcN+Rx8x2R+elLx/DjfmnwtuixPBbv/gwPsABh9e/KdBI//75ufb8GclKVD6obyKmcsX777a/zV6TnxrfHrGT5v1+UJuizPwxlKB/7QyB8dbxcn41OWL2R7+dqGy0/2R/dvyrnKl/ld0031Keg5cQz+XdLu35qVLV2WJyF/NbAcZkeSjfdbfMn/QeZf03yyLycyr085u2/NucqXz0qTWU5Il2Up5bq0fDmCJrOckC7LUsp1aflyBE1mOSFdlqWU69Ly5QiazHJCuixLKdel5csRNJnlhHRZllKuS8uXI2gyywnpsiylXJeWL0fQZJYT0mVZSrkuLV+OoMksJ6TLspRyXVq+HEGTWU5Il2Up5bq0fDmCJrOckC7LUsp1aflyBE1mOSFdlqWU69Ly5QiazHJCfqhl+fvf/80Jf82nlPJuWr4cQZNZTsgPtSx/9as/a/lSymei5csRNJnlhDyzLH/96z//zW/+Ij8FP3/Nn4JApb+T/Pvf/42X/mqushWDt3RCr587v5BfEv7DH/6OpuwQ3kJQuftTzPOHiAkSjSEp84nscDGjMRC3cEjj0ggzwRleKeXMtHw5giaznJBXl6UHfM54CwKOf2SO+ZQyKC0vLEHyo//Y0DFljVXFgnf1Cci4nXVJbOI2aIygvU6IJAMxesoRg0FwFtMhem+BZY1yKeXMtHw5giaznJBnluWsBoBTn5OecmF+S5HyYrd8iUFqlMlyC3lWJCoXtwsMwd04ebV8AQxmjcItPaTdbpRSTkzLlyNoMssJeUf5YhEwywKwvKDgWOqMVAzfqHzBOXo+p5N3lC/pW0q5EC1fjqDJLCfkHeULJz2FhXVDjvyUF0ud8U3Ll9lxyu8oX7jloKWUC9Hy5QiazHJCnixfUkbMagBlZPRWA9YZs/6gcffV8sXSBEu70PfJ8mV2TPmS0gQlzTgtX7CnLeXL7A6zXCulnJaWL0fQZJYT8mT5wnFuHUC7aV+IcpYCMUawYkgdQ1tKEKG7dy0jsFewze7Itz4vpGMGtTpRpuEnNZY2dEmv3II5x2WUUso5aflyBE1mOSHPly+3i1JKOQ0tX46gySwnpOVLKeW6tHw5giaznJBXl+WvvvyH6Uop5Ty0fDmCJrOckC7LUsp1aflyBE1mOSFdlqWU69Ly5QiazHJCuixLKdel5csRNJnlhHRZllKuy6PypZRSSinlnNzKFf8TcqN8nCaznJAuy1LKdWn5cgRNZjkhXZallOvS8uUImsxyQrosSynXpeXLETSZ5YR0WZZSrssnKV/850H9183ze2/eEpW7vxh3AI+T+W//L//pT//Df2j7D/63/+am/eMf/43/6T+OfrfREbNFaftf/9X/pROE5Vbaf/LP/qE2C//4//6fpxkeaBjTpt5btz57A03/S1+GQMlkl14aQ3JCEm6qjROnL//1v/jdvLU0hwsa3y5+YdpnXkQY5fND7E423Hus9JrD3axfSBeEabO0m/XTPPOO+4uJuz8W/Qz+WPQP+COIbjjKSw6RuassGnyaLLEP5+cw3ZnftPEuawYP+dmKJZPvwN/svF1cnJx0s93ufY1cnZ8Lly+s6fm0WJR5SXhyyw+18A58r9oFXk2mBx4H5O36FziuPPw85heDnN92VwYPM89guseMky/VAK64VJ5YN8QMPDsZwkud7/aFHK636xe2XfQZTXrNioTIMygsXbhrF/PDdBKzlnEVm+Act9k2jbS4AtLooG8aAlDO+Ce44m6KJMgoYBgzFUAXA0bvWMuSIKTp8BleXZbugO/eBD2HaDmKfkCWHCov5Qt716dJkdtyyhdZ5vs8Vj/LZl4mczm5ulhpH3xzr8KFy5cFHtVNenmF5nbAI3z3+/NVeCaZHD85wELOv+WsWvDAu138cjpqzFGXkxX/82DeHq4Y0HHaCPoYY0Dbhip6oN2uN2VHQBOlsh0zEGFnvhYcS2DOmoaMZabpiDn+5y0wk9Mg4DBhJDbsDen5IQSDzGUBe+7eqzYSxuxOFxpClMuSQLjn8B7PLEv3wXdvgnSk+6tn8wf/QMzb/R3/cPIqSw6Rl+3o++5OXx2235Qvzl35AZjdWyTz25f38Tm+brk3i7mczLaXy6r7lHyS8oVHNZf48sJ890f4TDI5ljiNbhcvcCLmUFzOKphn29IXs8VYOBS3pUlwCNr0LNyKUpuc7gs5/r00Etr2dMdnnChYE9CMnC4R1C+B3dMvtcUCxglyiYpbRGWpFLdz7uHxEBIPW0wLnr1EmA+LXgRmkIkQg2kD9MJgUb6Jk5QvDnG7eDsOceny5ZMxy5cnebBIPli+0PcTlC8PZjGXk++C6frgm3sJ3lm+kEpSkzVK+uZ6ReYujQyaRBp65WjILJsOQraedNwtJwGB5kOaHXlgWCqjnE86xrTv9SyfOSe2p9E8/Ja7XObsByy5q+yhvnuy0uVB+aIT2nKoL2gzR5+kMvAypQABq9kl3jTWnjCcL58ql6PanNCWyT6uLRgrHZdZkAHjTCFFDGjmg5CvW75wOadGLx+Bo6hcbMBZLMo38Y7yhbfPV2m+70FjbiH4bvr25d2cL6MvdRzStqeU+4MtMbhL4BP7abCEFL2jY4zszjDDmHEmGDR4y6U2eogBKDsRt8TsPBgnHtOS+NMFtpEsbDOgBtk8LLMOiXYabKegE/S5G3vkZIDhlJkgQuYyMQN0n3Of7I41M0DjlhNMNnSobAzKZpW7CBrPXPkgDMnmMpjewJBiD8aDq/RVP8kD1SB9twEAwyHrLc89mAcakdxUQ6kT+9qcxQRl3BqAlwnSpNFiQEN46fGFc9oM4/y8s3yBZMdL14RP1PTxafZRctdL7v5s/ZI1PKjBYHZUJr8Y+OzzzEgud5XjCqZMl9gbpI8KP/o/nmfOCeA4THmxnJqeVbPNoxfLeSvn4gJd4n8Ld+3+LcoXL+8RbwytPXGmfMnsds9v2vPlS3zuBsZApm5mG3k+CHkwRMBg21GIIf5tc2r08hEYhqNgsDv9Rfkm3lq+8PrkDeJtoikH9768v5F9H5V15TaqN4dAWMAmQ2CpDYLe3BkQ5nALGLsvSULKHu3Qf/3Xv+eTluEwUOMl4CeuMMstLJOThISAwTKKEwdku2wjiY1sM2DebBjTEEzIJJEABg53bwrI0WNpSA6R8BhIhwawxAlxYkjpuLA7FtDFWWSCPizAxi5mgBY9nw6nMRpnqhOV9DVywAB9AuAyqUOPmd5sdkfQZ/BJ0QzAsbTZBsBYGuttYcYWJygTFQ6NdloupCM4QZ+OcU75xeSLjOHWWQDCvSFOy/vLF7OQRC/PD8iFMp+kKXqgFxofjOQ5yfScZ0DGk2s9KKOfecdG+/mcYMoH82T54uHt0ZWjVJazistZQGDMXQQM4mELXb57+WKoacaznYu3nK+Toi1HtTmhLcE8qC1iuetz5jwGeEOvMjwYImCw7Sg6n2MtYeQRaIlmsYFlSbyDt5YvvFnIs2kT0MzXHOYusbzyWOrBIVROMEY/G+9veoXlNZ9wKzsGsjZ6mI0Atk7omLl4l08vgUvvTjMCzkaEnKFnDiF9dyPRRnYzQEOY3pZe22hhq+TSMIg5zwVNwp6e7b4MFAzpdvHl3BeeGUtveRbYzC4ZCMH4F/DDrXig73I66A2zGWQGdaZz9O0oDnG72Mz3cQBh+0TEvml6vucEFvtEbhj6nwHPCd57HFfh/eULMFvygmBmkyMTlLxgFlmwnw9jJhdmfrkVS4SsJBw69CLTK/bolfUfm+N5snwBzkUPxeVo3J5V82hE5q6yBYTyArfwf7vY4ElJu3foijZLxRAcnealgdGWkkhlnCze4sT5pkxZAsPnNAv3aov4mW2a4T8lBST4bUK+bvmCsDzZmS6zwecyTaezKN/EW8uXCPfwdKFlH/Rd9tXjZZz7QDwr3LQD7HffWYeI27ldbImTuXVsD6StE6YQM/TcnXPPnjbNsuEoJwmZqZfIdtmNZLKbgSUY5MVmGy08mMJ8LsSTsBfP2KChZY7BCd4uvpz7wjNjGSqfXiZOoEsGUqbFiWFgzDTjgcsZcLzN0cEueJh9ARsslcMy37h6JoDgNOcTATveLgb3nAD22wjBYPQ/A56xTf18NFfhQ+ULEyZxtDwncmHTAEzW8pDQZH0AHuazQc4lAilGwGb2mkOwdPDvEMajjB4z2nT+XXi+fPHI5ExaTr7dswqlB7+9VEJqoAWMH5Qv4Km8tWGgHKgY0Bw3EJgGnrUzmF37RbncBSPJfHW7BLarBPtuM7BbFtCYnRoMIgtOMFieBdwbYrLtyOjOiM85rqD07hInLNkQum+Vb+Kt5QsvlC/jY+ziS0dHZHuhcZcXzaawwH7yYD/17WZDcIi5n0xw7qBsC2qW3Ua2TuiVLui56ywkd6fZPGOQHRecoDkEZLvsRjLZzYDBTG8zMNhNyIMpEENGQZOwt54BA/RLVMsE59wXnhnLUBM/NrMLt5TFoXE7Zz1l+s4kx5uuEnO6zL6APZbKwUFvF78M8WQAYRko7CrvOQHstxHCfCgz4GVc3HJJu/fIzsxHyxemndwhJMXmiE8S53IJJG55EjO5GNsRWScIGOCc/KJB4BIPCFzqjU+UWGrjiNogAHe/4+N5vnzxTNqebbtnFaea5xwHHndVgsbbc50De6tccPR5MDPo7KXBLDiIAY0BpybwFmRG8yxXEycIr87XIzxduKWTpSNoudQWBLloElj027oBMFiqENgdYmHp6HDKBj8jn3e3YXh3efq7yjfx1vKFtykyLO815BXzDUXAmC6+m7ykyOmV19MhEPK2ivb2BQQ02ETDcGgcwlvqF7jLWAlb+xjTEYdxohJwPh3iAQOdYIasHjNnpAeaE0c5s5G+gKzn3UiUxYGiRECjcnpbeoHR3i5+eVL3poDemAElzcgR4plesSHg7aPHeNfJwuOxaAxkbHxqlgwDQ3NLeaYXnybTgPmMB/o6onme3rCJE+5qpp85eh5Q0L9jxf7VALagx+x28ctj4nNXOWcxwXirBGMgqkXWP43w6GjAF+VD5QuJWCbPwzY1WRYkPUtBtr0gOZ1P2gVB4y5O4pakI/vMlO0Ve59TLml4QPO9eL58AU7o5VxMTbA0q4qpyXmJoEZXHnVpj8+89LWlYlj0S1uGoCUY2PZVP3tNe+AIX+L01E9LYGExoFkHTD0jokEfDc1yxLa4xX4Gdm+Iyb1E+SzmWLM5bi6XNcC4tNvFl0vCZfAOXl2W7nq2Ze+jPXiLaVzOF1Bj32Jb9tyYLRsFzAB8hemVUeLBbSeXC9jPXQVmGG5QuTTOXDqoYBn9TTUiJIYMlAhRzinMhBjtEsmLyy9YMjAvp7yd+4zWZ7co1cDyUIh5GyeaOSk7TmYXLHdtYDuWegOj4zRAxkCZW9jnFl0Sj5dTE4EUJUsYTG928ZJm8ufoS+a1F2/NUdRvA0i7l5BXHxMhoZmzCDMhy60ZvG4zd3vpdhunj/sqfKh8KU/SZJYT0mVZyjuwOLhdXJltsdLypaw0meWEdFmW8g4+R/niV023ixfQtHwpK01mOSFdlqW8Ff/yxZa/7rkocy40/wbtQrR8OYIms5yQLstSynVp+XIETWY5IV2WpZTr0vLlCJrMckK6LEsp16XlyxE0meWEdFmWUq5Ly5cjaDLLCemyLKVcl5YvR9BklhPSZVlKuS4tX46gySwnpMuylHJdWr4cQZNZTkiXZSnlurR8OYIms5yQLstSynVp+XIETWY5IV2WpZTr0vLlCJrMckK6LEsp16XlyxE0meWEdFmWUq5Ly5cjaDLLCemyLKVcl5YvR9BklhPSZVlKuS4tX46gySwnpMuylHJdWr4cQZNZTkiXZSnlurR8OYIms5yQLstSynVp+XIETWY5IV2WpZTr0vLlCJrMckK6LEsp16XlyxE0meWEdFmWUq5Ly5cjaDLLCemyLKVcl5YvR9BklhPSZVlKuS4tX46gySwnpMuylHJdWr4cQZNZTkiXZSnlurR8OYIms5yQLstSynVp+XIETWY5IV2WpZTr0vLlCJrMckK6LEsp1+VR+VJKKaWUck5u5Yr/CblRPk6TWU5Il2Up5bq0fDmCJrOckC7LUsp1aflyBE1mOSFdlqWU69Ly5QiazHJCuixLKdfl1OXLb37zFz/99Pf+8Ie/u10P0NN+//u/uV3/8Y+/+tWf0W4XJ+PZZP4/f/nHv/7pTy3887//hd72L/+z292F/++///nuv/7b2yUg7/aawyHLNKYBo8MS22zlmjyzLH/3u7+69w4+Ax3pjpPb9afj17/+cyZ4u/iS7R7FJfa3iw33/Fya3/72L7/6vHCI29tFeQ4W3oO19wAW8LKM4SSn7anLF7J2b99EP9NHck9bu8BTyfw//r0vSgHqDC6XqiKXFjS7FcyDW+hp1DcTxg3WKLOvXVIM/dN/61bNBC5nqVSuw6vL0trlwWv4GGsX2mctX5zg7WLDskeRhHvnhyfE+5L8o+GKavnyJiyy31G+uDJps3w5z2l73vKFHD3Y9bj1m9/8xe3ipcY/88v/ejKtOZY6wApG5VK+AJez8hDMqDDQ87lFPR0nceLXNtu6ZxYo2/KlXJZn3nErmHe/XB7wr5Yv7/tzYeD1n9vrYTCvB+Mue9SUFz6S4RPywaf5KqSr5cvkmfXPQ3nfc8HzUr5sk/+tn/g9zlu+PH6fyddM6Mlf/leSaWmyLQum/snyheKD5pcoy7csgL1+ZsfICNx6zFK+bGudch1OUr44xO3i7TjEq9v3t+Cr7FGUNQ8qm8vxwaf5DPhv+RKeXP9fsXxZYPVetXz51a/+jLnR5g6lJkoXNA3ZXNPyMufu8pdBKmk31VAq3LS//PUq7Xsl8VVeSea9rz2AcsHvUZbyxS9RUC5oDNzd1kNWKsvfEKV8QTnLml2W8uVV+3Ji3lG+5F3b/fZYY24huN/5vnOpQV5/midQHNK2p/jcBxKDew4+sZ8GuyFBDAxJojQ2w9BDfL4Y/ozzioHsKtNX4ab95X/jo23nqPHt4iUSHMZP7GeiTB2w42GAPcokGdCjcT9MR29hjCbKDD0fzYwn5C7tphpJoOFhBmnkhqcxcBmDm+p+SJOEpxmf6tNrjhK4i95BjWcGrI0aBJXzEIlzWpafOY+fmfYYJ7zdrCLTK6lAk4F2vUWpnI44zzqh7WYAJbeI2RZ7g1FOtBMGyt3YQ0Y3UXx6STPOdKS99HiU4Q/y/vLFB+PM+VQwO05D2aeObO5MMZ+mw1wgQATzZUcs9aalSlxx+bPpi6xP49HgbLySzKWemCzlS9quMX5SWyBgtpBqw7t+PaNy+60MaGZzRMumtFRL5YK8tXzJaw68d9ttaL6JvuDKvsLzDXVz0Ft2twU3DWX3BIVsCN6dwy04SuwVplLZkNBoo9vo3XkQVCosSkdXaS+ccPly/+e06NPhVMoMAJwmTXuCQeZzzjGpwEbjdJ8wuk5APwhEYhczj4E2ePDZgcaLz+kt3eMW4moqTUg8c5mcYKzZvZAm2+lrzKcCbDtqSSMkNQgJAIGhjdaG0seRgeLQiRAGGo31oxNtUDqQPjHezardY6zsLBZvCglJS5odsTSGmZwFbPRsd6ez2MdmYrTKTll7RnR0SAB8JlHcVQkI2OjKhtJIdqN9B+8vX3anTWRRzjQ57aSPvggzR8HpYYOsBz4XS4ZAo6ArQBP5bLySzLd++4IwvwIJFB/5CyN95tsamdWJhQg8KF9gjgv0mkNv7ct1eGv5wvuFPJs2Ac2yJ/gK+7ayCWRrAyz1sLzdAWP0s7E5pFdwiN0NEb1DT1AmyNmX3QljI0TjZrUb21S6Xy1KYAiHxmE2d5SRZesfm7mPYT+7JCdecmumdDLHnaPgPNOPDRrdphn8gumi6QFXW7NlRgzhdOzLp3qYfrYhTVDSbhdfdkSeTYOAmaMLnhd74pkBz/UQQfBjDDPn8Y+wDRulo6SZrgiw682QZuMWeoRtxxnzBMtl7ka42GOj8wnKDOQKT05m0z9hZO4Ii82DDH+cd5YvM6CQ7IvTJlxk9LmFmflCs01cngq3Mk+EZBMydPRmTeUJeeWceFw6WC7MMmK3NNFgaYvPeZlBo7SgQT+Z48JSvuyWXOUivLV8iXAP31laXnZ3q7yk2akhnhVu2gH2dlxwiLh1iO2GSDBzO5JFOfcoBEZUT5w6392josRsdp/RcsnnjI1e23i2c18izNngWNjPLktKJ+kIs8uc0XS+nebEiRhYPBjPy/0/scwIz/aaqRb0Br8b0mSZJn4SwHS4BTNHF+TtOpkB53nNByfEYGAzmPjfDRtl5jXBc/K26w1hzjfsdtyGKsvcsTfCxR6bbZBzICy1t6PKyZz7WzOc5t238s7yhQkn4sA0ZtKZiZfOn3Cjd4Yot1PNfOLK7sqQx6Dellyfk9fPCf+aZikdKA6iXMqIeUvwsBQ0W5ulmsEeA7/dyeVis4y7lC+ydCkX4a3lC2/uMy+aXeZeaS80eHgx+RnNprCw7CcLuKIXm0A2xNuNX9jtviizRxEDcvYoHCpvPTucLfv+vT3Kqdm2EYIdMy5sTx0inCmasneVF9AbA8wuOE/YsdndzyezV+SpDHMsYAin40y5qx52/cywA5qpxE86TodbMHN0wcnjgLOWFKYxfU11BIj/ZSBBOcMOMw+73ri79Qa7HROz+oA39LeLF3uDWewZCEvlgEGUPjjtdweajwxh6203w15+kPeXLwkouUaZpDONGKDPlIgeG7qYlOhVTgG4ix8t6YiGSxoGpMxEqPdWvJ2NZ86J25cfweIjdcNSRgBFAxr/tojPVCETDGZtsa0zqEVmRwedmlfLFy7pVS7IW8sX3q/5xmXbDXn96cX7iOBL6hvti5xeeWEdAmF5f7W3LyCgwSYahkPjEN5SLwyUeLhlPAhRonFcwDhucWVseo7bbE0Op5KONC5Rmhn60rCMXkuIh8n0BgwXTdzSK/5xG58MxKXyAvrMFIEu9kLOjLDBA8IyU8Zd4qSXA03LGSpoYKgI2swwGItbzsKpqd8NaaJPQ1Km0cUAdAgGMMEgo4N9EzB36ZuAwdlpgLfI6h1o5jz+NYieXrhVic1UIqBUgF1vML3hRye7HR0F5xlIZkjKNHop64dP9UtfeqHEMjKNIZS1AZ3z6SPDiQ5NmhqcqFTj6DH4IO8sX4BEEwfNOQjT2CqxTLjOxLvJHc1MAZZRJqcZKxnUHgP13tL4hDxVvoDVQ1qgRIgytYWFxdLmdy1TPz3k/4+RbU0TS5vVid/N7LY5aLkOry7L7Rvq22fjrmZh3uXSrcqm8e7bHbPtKzwDcNOgV0ZZ9odcBs2WW7t7FJfZgjBOl909aiqThHt71MxJPEwwmJEwLq4SZHIS/9OhzcNjIVmlOSOU0eAkQ+CZW/PRbB1myonNmPVsMxUZN3mgOQRkUJqaXG5DmmQgffp0IEPQ8ixk3rqpvgwYeYl/yhhPDz67PAVCXfzPhCeBS1aXh/KkN8wedMTYS/QvY/6JjI4BlokqYyFwa9sRMI4Nn1mH0UeZvGkwU4o8L7cZ/iDvL1/K8zSZ5YR0WZ4EdnNPR2C750RRLqU8oOXLETSZ5YR0WZ4E/2ztn2VbvpTyJC1fjqDJLCeky/JUULUsf4NQSnlAy5cjaDLLCemyLKVcl5YvR9BklhPSZVlKuS4tX46gySwnpMuylHJdWr4cQZNZTkiXZSnlurR8OYIms5yQLstSynVp+XIETWY5IV2WpZTr0vLlCJrMckK6LEsp16XlyxE0meWEdFmWUq5Ly5cjaDLLCemyLKVcl5YvR9BklhNyhmXpr7jlF3/egT87d7t4DX9D7nbxHPlncP2XcPO7d+/An9B7awCH8U3Dmw+aR7abxo8vhnIGWEK+LJF54l5+XVq+HEGTWU7Id1+W+QXad59Y/iv7b/qRoHtn5xbDm8e50d4u3g5Dn7Z2gWPC85FtH8HHF0M5A9Yry2vyjdZVy5cjaDLLCXlmWXKWcN7cLr4BH/8DN+G9Wr4ss3jmnKYLgW3NHkeLvb+8uMviDctXw/jIlz3wpu6vBvO1IP9f99uX5fm+iQ9muGxhIc3yBZkne7v4qrR8OYIms5yQZ5Ylm/u7D4ZnOKZ82c7i1UGx37Vha77XET1dHpQvC4T9uGIgho8crub2dnEm7s3r3Yvh3av0gxkuuyzly7ej5csRNJnlhLy6LDlf2YZsnspuTDQrBs94Zc8emsePBwMNzfaQjh8FujiWh9B0uxCHWgLCtLSvTY2ebakt8LONakKv3QCCxUrc0nK52zF3/ZNoLmm4mt09UJ2pzS6TJDBjJR5ccTcGtORKtIyBSmUaYy1T467B6GeGimU0OjSe7WPyrjJK84+Gltm5hPQJeZQm5B6MqBmNSGbwSY6eEdTr0CBt2wzbhUYYhIpn49Fn7ibahIGxmgl3zYY2ZhW2yTT+JAeNvfikvXT6mQw3k8MlgWUUHToEsl2MXzLKVAb84DwRznll9N3J6vZ28SXOzrY76Jto+XIETWY5Ic8sS/avbJrsStmt0Ltvosk2lI0yG2i26cns4j7oPruMtd3d2JoNYN6ly5TjAW94jhy94MH470HfbQDBw0DZkwyNW/PulBOJKdIGD05nytOAmHeDxDIdMdCGT9MYVwb2s9HAIGnTc8yW0TMKqOQzHbmrsQ6T4e1j0pL2cv9nz8ixQdZ5MqkNlz9bv8woznchpBhEdqY40a0NvQE7IpYzD8EuyjPCzAj0k5wrZNAXkxvcRRk9IyIj4GFJpt1p0WPjdGZIOMwQMbYjzVsmzSBtOJ/hMSLtZxdjFQX62ku94Xnr8WRhGi/gbXk66t9Hy5cjaDLLCXlr+ZJdOA0lWxV6DeaGTq9lQwzYYKnM/pUuc6zpNkzjQBct3RDnXS7doKdn2fU/oe8DAzfo2YjNADK1YNizGRX+FUIsdXIvh3SMKxtKLBdjvd0uBkuc98LDIA6RTSwhLcbcoiEk8zqcDwLMmPIyL6bj05kdEWZ7/LDwtjxfQ6Lhk8uZijn9Bxm2I+hKe2aRSDLrjJW2BAP0yrM2APxjNnvRcDXDA53nEug4szENEBJ2cqKBWYXY4AR5Ng3CTA5dNNDbbNvJzme9S5wk2vfR8uUImsxyQt5avrDdZBMMuxs68tz7Jsvu7LZolznWdDvJnpvDgC5aLts0oNfh9Cz3/Ae64O12sQFvCSAsUwtYLqMLAcSJecBsOuFyN4fLNMXp27ybI2dhifNeeECEmiVO4tkeOQ49Q6KjkaQjQoJZ5pWnk8VghN59hngAg9E/gtHOVMzpP8hwpqnD5CHLJrPGctfJZD5r0D+9MkqY4QlmaGjOccYA2usnAtBL+8SpfhpHuctMDl2wV3h1svNZLxiMHhLJu2n5cgRNZjkhby1f2DS3283uho5872CYuy24LdpljrXs0QtYxgldtHT0GSF6z4zpWdDvhhf0ZvcJ/mm73Z0aHW/Xv4D97lwS3uw45Xs5pOOc5sTuNGRsFBaWOO+FB04T+wxHSEsmwVxhdrv+Bfqity+uEswyr0zHgPUzI3wVvCWqjDhlPauc07+X4enE2WnPLJKrzFpB5T3yrCEB7CZzhjfBEj1OzKRZgmmPkLCTk8SpPjYPVpHM5CSBz0x2PuuFjL7I76PlyxE0meWEPF++sPex0Sz7ppvj3KowRtZm7n0Lmk3ZLsjponI5Vo1BGUv3PgaKmd6McO6z6DOLaOLqHk7NaQoaL3HFrXhgLDyrRN56nn4w08AjDft/8k/+OwyMjU+dINPFhCwOucTGaYKesVRjGAi6Qli6J87b9Z3wlLllDEIvNEkjAhqVjq4yHuirsTGrZKzI6PP4DFg/0wYS3i6MggEd9eDoM1T1L7ZfTJ9euxlGuWs/Z6ENDQOmoB/ZRotBpplBZ4SAgGYOBwjxhmCcGMQbmgw9vaG0o6PgVn1snEv025gTJ8wEvjrZmaUF9E5hmfv7aPlyBE1mOSHPLEt3ornzcmnL1hNNNkR2NzXpuIBeAx26h7qj2XC17cuICcBNM5cxztA0NbDMArh0UPfle9voDInmzivzVnZz5zXNhLFinDAM3r5zXgqEZGw07Scx0xKNGVNDbGgyqJcyw86sd8MTwmOs28ULiYrGrXnpQGjmdNCYf9uLjz/Fn9RNPz6a+Sj17ATndGQ+34xF9yQkbY6CnEv9TJa+GTQaBzLUqaepmeAtUzZOmfFgsH06aLa5gpipnE9wroTZ5ljY0CueaQ4XknxcJaU055tLmvZhGt9Ug9zN0zGS99Hy5QiazHJCfthlyY7Jxn27KJeC43M5aL81lhTbmulNWATcLspXouXLETSZ5YT8mMuSwmX+KbZcCIoA2u3iKFq+nJaWL0fQZJYT8gMuS46QniLleaxdbO+uYOKh3/l9XVq+HEGTWU5Il2Up5bq0fDmCJrOckC7LUsp1aflyBE1mOSFdlqWU69Ly5QiazHJCuixLKdel5csRNJnlhHRZllKuS8uXI2gyywnpsiylXJeWL0fQZJYT0mVZSrkuLV+OoMksJ6TLspRyXVq+HEGTWU7ItZalP8Jyuyil/PC0fDmCJrOckAstS3+R7nZRSiktX46hySwn5ELL8ne/+6v8tG8ppUDLlyNoMssJ6bIspVyXli9H0GSWE/LMsvz1r//8N7/5i1/96s9++unv/e53fzV/wS6/2+xvOOeW35QsNrsdo0Sg164Gfvvbv1R5/K8Nl1JOS8uXI2gyywl5dVlSZ1g35C9u8rv/1hl8UrtoY1HipXVGbHY7quQT0FisbDXzN6IZIqVPKeUHp+XLETSZ5YQ8sywpF7a/8k9hQXmRKsRvX+YtZb+D0UaWjhQri/NdjV3SbjdKKT82LV+OoMksJ+Qd5Yv1B5pZmjxTvux2TDVDe+mxo0HIdz+llBJavhxBk1lOyFvLl1l5vKl8uddRkNHkr41gavjEp/pSSgktX46gySwn5H3li8WEZYpVyJPly7ZjShYuU6wsGv+/XTyoTzCllB+cli9H0GSWE/LqsqSAoHSgpTqhelATIQ1jSw2bZUrkbUeU094CZauZg9KsgTSzBiql/Ji0fDmCJrOckC7LUsp1aflyBE1mOSFdlqWU69Ly5QiazHJCuixLKdel5csRNJnlhHRZllKuS8uXI2gyywnpsiylXJeWL0fQZJYT0mVZSrkuLV+OoMksJ6TLspRyXVq+HEGTWU5Il2Up5bq0fDmCJrOckC7LUsp1aflyBE1mOSFdlqWU69Ly5QiazHJCuixLKdel5csRNJnlhHRZllKuS8uXI2gyywnpsiylXJeWL0fQZJYT0mVZSrkuLV+OoMksJ6TLspRyXVq+HEGTWU5Il2Up5bq0fDmCJrOckC7LUsp1aflyBE1mOSFdlqWU69Ly5QiazHJCuixLKdel5csRNJnlhHRZllKuS8uXI2gyywnpsiylXJeWL0fQZJYT0mVZSrkuLV+OoMksJ6TLspRyXVq+HEGTWU5Il2Up5bq0fDmCJrOckC7LUsp1aflyBE1mOSFdlqWU69Ly5QiazHJCuixLKdel5csRNJnlhHRZllKuS8uXI2gyywnpsiylXJdH5UsppZRSyjm5lSv+J+RG+ThNZjkhXZallOvS8uUImsxyQrosSynXpeXLETSZ5YR0WZZSrkvLlyNoMssJ6bIspVyXk5Yvv/vdX/3009/71a/+7Ha9gbu//vWf3y5Oz7PJ/H/+8o9//dOfWvjnf/8Lve1f/me3uwv/33//891//be3S0De7TWHQ5ZpTANGhyW22R4wzRwCb0a4vRX+j3/vi7v/9N+66WHp63SMcPaKwxk2fWWZIy3p2t6abcm5xnEr82HFfob9h//8T/K23Xus34Dv+47/4Q9/x1vMm367Ppbf/vYvGf128RbYlH7zm79QxgONiXh5ReZ0vgts488H8O6nFjxZLv3IjuSD2f7WnLR8AVYqDcEF9/vf/416QHOh2gWeSqanb+AY4zLHsCdlLj0jd4+6B7fQ05bjlnGDh/3sa5ec7lQS1gqBy9ydGP/sa2AZzvnO0mSS8z5Thm0XfUYzq4QZ1ZxjAgt059J5mWf76jyWOFmyqis7TnRim9k2jDcN8S35ju+4tQvtu5QvnoLv2Jo57Ok1j1sm8r0qsI+znc7BsI0fGYBHCa3ly6tw4J4/UectX1jZs2SZfN8/LryD15PpMeaRFjwdVXrmzbOcy3kqC2Ycxuh3ywL1OSwlTjz7t8cnsSUwum9P6y2WQbRlRugzHAIGu3HCtnwxRVt7DKKkVwqCaZmYE9isKswtjbvIyUBcybwlDDENApbpO+8axpuG+JZ833fcCuZ7nf1f5dsXnHCpfEKI89Xj51rfvnwcK5hX0/LBPx5f60/Xu1yiyDtp+ULiHuwL50/rwivJ5NDiAMsRG6ZeOWc5cJlSIHD40Tyk5wkt2OtndlzqicdwYM847521nuvb8CDdHW4WGZOlfDFs2u6IGYhe2GOjcfQZ1MC2g+7q6aWfXWaptERFtHkKtLidqZPHQ3xjWr7cLt7Cdz/vn+TJPz23fNlCPB+pPxzidnFNyMAlFvn7yxeeEI2XxPfE5+2TmzPP97Qa8LYgo0TGbDFWgw1+1E970WbpeHJeSaZH9e7BzMnn4beULx63KBdyUnJ3e1h6nHusZric8Sgj3wP/0+2ufSqP3RkF+mKTgBeW8gVX8/Ieli+wFBaJWeU2bIOhzZQ+ri306YNYZmH5Aglb44QRHg/xjXn1Hfft80XLu5lbvJV5u/NFqbuBbfeQiIF9U77kvc7JgQGjWOVoj1I5YeTuVC4d50aRURz9pv3FLS3xLHiX7nieDiczmCQE2d1MPRqHVq8NPlHGxr56i7GNS26RIuQkCnkOQUculWkxm3gr08lDcWhlx5qgwT7GdFSPwChGZa8ZNvFoBtrQEhUC3RNwcoJSzaIkgMj0TTDbaEEnfNLUOFBC2saZCGkZN8Q+YczUYT8dZtAQY5rDqUHGIULcLjiRxWAbvE4c1y6xR4g9gyozWYRkI2hzu7j/3GcAyCp9oEayTeDX5f3lCxAfU3IN8UmsxO2nBihNHwnC2DRNexrCi+3P3pQ1Tvq0V8abNmiwUXl+XknmUk9MOBc9Gi1f0naN8ZMD0nNxIce2dznsQaX+l3M9hyvNET2t05ZjW5wObTfIYMWw6wHulS/GfI+UL5BQUZqW5HCZJhgM7a3ly25gKV8gnufTCY+H+MY8847zus3dytfZvYnmnoVN3koFcGtTDr627gO4RXaDc994MfnZOZfZGR0xl8juD9onvCiXjmiQM2LC0yayguFltwkoHU5vjrjAEI4IGZRPm92VTRpOtOdz2hAhcvomYMDSvpC5aEazOzaGN1O9EGPj1N4RM/c5liSxjmtfPumuPn2xTNjeNQyUcyxjQImsnk87zuBRmihdTZmmvbEhTHCiW0NVqazne3EiRz/BnqaMgTbGA3R3RnO4CfHErQE7TRtDz7RMZjwYGMO94FE6a8DG8Ph0FPVY2nfmOSxKQ6XZxdnxabQYxwYBG40Xn9+I95cvTCCZInqaMp8+gOQO0CgzKwRuOe0Yz6RDOmqvjIEZBDxEPj+vJNOjevew5wz2gPfo9WxG2B6EwEmZQ1SfOctlHtue7qByt3yBOS7Qaw69tQeM6UL7puVLDNIIFWVCNXJbYvZyG7bB0CYPagtGMZKMMtOCcs5dA9p23AdDfHveXb6Ab7FyXkwEN680X/OAWXq5/fn6zy40R5nDLVsqsh3Fu1HudnS4eMCGSwS62DctEQqXc6vB89ypgg5ny9QS6jPJTFoUZgKnWXIOu0MsGQv3prMMN8cKM2bAj65mMLANGwPjuakGCRgW/8BdekWJ5ZQzqA9ROTjijAS0NC3LXeNEmJ4nGNBlNpWJX3aDAcxmXxqjG2QeE3Iepfhcts/R7reLEca9fCLkgepzGShs47/33CXz8nIG8K15f/li0KaVuWU+mQaCCeJWlGhmHtUv+eIy849sxn1geJjZPD+vJNMjcHu2qfdcVPZs9uTOOS05R2dbfM7LDBqlBQ36yRwXlvJlt0BJJNsZTbiLzZPlSy6XERcns3yB9Eok9wZ17kvAD2oL7ZcWyMCMMwnZjvu5yhc+feXvMXtlD1VQOZnD3dvl1Tt6lLsdFw/YcKmQCe6S2Qmed+1RZmqTRAXPJBPsYlrc8WSazah2h1jmG2ZHyHSW4ZaQZMYMcTV9bsPmFo0I0d9UA24ZAEz/6PUzlVhOOYM+cI6eliG0JMh7cSJMzxM73i5+QYe2qVGe4JNbt4tfWB4T8mKzGMiD4PnczSfCfKDY4IG2nek2/gfPHUvsZ5cZwLfm/eUL4Zq+mV+m4cRU2ubzmHOLMZoofTDpgoGjmCDbfGyX4PVzwmNsKR38ykGlR2DO5nlL8LAUNFub5XjGHoOcqV4uNsu4GM/yRZYukFN5ji5xtVtJYO/Bv5QvsGu/KJfyBUxCIoxbhLCrhHu1BWYGKeaNlqEzi6DNEjzcG+IQvnr5Ml/kXei1+6bvvtRzuLnJwOyYvSLybkeFjIINlwh0ifEuBDwN5hQmODQJCzPCZ5JpWogzgnqYZvjJcLtDZOLqw73pLMPNscKMGTLWDEY/s69m9+KJE4j/OdCUsZxyBmX6OFfegmVC0pIw7sWJMD1PGDp5XnB2xnYvGNzqf7KkBXkZwjjzXORB8Lv5BIRpL2jws0S1fVLTDzjEnOaUZwDfmneWL8ww82FuyYuz4tP8JgVMSZtMEmJMwwAN9ril4Z9bOlE2p3YEbFDeLk7PM+fEz2fbPMY8d+eJOC/Bk9sTl8/t0QgY5OSGKQvH5+zooFPzavnC5XJUi+HRgq74FA2WsDNWSoo5ZYzRLDOaTpbCQrCZXZwjLXi57XivtthqDCx65rhkCZZUy70hDuHJ8sV3E3gBab74fM63Xhtf0ryYvrbKQhff6Mja4wFBG+CSTwwcC/Sc/cReCoYxh77XEWX0COhpyHw6ImCpw6CHOcq0D25W6YtlIlQAspSOM8gZGAbZDOmLH/WAjd29RdNyd4hM/Mnp6FM/fKpf+nKJ0pDiHzkxC5cx061mc5pgnLs5cSCVGMzkTDmDGrByIIB4RnAuWibs3TjjeXf62oDOEw9+lBPM0t2MmWFAQKMyPqdBIBgdiuPeCx7jpAUlzaj4TDxYxgalDifxLE5cTQLeZvLF9osH+q15Z/lCfMkFeXEOypmSc7Y5cyacrEGMzQjNRCNopj5dzJEtI16Cp8oXyMm6HGk55Gg5Aq0GlpbiAKZ+erDiCfNol1jaPNcpIxZ92hx0khLENouMqV8ady1K0uapv+2b6aTXbpWwkO62hW1uTcLUp66KxvZ//vt/khdmGPeGOJBnlmXeTRpvdN5QG68kr6eyt9zUcvfFxxfkLVbIZh0/NAadL/v0OWXiySZDd/eT2aaxW1Au9e/QbCbRO4uF+HGU3XnBzBWW062py605Ozrq00sDmK6SooSh/eMhsFdO93BvOokBAT0O1QeHoJdmpjSX3NIM4oo29+pESJuXOJlduBV5RqUwY0DOGqDNseYqwh5NJh7L3Thj5uVk2pvY7eh8eml+JjMAXM3LKW8zn/nSEudu8HPl+LxQRkMXLjFOXw0WuKul7D53QKlmRmIz4d+ad5Yv5U00meWEdFmeBM/g28WJyXFYPj2UICmJTvvcW74cQZNZTkiX5Ulo+VLOht8h+UVLy5cfmiaznJAuyzOQ79vn1/UnZP4FwU1VPjtULWd+7i1fjqDJLCeky7KUcl1avhxBk1lOSJdlKeW6tHw5giaznJAuy1LKdWn5cgRNZjkhXZallOvS8uUImsxyQrosSynXpeXLEXy+ZHZ5fAL6EEsp16XlyxG0fCknpA+xlHJdWr4cQcuXckL6EEsp16XlyxG0fCknpA+xlHJdWr4cwSvJ/Ke//F7xbPklwoV//vfXH1nc/vgfzR8UXG79y//8i8u0+VOCy620+cvPXR6fgu/7EP1Xyf3du+P57csv7d0u3oL/Dqmy/xRpfhrm08AE84/E+1OCmSPyJX7f4CNs14Zr9ST/LDJP5PlIPvi8fj1+v/qEtHw5gteT6e85U22IBc1uBWMxEctACZJfWkbGJr9gvFQ8yPMyP3Mdn2omRPLl7yF3eXwCvuND9DygfZfyxfOJdrt+Gg51es3Dg4l8rwrsAKxdaJ+vRLvH7tpAeZLaRYjnmR8hciLvLl/8iemWLz86by5fKBdm/RHQLKVJmOULYDOrmQflCzhc7Lfly4Yuj0/A932IVjDf6+z3lLpdvIX57cuTp8hX51ucKPd8WsF8pHwhS/7y31XYro2lAmA6i+ZJSOPXKoMI4BlXTOR9oQqr4tXFxgr5yFv8kZy0fDmCr1a+UGFgQ/ExKxVZyhdsUoK8Wr6AVZHf9yzlC0r1gy6PT0DLl9vFW5jly3eB0b96+UI27tVhHyxffMpXL18WyNX7agIe3FdcPITxamKZyLcuXxjiI2/xR3LS8uUI3la+8Im8LVCoISgyQOOlpFjKF+RcPlO+6NOCaSlfuGz58hl59SGyP7I3ubnwiZxDzh3cjZ6WbRRBDW33zIuBfbPx6Z+W7RIDRvH80x6lcsLI3alcOs7NMaM4+k37i1vavY3Yu3TH83QoGcvu2GicW8yaeWnz0uMLtrMwTmULCBpmcUJD7y3nYt4e5H/6yYgokxOaScZVnoK9dGUvNN5ymnpQM8MjkhmMcwF70eYDzbjIGVq9BstccMKt3GUg9ZkXTZ9gGNxy6ESykDzo9qa9E7DNqNIxkWNJrwRjfuKHZsCJ35D0ozwflrdwbn4yL5R6fsC0n49DtwvewixuHVQZMgWVmaBNm0nsZ8xcJvJtTt5Ey5cjeLZ8SduUCz9DzRE9NpYyYZYv1h/WIvBM+YLndLH7bC1fPiPPPET2qexlbsoIy66UPY4NKJsdtzBQDm6gc9P3LESehyKXdqc5Yi6R3TS1T3hRLh09BjJiwtMmsoLhbbdRlA6nN0fcEjMwsLm/6xbBpE22s0DGzCnAkjdnYTDTIWaZoHlQDtMPIG/HwgP6+HEUumQu6aKwxPNzn7Ek7JWUMoqjq9cDykwh3hwrUU1Qetdey1j6d6YYKNi4NcedZFzQWPmZgOMNPZfc0oPBmxadMAQGL7Y/JzBOMgU09oI8LLroMGkUPMf4HvRyFPpmgkaoHBhF/zPIBAaMlZnSPXrk6CfYL6nDv57NyYvVF8O9lZYvR/Bs+fKv//ZWRnC5wK355QoVCWYTNWmzuHmmfOm3Lz8e7y5fACGbLwbuZQjsSrMtGy5m6TXPg9mF5ihzOPygdzcE5LljejfK3Y4OFw/YcIngTjpbIhQus1MDnu/ttvRNVMmb4yYPM28Lz8wCOdkGg1eGV/M//QDydizA/zKEXZxLuiC/mKzgilt6mNPPBNNM0czJnB0GjrVltwuCDiUR3pt1MMgYLB1n2wa8GJhG7irAHJ04EyEGsyMN5b2OmePER3O7uAMGhooHR0nDvzaCQYYODOq4jDXvGpseELaPSYPZ8D97hZmTt9Ly5QjeUL6A1YNy2H4jQptVDjXKrG8mz5QvVj+WKUv5grLly2fkq5cvfN47b2T28szAXkHl5N5WDnaM3tGj3O24eMCGS4XHu2dmJ3i+Z58AIHlzdtmyZwbC87NAnvFgiV4Z0CeAXZYk7I4F+FmGsItzyRDItmhwonGCtIvTxyxuJzMnc3bT88JuFz7NuSTye7MOiwGeuUR4NWBnp3Iy8zmdzwjniOFex5mW4ARvF3fAwFDpfi+Z4lxsPi+gl+POwEBjHUaY3EsdSodIHtDMp/YmWr4cwdvKF6C8WGqRWU8IBrMK+Uj54lc+US7li3z5HUyXxyfgq5cvCI93InrFYNkBs2OGe1s5zI7ZOiPvdlTIKNhwiUCXGO9CwNNgTmFhBpO8Oc2MS/fkLcyOke9NH7dmG7BErwzcuhebTD+wOxbgfxnCLs4loQodUeJ5BhZ5Tt/RX+5/wczJdLIdK+x24XPOIsm5N+uggUECnmdHlZM5+uwYZj7n6ESYB4TBdnb3Os60BLrP+e6CB0PFQ4Z+DF1mwI5rTpJDBC6dOMJ2IvdSJ0TCXQObOXkrLV+O4M3lC3CZGoL6g+phwS75Aubd5Uu+1wnb8oXC5UvnXR6fgCfLl+yb7Dg0d0w+3X0ge6t7VvYyBDe44CaoUll7tzNtwO0Mg92tHOylYBhz6HsdUUaPgJ6GzGc2UCx1GPQwR5n2k12zudED4y7+YemYWSC/3P/5KSDT8IZPs40BlrGB2R0QMq5ooFL/2iObGcOYD90hTKBz0b+jv5j8PCl8EthMrx4yfT1HL6YRpYLGNG0y1ha66BCSEGenK0CpjXqnALtucUiLjA1NeTdgPOPWWWspGnA33ubouMIAmQCwiR7SMd4wRtaGuzMMQWmvB9B9JiETR0CjLLiKxkERGDTjosyk8Dn1eKNlLrJNnenKpYFhg2xOvPU8LV+O4JVkUhlYQNAoNcTqZLZZc8y7//u/8yeZloIGqIfmrXv/6u6sjZZbaV/WT10en4BnHqK7no3txv0rGvYddh9lb7EHzbsvPr4AZe7ymT0rfmhuc7mcPqdMPDRluhNAbtmmsVtzLvXv0Gyd0WeDnsSPo+zOC2YwNMxm9mYwi4ftLNCgV+klnx4P8ZNeuTXv0nbjZAjv2h17lIkTPzFAmN7++q9/Hxk93c0hzWhnGr1lMueMIDY0NRnF3DLudJWOIbc0VnasZbmimVOY8mO3fN60ewFrwNBeJgbag6XLLQZFMFRYLFVGo/F8IukoXOITQT8PZrRNBV20CdhkIIPJZWbq5dSAZluHEHsalzM58bDk5E20fDmCz5fMLo9PQB9iKReFCmPWELAtXz49LV+OoOVLOSF9iKVcESqV+XWFX2nkG7gfh5YvR9DypZyQPsRSLsfv3vKTjZ+bli9H0GSWE9JlWUq5Li1fjqDJLCeky7KUcl1avhxBk1lOSJdlKeW6tHw5giaznJAuy1LKdWn5cgRNZjkhXZallOvS8uUImsxyQrosSynXpeXLETSZ5YR0WZZSrkvLlyNoMssJ6bIspVyXli9H0GSWE/LWZfmb8Zt8/n7K9/2HPv3xFH/2ZYu/pXLvbinl6rR8OYIms5yQNy1L/2Hy9/2y2jeC4inxENvyT5Fyq7VLKZ+Yli9H0GSWE/LWZTm/fVlYfj3uGB786+lUNj/gL9iV8kPR8uUImsxyQr5W+YL+u5QvDHrv+5Uf8OfrSvnRaPlyBE1mOSFPLkuqBP/aaJYv/p8luWv73e/+yruCPUq/IKEjslWFxi8mP4NSjQZ6diCqE/VaQjQKaKa9LA5v2lLK56LlyxE0meWEPLMsqU6sP6wJrBKsGGgvJo++feEWNQ296O6nvdLX/wXYL1Fw4t/4+LdCfOoWA6sQlJETGGgfeeuwlPL5aPlyBE1mOSGvLst8wyGUCPmSwwpGGf298gUb7lJw0LDRDLcKVjOWGjDLjlQkMbYu+dnuBQJAo4yBHe85LKV8Plq+HEGTWU7Iq8tyqRjeWr5QOmDj9x980tdiAnsrj3R0oJQjyHEY42kAGR0i33NYSvl8tHw5giaznJAnyxf/sgYoDt5UvqCnKdPROgbiEyUybXZnUPQZVGMrITWAfbpgP0fZOiylfEpavhxBk1lOyDPLcpYCVgZWMLvlSwoUwdKvW6g/7AVoMMYSpYJ6qxYEvOVbkxj/k3/y3zGcNQ0aWqqWRd46LKV8Slq+HEGTWU7IM8uSisGqhUaJMGsXG5cUCpEDlUeqB+xTVdjXy8W5BsiWKTCN8aYlnjGOmXrlXYellE9Jy5cjaDLLCemyLKVcl5YvR9BklhPSZVlKuS4tX46gySwnpMuylHJdWr4cQZNZTkiXZSnlurR8OYIms5yQLstSynVp+XIETWY5IV2WpZTr0vLlCJrMckK6LEsp16XlyxE0meWEdFmWUq5Ly5cjaDLLCemyLKVcl5YvR9BklhPSZVlKuS4tX46gySwnpMuylHJdWr4cQZNZTkiXZSnlurR8OYIms5yQLstSynVp+XIETWY5IV2WpZTr0vLlCJrMckK6LEsp16XlyxE0meWEdFmWUq5Ly5cjaDLLCemyLKVcl5YvR9BklhPSZVlKuS4tX46gySwnpMuylHJdWr4cQZNZTkiXZSnlurR8OYIms5yQLstSynVp+XIETWY5IV2WpZTr0vLlCJrMckK6LEsp16XlyxE0meWEdFmWUq5Ly5cjaDLLCemyLKVcl5YvR9BklhPSZVlKuS4tX46gySwnpMuylHJdWr4cQZNZTkiXZSnlurR8OYIms5yQLstSynVp+XIETWY5IV2WpZTr8qh8KaWUUko5J7dyxf+UUkoppZyff/xCy5dSSimlXAZqFz5bvpRSSinlMvxcvvzxj/8/X9y4J7VKds0AAAAASUVORK5CYII=;" vertex="1" parent="1">
          <mxGeometry x="2150.6" y="457" width="348.81" height="163" as="geometry" />
        </mxCell>
        <mxCell id="ZeBQX1oqdIYX9gZX3-Ay-191" value="" style="endArrow=classic;html=1;rounded=0;fontSize=13;fontColor=#000000;endSize=6;strokeColor=#26B0FF;strokeWidth=1;exitX=1;exitY=0.3333333333333333;exitDx=0;exitDy=0;exitPerimeter=0;entryX=0.5;entryY=1;entryDx=0;entryDy=0;" edge="1" parent="1" source="ZeBQX1oqdIYX9gZX3-Ay-143" target="ZeBQX1oqdIYX9gZX3-Ay-66">
          <mxGeometry relative="1" as="geometry">
            <mxPoint x="2012.62" y="717.75" as="sourcePoint" />
            <mxPoint x="2164.8324999999995" y="790.8" as="targetPoint" />
          </mxGeometry>
        </mxCell>
        <mxCell id="ZeBQX1oqdIYX9gZX3-Ay-192" value="" style="edgeLabel;resizable=0;html=1;align=left;verticalAlign=bottom;rounded=1;shadow=0;glass=0;labelBackgroundColor=none;sketch=0;fontSize=13;fontColor=#000000;strokeColor=default;strokeWidth=1;fillColor=#EBEBEB;gradientColor=none;gradientDirection=west;" connectable="0" vertex="1" parent="ZeBQX1oqdIYX9gZX3-Ay-191">
          <mxGeometry x="-1" relative="1" as="geometry" />
        </mxCell>
        <mxCell id="ZeBQX1oqdIYX9gZX3-Ay-193" value="Actions via Bouton" style="edgeLabel;html=1;align=center;verticalAlign=middle;resizable=0;points=[];fontSize=13;fontColor=#26B0FF;labelBackgroundColor=default;fontStyle=1" vertex="1" connectable="0" parent="ZeBQX1oqdIYX9gZX3-Ay-191">
          <mxGeometry x="-0.3044" y="-4" relative="1" as="geometry">
            <mxPoint x="35" y="7" as="offset" />
          </mxGeometry>
        </mxCell>
        <mxCell id="ZeBQX1oqdIYX9gZX3-Ay-70" value="" style="endArrow=classic;html=1;rounded=0;fillColor=#fff2cc;strokeColor=#d6b656;strokeWidth=2;dashed=1;endSize=6;exitX=0.5;exitY=1;exitDx=0;exitDy=0;entryX=0;entryY=0;entryDx=0;entryDy=0;" edge="1" parent="1" source="ZeBQX1oqdIYX9gZX3-Ay-67" target="ZeBQX1oqdIYX9gZX3-Ay-61">
          <mxGeometry width="50" height="50" relative="1" as="geometry">
            <mxPoint x="1930" y="680" as="sourcePoint" />
            <mxPoint x="1980" y="630" as="targetPoint" />
          </mxGeometry>
        </mxCell>
      </root>
    </mxGraphModel>
  </diagram>
</mxfile>
